<?xml version="1.0" standalone="no"?>
<!DOCTYPE svg PUBLIC "-//W3C//DTD SVG 1.1//EN" "http://www.w3.org/Graphics/SVG/1.1/DTD/svg11.dtd" >
<!--
2013-9-30: Created.
-->
<svg>
<metadata>
Created by iconfont
</metadata>
<defs>

<font id="e6-iconfont" horiz-adv-x="1024" >
  <font-face
    font-family="e6-iconfont"
    font-weight="500"
    font-stretch="normal"
    units-per-em="1024"
    ascent="896"
    descent="-128"
  />
    <missing-glyph />
    
    <glyph glyph-name="xiazai" unicode="&#58880;" d="M488.974391 14.311056a31.980012 31.980012 0 0 1 45.091818 0l477.141786 476.821986a31.980012 31.980012 0 0 1-45.091818 45.091817L543.980012 114.408495V864.019988a31.980012 31.980012 0 0 1-63.960024 0v-750.570894L56.924422 536.54466a31.980012 31.980012 0 0 1-45.091817-45.411618zM991.700187-63.400375H32.299813a31.980012 31.980012 0 1 1 0-63.960025h959.400374a31.980012 31.980012 0 1 1 0 63.960025z"  horiz-adv-x="1024" />

    
    <glyph glyph-name="phone" unicode="&#58929;" d="M928 352c-17.673 0-32 14.327-32 32 0 212.077-171.923 384-384 384-17.673 0-32 14.327-32 32s14.327 32 32 32c247.423 0 448-200.576 448-448 0-17.673-14.327-32-32-32z m-192 0c-17.673 0-32 14.327-32 32 0 106.039-85.961 192-192 192-17.673 0-32 14.327-32 32 0 17.673 14.327 32 32 32 141.385 0 256-114.615 256-256 0-17.673-14.327-32-32-32z m-88.784-175.522a315.728 315.728 0 0 1 3.439 3.633c0.06 0.057 0.117 0.114 0.174 0.172 18.348 19.517 52.528 56.062 69.331 75.469 0 0.019 0.029 0.033 0.029 0.048 23.217 25.868 57.372 20.356 75.542 10.443 35.903-19.617 109.872-60.172 134.399-74.73 16.857-9.708 29.866-31.495 29.866-46.43v-59.733c0-16.074-5.485-37.756-20.242-58.074-28.147-37.913-85.545-91.262-171.267-91.262-134.837 0-286.592 64.983-453.979 223.694-131.396 124.559-210.815 293.678-238.93 374.021C67.381 556.011 64 586.605 64 608.015v50.282c0 69.327 53.344 126.815 87.673 154.977 14.116 12.207 31.966 18.74 46.726 18.74h45.499c23.918-0.439 39.199-16.317 45.033-29.821 14.525-33.731 45.822-112.538 62.562-158.362 6.243-16.932 11.172-39.74 11.172-65.508 0-23.742-45.733-72.479-61.398-87.471-15.69-14.992-10.849-69.985 132.448-214.929 95.023-96.135 154-112.567 182.991-112.743 16.391 0.042 24.236 6.693 30.51 13.298z"  horiz-adv-x="1024" />

    
    <glyph glyph-name="fatigue-driving" unicode="&#58930;" d="M960 579.629l-252.379-67.625-16.906 63.095 108.151 164.228-141.963-38.039-16.906 63.095 252.379 67.625 16.906-63.095-108.151-164.228 141.963 38.039L960 579.629zM304 512s-95.999-16.001-112-160h640c-7.042 63.376-29.58 101.951-52.61 125.288l65.622 17.897C868.47 462.056 888.505 415.926 896 352h-1.804C934.078 321.638 960 272.504 960 217.045v-50.087c0-54.621-25.139-103.113-64.001-133.573v-65.384c0-17.674-14.326-32-31.999-32h-96c-17.673 0-32 14.326-32 32v32H288v-32c0-17.674-14.326-32-32-32h-96c-17.674 0-32 14.326-32 32v65.384c-38.861 30.46-64 78.952-64 133.573v50.087C64 272.504 89.921 321.638 129.803 352H128c22.667 193.333 159.999 224 159.999 224h347.429l18.286-64H304z m511.999-416c44.182 0 80 35.818 80 80.001 0 44.181-35.817 79.999-80 79.999-44.182 0-80-35.818-80-79.999 0.001-44.183 35.818-80.001 80-80.001zM376 112h272c13.255 0 24 10.745 24 24s-10.745 24-24 24H376c-13.255 0-24-10.745-24-24s10.745-24 24-24z m0 80h272c13.255 0 24 10.745 24 24s-10.745 24-24 24H376c-13.255 0-24-10.745-24-24s10.745-24 24-24z m-248.001-15.998c0-44.184 35.817-80.001 80-80.001C252.182 96 288 131.818 288 176.002c0 44.181-35.817 79.999-80.001 79.999-44.183 0-80-35.818-80-79.999z"  horiz-adv-x="1024" />

    
    <glyph glyph-name="distracted-driving" unicode="&#58931;" d="M895.999 33.384V-32c0-17.674-14.326-32-31.999-32h-96c-17.673 0-32 14.326-32 32v32H288v-32c0-17.674-14.326-32-32-32h-96c-17.674 0-32 14.326-32 32v65.384c-38.861 30.46-64 78.951-64 133.572v50.087C64 272.504 89.921 321.638 129.803 352H128c22.667 193.333 159.999 224 159.999 224H592v-64H304s-95.999-16.001-112-160h640a318.274 318.274 0 0 1-2.191 16h63.993a411.137 411.137 0 0 0 2.199-16h-1.804C934.078 321.638 960 272.504 960 217.045v-50.087c0-54.622-25.14-103.114-64.001-133.574z m-688 222.617c-44.182 0-80-35.818-80-79.999 0-44.184 35.817-80.001 80-80.001C252.182 96 288 131.818 288 176.002c0 44.181-35.818 79.999-80.001 79.999zM648 240H376c-13.255 0-24-10.745-24-24s10.745-24 24-24h272c13.255 0 24 10.745 24 24s-10.745 24-24 24z m0-80H376c-13.255 0-24-10.745-24-24s10.745-24 24-24h272c13.255 0 24 10.745 24 24s-10.745 24-24 24z m167.999 96.001c-44.182 0-80-35.818-80-79.999 0-44.184 35.817-80.001 80-80.001 44.182 0 80 35.818 80 80.001 0 44.181-35.817 79.999-80 79.999zM864 400H688c-35.346 0-64 28.654-64 64V768c0 35.346 28.654 64 64 64h176c35.346 0 64-28.654 64-64v-304c0-35.346-28.654-64-64-64z m-88 16c22.091 0 40 17.909 40 40s-17.909 40-40 40-40-17.909-40-40 17.909-40 40-40z m40 400h-80c-8.837 0-16-7.163-16-16s7.163-16 16-16h80c8.837 0 16 7.163 16 16s-7.163 16-16 16z m64-48H672v-256h208V768zM720 528h-32v64h32v-64z m48 0h-32V672h32v-144z m48 0h-32v96h32v-96z m48 0h-32v48h32v-48z"  horiz-adv-x="1024" />

    
    <glyph glyph-name="yawn" unicode="&#58932;" d="M512-64C264.577-64 64 136.576 64 384S264.577 832 512 832s448-200.576 448-448-200.577-448-448-448z m-72 632c-13.255 0-24-10.745-24-24 0-44.183-35.817-80-80-80s-80 35.817-80 80c0 13.255-10.745 24-24 24s-24-10.745-24-24c0-70.692 57.308-128 128-128s128 57.308 128 128c0 13.255-10.745 24-24 24z m-24-360c0-79.529 42.981-144 96-144s96 64.471 96 144-42.981 144-96 144-96-64.471-96-144z m376 360c-13.255 0-24-10.745-24-24 0-44.183-35.817-80-80-80s-80 35.817-80 80c0 13.255-10.745 24-24 24s-24-10.745-24-24c0-70.692 57.308-128 128-128s128 57.308 128 128c0 13.255-10.745 24-24 24z"  horiz-adv-x="1024" />

    
    <glyph glyph-name="smoking" unicode="&#58933;" d="M907.249 278.642c-35.168-35.956-90.117-72.661-132.977-85.395 0 0-16.615-6.888-25.277 3.371-12.892 15.27 1.099 31.461 1.099 31.461S815.3 276.02 819.33 343.812c4.03 67.792-75.097 130.34-87.919 144.947-12.821 14.607-61.177 62.548-59.345 139.328 1.832 76.781 68.503 141.201 129.68 168.543 0 0 17.481 8.321 30.772-1.124 14.211-10.099 4.396-31.461 4.396-31.461s-45.058-63.672-38.464-116.856c6.594-53.184 69.602-76.406 94.513-103.373C917.872 516.849 960 469.848 960 416.847c0-48.316-19.879-104.595-52.751-138.205zM736-32H112c-26.51 0-48 21.49-48 48v96c0 26.51 21.49 48 48 48h624v-192z m128 176v-160c0-8.837-7.163-16-16-16h-64V160h64c8.837 0 16-7.163 16-16z"  horiz-adv-x="1024" />

    
    <glyph glyph-name="deviate-drive" unicode="&#58934;" d="M735.998-63.997c-123.712 0-224 100.288-224 224s100.288 224 224 224 224-100.288 224-224-100.287-224-224-224zM768 6.477C828.918 19.11 876.891 67.083 889.525 128h-63.679c-20.145-2.778-34.537-18.164-57.846-26.548v-94.975zM736 128c17.673 0 32 14.327 32 32s-14.327 32-32 32-32-14.327-32-32 14.327-32 32-32z m-32-121.524v94.983c-22.489 8.096-36.759 22.744-56.07 26.541h-65.458C595.106 67.082 643.081 19.108 704 6.476z m31.998 310.326c-75.633 0-138.754-53.55-153.528-124.802h66.186c26.751 5.922 44.007 32 87.344 32 44.426 0 61.448-27.394 88.958-32h64.569c-14.775 71.252-77.896 124.802-153.529 124.802z m-287.456 67.199C347.023 384.001 256 519.207 256 642.915c0 123.706 91.023 189.07 192.542 189.07 101.521 0 191.455-64.832 191.455-188.538 0.001-123.708-89.934-259.446-191.455-259.446zM336 400l112-96 112 96a348.186 348.186 0 0 0 41.763-3.392C519.495 349.833 464 261.402 464 160c0-33.796 6.181-66.144 17.446-95.998H95.997C64 64 64 98.909 64 98.909V240c110.001 164.764 272 160 272 160z"  horiz-adv-x="1024" />

    
    <glyph glyph-name="drive-change" unicode="&#58935;" d="M896 144l-64 80h33.02c-23.564 47.412-72.482 80-129.02 80-54.391 0-101.502-30.496-126-75-4.337-12.532-16.993-21-31-21-17.673 0-32 14.327-32 32a31.85 31.85 0 0 0 5.414 17.812C587.417 323.374 656.488 368 736 368c92.543 0 170.956-60.443 197.952-144H960l-64-80zM448.542 384.001C347.023 384.001 256 519.207 256 642.915c0 123.706 91.023 189.07 192.542 189.07 101.521 0 191.455-64.832 191.455-188.538 0.001-123.708-89.934-259.446-191.455-259.446zM336 400l112-96 112 96c14.575-0.314 28.482-1.497 41.763-3.392C519.495 349.833 464 261.402 464 160c0-33.796 6.181-66.144 17.446-95.998H95.997C64 64 64 98.909 64 98.909V240c110.001 164.764 272 160 272 160z m304-320h-33.02c23.564-47.412 72.482-80 129.02-80 52.752 0 98.919 28.689 124 71 6.3 16.549 17.426 25 33 25 17.673 0 32-14.327 32-32a31.847 31.847 0 0 0-5.489-17.925C884.488-19.421 815.464-64 736-64c-92.543 0-170.956 60.443-197.952 144H512l64 80 64-80z"  horiz-adv-x="1024" />

    
    <glyph glyph-name="no-seat-belt" unicode="&#58936;" d="M896 160s-65.354 16.343-157.952 29.957c0.75 16.24 1.274 38.24 0.626 63.901C830.925 240.265 896 224 896 224c17.673 0 32-14.327 32-32s-14.327-32-32-32zM676-52c0-6.627-5.373-12-12-12h-40c-6.627 0-12 5.373-12 12l54.154 191.344C630.869 148.546 574.422 160 512 160c-62.128 0-118.74-11.493-154.141-20.703L412-52c0-6.627-5.373-12-12-12h-40c-6.627 0-12 5.373-12 12l-60 212s-1.151 11.14-2.011 29.949C352.099 199.669 432.062 208 512 208c80.007 0 159.963-8.327 226.048-18.043C737.177 171.09 736 160 736 160l-60-212z m29.693 586.117C711.168 501.683 728.493 395.215 736 304a885.044 885.044 0 0 0 2.674-50.141C672.452 263.617 592.232 272 512 272c-80.223 0-160.434-8.381-226.652-18.138 0.029 1.171 0.065 2.363 0.099 3.548l420.246 276.707z m133.89 88.158l-133.89-88.158C704.621 540.469 704 544 704 544s-4.961 24.751-28.63 46.719l129.094 85c14.743 9.708 34.557 5.613 44.255-9.145 9.697-14.758 5.607-34.592-9.136-44.299zM285.442 257.407l-6.934-4.566c2.248 0.339 4.558 0.673 6.84 1.009-0.63-25.562-0.104-47.608 0.641-63.9-67.079-9.862-119.887-21.154-143.885-26.627a31.728 31.728 0 0 0-14.059-3.313 0.71 0.71 0 0 1-0.045-0.01c-0.098 0-0.194 0.006-0.291 0.007-0.181 0.002-0.361 0.009-0.542 0.014-0.348 0.009-0.696 0.018-1.042 0.038-0.147 0.009-0.294 0.023-0.441 0.034a30.916 30.916 0 0 0-1.147 0.097l-0.161 0.02a31.857 31.857 0 0 0-7.022 1.611c-0.103 0.036-0.208 0.068-0.311 0.105-0.173 0.063-0.343 0.134-0.515 0.2a31.79 31.79 0 0 0-15.008 11.903l-0.073 0.105c-0.064 0.095-0.132 0.185-0.195 0.28-0.059 0.09-0.103 0.185-0.161 0.275a31.632 31.632 0 0 0-1.383 2.356c-0.081 0.153-0.158 0.308-0.237 0.462-0.4 0.786-0.77 1.588-1.105 2.409a27.351 27.351 0 0 0-0.212 0.539 31.36 31.36 0 0 0-1.003 3.036 32.085 32.085 0 0 0-0.562 2.391c-0.046 0.236-0.086 0.472-0.126 0.708a31.93 31.93 0 0 0-0.317 2.376c-0.023 0.249-0.039 0.496-0.057 0.745A33.373 33.373 0 0 0 96 192c0 0.046 0.003 0.09 0.003 0.136 0.001 0.203 0.01 0.405 0.015 0.607a32.3 32.3 0 0 0 0.158 2.618c0.007 0.07 0.019 0.139 0.027 0.209a31.79 31.79 0 0 0 3.526 11.424c0.029 0.055 0.056 0.112 0.086 0.167 0.44 0.816 0.918 1.608 1.425 2.38 0.071 0.109 0.137 0.22 0.21 0.328a32.098 32.098 0 0 0 1.597 2.156c0.11 0.136 0.216 0.274 0.328 0.409a32.29 32.29 0 0 0 1.853 2.043l0.268 0.269a32.247 32.247 0 0 0 2.232 2.013c0.023 0.019 0.047 0.036 0.069 0.055a32.114 32.114 0 0 0 2.681 1.96l180.647 118.945A1745.811 1745.811 0 0 1 288 304a872.772 872.772 0 0 1-2.558-46.593zM320 544s16 80 128 80l64-32 64 32c49.701 0 80.487-15.755 99.37-33.281l-384.243-253C301.432 438.605 320 544 320 544z m192.271 80C461.511 624 416 686.775 416 744.21c0 57.435 45.511 87.782 96.271 87.782 50.761 0 95.728-30.1 95.728-87.535 0-57.435-44.967-120.457-95.728-120.457z"  horiz-adv-x="1024" />

    
    <glyph glyph-name="camera-shelter" unicode="&#58938;" d="M950.315-54.315c-12.92-12.92-33.869-12.92-46.789 0L722.443 126.768c-47.495-31.179-102.313-52.119-161.325-59.654C560.42 60.846 560 54.42 560 48c0-5.372 0.586-10.734 1.578-16H736c17.673 0 32-14.327 32-32v-52c0-6.627-5.373-12-12-12H268c-6.627 0-12 5.373-12 12v52c0 17.673 14.327 32 32 32h174.422c0.992 5.266 1.578 10.628 1.578 16 0 6.42-0.42 12.846-1.117 19.115C274.001 91.23 128 252.564 128 448c0 77.701 23.096 149.999 62.773 210.438L73.685 775.525c-12.921 12.921-12.921 33.869 0 46.789s33.869 12.921 46.789 0l829.84-829.84c12.921-12.92 12.921-33.868 0.001-46.789z m-422.18 375.391A129.51 129.51 0 0 0 511.5 320C440.531 320 383 377.531 383 448.5c0 5.638 0.371 11.189 1.076 16.635l-75.867 75.867C295.253 512.672 288 481.189 288 448c0-123.712 100.288-224 224-224 33.189 0 64.672 7.253 93.002 20.208l-76.867 76.868zM640 448.5c0-10.035-1.152-19.8-3.328-29.172L482.328 573.672A128.856 128.856 0 0 0 511.5 577c70.969 0 128.5-57.531 128.5-128.5z m70.97-103.47C726.958 375.86 736 410.872 736 448c0 123.712-100.288 224-224 224-37.128 0-72.14-9.042-102.97-25.03L292.742 763.258C354.912 806.577 430.481 832 512 832c212.077 0 384-171.923 384-384 0-81.519-25.418-157.093-68.738-219.262L710.97 345.03zM512 800c-53.019 0-96-10.745-96-24s42.981-40 96-40 96 26.745 96 40-42.981 24-96 24z"  horiz-adv-x="1024" />

    
    <glyph glyph-name="front-car-collision" unicode="&#58940;" d="M894.259 17.083l-3.806-55.87c-1.028-15.098-13.945-26.112-29.058-25.082l-82.096 5.592c-15.113 1.029-26.532 14.102-25.503 29.201l1.877 27.536-383.112 26.097-1.876-27.536c-1.029-15.098-14.113-26.502-29.228-25.472l-82.095 5.592c-15.114 1.03-26.416 13.693-25.388 28.791l3.806 55.87c-31.46 28.285-50.253 71.569-47.074 118.23l2.915 42.788c3.178 46.655 27.647 86.595 62.645 110.353l0.068 0.998c30.634 163.838 149.732 182.246 149.732 182.246l383.112-26.097s115.501-34.388 123.635-200.867l-0.068-0.998c31.453-28.284 50.279-71.174 47.101-117.829l-2.915-42.788c-3.179-46.663-27.667-86.998-62.672-110.755zM454.472 115.21l232.339-15.826c11.322-0.771 21.124 7.755 21.893 19.044 0.769 11.289-7.786 21.065-19.108 21.837L457.257 156.09c-11.322 0.771-21.124-7.755-21.893-19.044-0.769-11.288 7.786-21.065 19.108-21.836z m4.621 67.843l232.339-15.827c11.322-0.771 21.124 7.755 21.893 19.044 0.769 11.289-7.786 21.065-19.108 21.836l-232.339 15.826c-11.322 0.771-21.124-7.755-21.893-19.044-0.769-11.287 7.786-21.064 19.108-21.835z m-212.975 0.965c-2.571-37.745 25.939-70.427 63.679-72.998 37.741-2.571 70.42 25.943 72.991 63.688 2.571 37.743-25.94 70.425-63.681 72.996-37.739 2.571-70.418-25.943-72.989-63.686z m526.419 253.308l-356.175 24.262s-83.094-9.075-105.157-131.157l546.733-37.242c-5.303 123.946-85.401 144.137-85.401 144.137z m66.354-225.028c-37.74 2.571-70.419-25.943-72.99-63.686-2.571-37.745 25.939-70.427 63.679-72.998s70.419 25.943 72.99 63.688c2.571 37.743-25.94 70.425-63.679 72.996zM746 506l198 86-16-74-182-12z m70 326l96-64-176-240 80 304zM581 654H253s-75.41-12.826-88-126h187s-70.533-11-117.713-115.079c-9.419 22.928-31.959 39.08-58.281 39.08-34.79 0-62.993-28.206-62.993-62.999 0-34.795 28.203-63.001 62.993-63.001 9.722 0 18.927 2.206 27.148 6.139-6.672-3.468-50.654-34.639-55.456-131.139h-8.162C125.629 201.001 114 212.11 114 226v52c-30.577 23.94-50 61.589-50 104.518v39.365c0 42.923 19.43 81.177 50 105.116v1c17.835 151.947 126 176 126 176h353s108.165-24.053 126-176h-51C655.41 641.174 581 654 581 654z"  horiz-adv-x="1024" />

    
    <glyph glyph-name="lane-shift" unicode="&#58941;" d="M896-64l-45.714 256h64L960-64h-64zM793.143 512h64l45.714-256h-64l-45.714 256zM736 832h64l45.714-256h-64L736 832z m-59-576v-43c0-11.654-8.752-20.999-20.429-20.999h-63.429c-11.677 0-21.143 9.446-21.143 21.1L572 234H276v-20.9c0-11.654-9.466-21.1-21.143-21.1h-63.428c-11.678 0.001-21.429 9.346-21.429 21v43c-25.676 20.084-42 52.272-42 88.287v33.026c0 36.011 17.33 67.602 43 87.686v1c14.976 127.479 105 148 105 148h296s90.024-20.521 105-148v-1c25.67-20.085 43-51.675 43-87.686v-33.026c0-36.015-17.324-68.203-43-88.287z m-343.175 52.01h179.35c8.74 0 15.825 7.161 15.825 15.995s-7.085 15.996-15.825 15.996h-179.35c-8.74 0-15.825-7.161-15.825-15.996s7.085-15.995 15.825-15.995z m0 51.989h179.35c8.74 0 15.825 7.161 15.825 15.995s-7.085 15.996-15.825 15.996h-179.35c-8.74 0-15.825-7.161-15.825-15.996 0-8.833 7.085-15.995 15.825-15.995z m-162.826-9.498c0-28.996 23.505-52.501 52.5-52.501C252.495 298 276 321.506 276 350.501 276 379.495 252.495 403 223.499 403c-28.995 0.001-52.5-23.505-52.5-52.499zM562 573H287s-63.428-12.051-74-107h422c-10.572 94.949-73 107-73 107z m63-169.999c-29.271 0-53-23.505-53-52.499C572 321.506 595.729 298 625 298s53 23.505 53 52.501c0 28.994-23.729 52.5-53 52.5z m-444.584 184.93L224 832h64l-33.246-186.177c-21.223-9.187-49.341-26.346-74.338-57.892z m-11.937-425.246L128-64H64l45.714 256h28.96c6.103-12.204 15.473-23.1 29.805-29.315z"  horiz-adv-x="1024" />

    
    <glyph glyph-name="front-car-close-rang" unicode="&#58942;" d="M907 16v-54c0-14.498-11.34-25.999-25.858-25.999h-78.857C787.768-63.999 776-52.498 776-38v27H408v-27c0-14.498-11.769-25.999-26.287-25.999h-78.856C288.339-63.999 277-52.498 277-38v54c-31.921 24.987-53 64.651-53 109.457v41.087c0 44.801 21.086 84.469 53 109.456v1c18.619 158.593 131 184 131 184h368s112.381-25.407 131-184v-1c31.914-24.987 53-64.655 53-109.456v-41.087c0-44.806-21.078-84.47-53-109.457z m-427.273 64.987h223.546c10.894 0 19.725 8.732 19.725 19.503s-8.831 19.503-19.725 19.503H479.727c-10.894 0-19.725-8.732-19.725-19.503s8.831-19.503 19.725-19.503z m0 65.021h223.546c10.894 0 19.725 8.732 19.725 19.503s-8.831 19.503-19.725 19.503H479.727c-10.894 0-19.725-8.732-19.725-19.503 0-10.772 8.831-19.503 19.725-19.503z m-202.726-13.506c0-36.175 29.325-65.501 65.499-65.501 36.175 0 65.5 29.326 65.5 65.501 0 36.173-29.325 65.499-65.5 65.499-36.174 0-65.499-29.326-65.499-65.499zM764 410H421s-78.856-14.876-92-133h526c-13.144 118.124-91 133-91 133z m77.498-211.999c-36.174 0-65.498-29.326-65.498-65.499C776 96.326 805.325 67 841.498 67c36.174 0 65.499 29.326 65.499 65.501 0 36.174-29.325 65.5-65.499 65.5zM896 512c0-17.673-14.327-32-32-32s-32 14.327-32 32c0 17.673 14.327 32 32 32s32-14.327 32-32z m-16.034 63c-0.517-8.37-7.465-15-15.966-15-8.5 0-15.449 6.63-15.966 15H848l-32 173v4c0 26.51 21.49 48 48 48s48-21.49 48-48v-4l-32-173h-0.034z m-237.872-67.625c9.846 10.155 15.909 23.94 15.909 39.138 0 31.205-25.519 56.502-56.998 56.502s-56.998-25.298-56.998-56.502c0-15.076 5.967-28.761 15.673-38.893l-63.946 0.19a17.679 17.679 0 0 1 2.276 8.689c0 9.657-7.66 17.485-17.108 17.485H286.096c-9.449 0-17.109-7.828-17.109-17.485s7.66-17.485 17.109-17.485h90.013c-32.229-10.307-72.272-32.29-102.775-79.014H224v-22c0-12.62-10.234-22.999-22.858-22.999h-68.571C119.947 375.001 109 385.38 109 398v47c-27.758 21.75-45 55.915-45 94.918v35.766c0 38.998 17.248 73.566 45 95.317v1C125.19 810.052 223.773 832 223.773 832h320.454S642.81 810.052 659 672v-1c27.752-21.751 45-56.319 45-95.317v-35.766c0-11.381-1.478-22.346-4.247-32.715l-57.659 0.173z m-355.998 50.63h194.806c9.449 0 17.108 7.612 17.108 17.001 0 9.389-7.66 17.001-17.108 17.001H286.096c-9.449 0-17.109-7.612-17.109-17.001 0.001-9.39 7.66-17.001 17.109-17.001z m-177.102-11.993c0-31.483 25.519-57.005 56.998-57.005 31.48 0 56.999 25.522 56.999 57.005 0 31.481-25.519 57.003-56.999 57.003-31.48 0-56.998-25.522-56.998-57.003zM534 787H235s-67.571-12.176-79-115h456c-11.429 102.824-78 115-78 115z"  horiz-adv-x="1024" />

    
    <glyph glyph-name="passerby-collision" unicode="&#58943;" d="M739.836 201.013h214.327c2.039 0 3.998 0.337 5.836 0.942V114H671v-25c0-13.89-11.023-24.999-24.929-24.999h-75.535C556.629 64.001 545 75.11 545 89v52c-30.577 23.94-50 61.589-50 104.518v31.679l-0.943-0.446c-24.393-13.022-29.071 9.015-29.071 9.015l-36.089 60.101-101.249-49.082s92.227-180.303 102.251-202.34c10.025-22.037-4.01-26.044-4.01-26.044l-25.061-12.02c-20.049-12.02-27.066 12.02-27.066 12.02l-101.249 208.35S168.257 415.985 165.249 418.99c-3.007 3.005-10.025 2.003-10.025 2.003-27.735-3.005-34.418-48.081-35.086-55.093-0.668-7.012-8.02-78.799-12.03-89.15-4.01-10.351-3.676-16.027-24.059-16.027S64 273.746 64 276.751c0 3.005 0 75.46 16.039 133.224 12.021 43.294 55.577 51.513 76.645 52.914-13.806 7.126-26.197 18.199-33.793 31.347-17.677 30.594-2.725 60.774 24.368 76.404 27.094 15.63 60.36 13.444 78.037-17.151 7.382-12.777 10.864-28.485 10.458-43.59 69.878 31.681 42.233 66.797 23.725 93.401-19.047 27.379-46.113 67.447-48.118 77.129-2.005 9.683 2.339 13.022 13.032 20.034 10.693 7.012 21.052 2.003 25.061-1.002 4.01-3.005 36.089-44.074 50.123-66.111 14.034-22.037 37.091-60.101 25.061-94.158-12.03-34.057-36.089-54.091-36.089-54.091 74.182-80.135 84.207-115.194 84.207-115.194s36.423 19.032 63.155 32.054c26.732 13.022 32.079-2.003 32.079-2.003s20.89-37.275 36.394-64.914C512.979 356.988 527.069 375.958 545 390v1c17.835 151.947 126 176 126 176h289v-50H684s-75.41-12.826-88-126h364v-88.954a18.63 18.63 0 0 1-5.836 0.942H739.836c-10.396 0-18.823-8.501-18.823-18.987 0-10.486 8.427-18.987 18.823-18.987h214.327c2.039 0 3.998 0.337 5.836 0.942v-27.909a18.63 18.63 0 0 1-5.836 0.942H739.836c-10.396 0-18.823-8.501-18.823-18.987 0-10.489 8.428-18.989 18.823-18.989z m-132.83 113.988c-34.79 0-62.993-28.206-62.993-62.999 0-34.795 28.203-63.001 62.993-63.001 34.791-0.001 62.994 28.206 62.994 63 0 34.793-28.203 63-62.994 63zM507 478l-43-18-8 65-27-55-37 20-2.454-38.804L364 523l54.865-18.543L467 599l16-105 64 18-40-64v30z"  horiz-adv-x="1024" />

    
    <glyph glyph-name="frequent-lane-change" unicode="&#58944;" d="M864-64V832h64v-896h-64zM752 576c0-19.467-11.596-36.215-28.25-43.746l-1.892-0.808a47.638 47.638 0 0 0-11.823-3.055L544 485.483V384h-64v84.944L368 440v-176l112-28.944V320h64v-101.483l166.035-42.908a47.693 47.693 0 0 0 11.823-3.055l1.892-0.808C740.404 164.215 752 147.467 752 128v-112c0-26.51-21.49-48-48-48s-48 21.49-48 48v87l-112 29.258V128h-64v20.977l-166.327 43.451a47.684 47.684 0 0 0-11.485 3l-1.935 0.824C283.597 203.784 272 220.532 272 240V464c0 19.468 11.597 36.216 28.253 43.747l1.935 0.824a47.637 47.637 0 0 0 11.485 3L480 555.022V576h64v-4.258L656 601v87h-64L704 800l112-112h-64v-112zM480 832h64v-192h-64V832zM96 832h64v-896H96V832z m448-896h-64V64h64v-128z"  horiz-adv-x="1024" />

    
    <glyph glyph-name="barrier-alarm" unicode="&#58945;" d="M934.357 300.952c24.32-34.61 33.063-80.626 19.518-125.384l-12.423-41.049c-13.547-44.764-46.446-78.592-85.883-93.906l-16.221-53.599c-4.383-14.484-19.438-22.326-33.937-17.938l-78.758 23.835c-14.499 4.388-22.7 19.686-18.316 34.17l7.995 26.416-367.538 111.23-7.994-26.417c-4.383-14.484-19.69-22.668-34.19-18.28l-78.757 23.835c-14.5 4.388-22.679 19.261-18.295 33.745l16.221 53.599c-24.327 34.611-32.949 81.005-19.402 125.769l12.423 41.049c13.545 44.759 46.337 78.205 85.767 93.522l0.29 0.957c66.546 152.816 186.742 144.085 186.742 144.085l367.538-111.23s104.867-59.38 75.512-223.452l-0.292-0.957z m-217.237-54.93c3.277 10.83-2.871 22.274-13.733 25.561l-222.894 67.455c-10.862 3.287-22.324-2.827-25.602-13.657s2.871-22.274 13.733-25.561l222.894-67.455c10.862-3.287 22.324 2.827 25.602 13.657z m-268.192-11.286l222.894-67.455c10.862-3.287 22.324 2.827 25.602 13.657 3.277 10.83-2.871 22.274-13.733 25.561l-222.894 67.455c-10.862 3.287-22.324-2.827-25.602-13.657-3.278-10.83 2.871-22.274 13.733-25.561z m-187.654 113.72c-10.959-36.211 9.509-74.447 45.715-85.404 36.207-10.958 74.441 9.514 85.4 45.724 10.958 36.208-9.509 74.445-45.716 85.402-36.207 10.958-74.441-9.514-85.399-45.722z m569.777 128.986L489.355 580.851s-83.016 9.764-131.858-104.277L882.004 317.84c22.588 121.986-50.953 159.602-50.953 159.602z m14.273-234.173c-36.206 10.957-74.44-9.514-85.398-45.723-10.958-36.21 9.509-74.447 45.714-85.404 36.206-10.957 74.44 9.514 85.399 45.725 10.959 36.208-9.509 74.445-45.715 85.402zM341 720l63-44-132-148 69 192zM192 800h96l-48-272-48 272zM64 640l48 48 112-160L64 640z m66.152-554.463C207.475 128.506 270.517 28.826 275-32H64s-3.248 78.971 66.152 117.537z m133.354-40.179C311.547 67.131 347.038 4.599 361-32h-75.393c-3.526 31.113-17.2 58.525-27.089 74.869a76.75 76.75 0 0 0 4.988 2.489z"  horiz-adv-x="1024" />

    
    <glyph glyph-name="vehicle-rollover" unicode="&#58946;" d="M64-32v64h896v-64H64z m821 104l-165 56 176-8-11-48z m59 152l16-64-208-8 192 72z m-112 64l32-48-144-72 112 120z m-33.353 178.091c29.355-164.072-75.512-223.452-75.512-223.452l-367.538-111.23s-120.195-8.731-186.742 144.085l-0.29 0.957c-39.43 15.317-72.221 48.763-85.767 93.522l-12.423 41.049c-13.547 44.764-4.925 91.158 19.402 125.769l-16.22 53.599c-4.383 14.484 3.796 29.357 18.295 33.745l78.757 23.835c14.5 4.388 29.806-3.796 34.19-18.28l7.995-26.416 367.538 111.23-7.995 26.416c-4.383 14.484 3.818 29.782 18.316 34.17l78.758 23.835c14.499 4.388 29.554-3.454 33.937-17.938l16.221-53.599c39.436-15.315 72.335-49.142 85.883-93.906l12.423-41.049c13.545-44.758 4.802-90.775-19.518-125.384l0.29-0.958z m-542.258-6.867c-10.958 36.21-49.193 56.682-85.4 45.724-36.206-10.957-56.673-49.194-45.715-85.404 10.958-36.208 49.192-56.68 85.398-45.723 36.207 10.958 56.675 49.195 45.717 85.403z m305.034 127.838c-3.278 10.83-14.74 16.944-25.602 13.657l-222.894-67.455c-10.862-3.287-17.01-14.731-13.733-25.561 3.277-10.83 14.74-16.944 25.602-13.657l222.894 67.455c10.862 3.287 17.01 14.732 13.733 25.561z m19.697-65.084c-3.278 10.83-14.74 16.944-25.602 13.657L332.624 468.18c-10.862-3.287-17.01-14.731-13.733-25.561 3.277-10.83 14.74-16.945 25.602-13.657l222.894 67.455c10.862 3.287 17.01 14.731 13.733 25.561zM221.498 291.425c48.842-114.04 131.858-104.276 131.858-104.276L695.05 290.558s73.542 37.616 50.954 159.602L221.498 291.425zM755.04 610.133c-10.959 36.21-49.193 56.682-85.399 45.725s-56.673-49.194-45.714-85.404c10.958-36.208 49.192-56.68 85.398-45.723 36.205 10.957 56.673 49.194 45.715 85.402z"  horiz-adv-x="1024" />

    
    <glyph glyph-name="alarm_fill" unicode="&#58947;" d="M942.102-8.571000000000026c-21.954-35.544-57.556-55.418-99.308-55.418h-661.6c-41.752 0-77.35 19.874-99.3 55.418-21.945 35.544-23.78 76.303-5.111 113.685l330.8 662.296c20.324 40.686 58.976 64.597 104.411 64.597 45.448 0 84.095-23.91 104.411-64.597l330.804-662.296c18.674-37.382 16.839-78.142-5.107-113.685zM544 544c0 17.673-14.327 32-32 32-17.673 0-32-14.327-32-32v-256c0-17.673 14.327-32 32-32 17.673 0 32 14.327 32 32V544z m-32-352c-26.51 0-48-21.49-48-48s21.49-48 48-48 48 21.49 48 48-21.49 48-48 48z"  horiz-adv-x="1024" />

    
    <glyph glyph-name="alarm_line" unicode="&#58948;" d="M942.102-8.571c-21.954-35.544-57.556-55.418-99.308-55.418H181.195c-41.752 0-77.35 19.874-99.3 55.418-21.945 35.544-23.78 76.303-5.111 113.685l330.8 662.296c20.324 40.686 58.976 64.597 104.411 64.597 45.448 0 84.095-23.91 104.411-64.597L947.21 105.114c18.673-37.382 16.838-78.142-5.108-113.685zM881 96L557 744c-13 19.953-30.508 24-45 24-13.479 0-33-4.281-45-24L143 96c-18.187-32-21.93-54.921 0-80 17-19.437 32.457-16 81-16h576c39.293 0 64-3.25 80 15 21.01 23.973 21.442 45.368 1 81z m-369 0c-26.51 0-48 21.49-48 48s21.49 48 48 48 48-21.49 48-48-21.49-48-48-48z m0 160c-17.673 0-32 14.327-32 32V544c0 17.673 14.327 32 32 32 17.673 0 32-14.327 32-32v-256c0-17.673-14.327-32-32-32z"  horiz-adv-x="1024" />

    
    <glyph glyph-name="arrow_up" unicode="&#58949;" d="M811.895 468.27c-27.109-27.111-71.065-27.111-98.179 0L576 605.986V0c0-35.346-28.654-64-64-64s-64 28.654-64 64V605.994L310.276 468.27c-27.109-27.111-71.065-27.111-98.179 0-27.109 27.111-27.109 71.069 0 98.181l245.451 245.45c14.919 14.92 34.939 21.611 54.448 20.109 19.51 1.502 39.531-5.188 54.453-20.109l245.445-245.45c27.115-27.111 27.115-71.069 0.001-98.181z"  horiz-adv-x="1024" />

    
    <glyph glyph-name="arrow_down" unicode="&#58950;" d="M811.895 299.729c-27.109 27.111-71.065 27.111-98.179 0L576 162.014V768c0 35.346-28.654 64-64 64-35.346 0-64-28.654-64-64v-605.994L310.276 299.729c-27.109 27.111-71.065 27.111-98.179 0-27.109-27.111-27.109-71.069 0-98.181l245.451-245.45c14.919-14.92 34.939-21.611 54.448-20.109 19.509-1.502 39.531 5.188 54.453 20.109l245.446 245.45c27.114 27.112 27.114 71.07 0 98.181z"  horiz-adv-x="1024" />

    
    <glyph glyph-name="truck_line" unicode="&#58951;" d="M879.991 96.745c0.001-0.249 0.009-0.496 0.009-0.745 0-70.692-57.308-128-128-128s-128 57.308-128 128H416c0-70.692-57.308-128-128-128s-128 57.308-128 128c0 1.344 0.028 2.682 0.069 4.016C104.827 114.201 64 164.333 64 224V672c0 70.692 57.308 128 128 128h288c70.692 0 128-57.308 128-128v-32h144c92 0 90.5-26.5 128-80l80-134v-234c0-58.422-26.68-90.163-80.009-95.255zM288 32c35.346 0 64 28.654 64 64s-28.654 64-64 64-64-28.654-64-64 28.654-64 64-64z m256 640c0 35.346-28.654 64-64 64H192c-35.346 0-64-28.654-64-64v-448c0-30.55 21.411-56.083 50.042-62.455C200.385 198.948 241.264 224 288 224c47.377 0 88.74-25.742 110.872-64H544V672z m208-640c35.346 0 64 28.654 64 64s-28.654 64-64 64-64-28.654-64-64 28.654-64 64-64z m144 376l-74 120c-16 32-34.654 48-70 48H608v-416h33.128c22.132 38.258 63.495 64 110.872 64s88.74-25.742 110.872-64H864c23.333 0 32 8.667 32 32V408z m-96-56h-96c-17.673 0-32 14.327-32 32V496c0 17.673 14.327 32 32 32s32-14.327 32-32v-80h64c17.673 0 32-14.327 32-32s-14.327-32-32-32z"  horiz-adv-x="1024" />

    
    <glyph glyph-name="truck_fill" unicode="&#58952;" d="M910.084 103.477C898.873 171.838 839.533 224 768 224c-74.12 0-135.15-56.002-143.111-128H608V640h144c92 0 90.5-26.5 128-80l80-134v-234c0-46.146-16.643-75.649-49.916-88.523zM832 416h-64v80c0 17.673-14.327 32-32 32s-32-14.327-32-32v-112c0-17.673 14.327-32 32-32h96c17.673 0 32 14.327 32 32s-14.327 32-32 32zM304 224c-72.844 0-133.044-54.091-142.652-124.296C105.46 113.44 64 163.874 64 224V672c0 70.692 57.308 128 128 128h272c70.692 0 128-57.308 128-128v-576H447.111C439.15 167.998 378.12 224 304 224z m0-32c61.856 0 112-50.144 112-112s-50.144-112-112-112-112 50.144-112 112 50.144 112 112 112z m464 0c61.856 0 112-50.144 112-112s-50.144-112-112-112-112 50.144-112 112 50.144 112 112 112z"  horiz-adv-x="1024" />

    
    <glyph glyph-name="export_line" unicode="&#58953;" d="M824-32H200c-57.438 0-104 46.563-104 104V696c0 57.438 46.562 104 104 104h248v-64H200c-22.091 0-40-17.909-40-40v-624c0-22.091 17.909-40 40-40h624c22.091 0 40 17.909 40 40V320h64v-248c0-57.438-46.562-104-104-104z m72 576c-17.673 0-32 14.327-32 32V690.771L534.631 361.377c-12.495-12.496-32.753-12.496-45.248 0-12.495 12.496-12.495 32.756 0 45.252L818.73 736H704c-17.673 0-32 14.327-32 32 0 17.673 14.327 32 32 32h192c17.673 0 32-14.327 32-32v-192c0-17.673-14.327-32-32-32z"  horiz-adv-x="1024" />

    
    <glyph glyph-name="Import_line" unicode="&#58954;" d="M824-32H200c-57.438 0-104 46.563-104 104V696c0 57.438 46.562 104 104 104h248v-64H200c-22.091 0-40-17.909-40-40v-624c0-22.091 17.909-40 40-40h624c22.091 0 40 17.909 40 40V320h64v-248c0-57.438-46.562-104-104-104zM512 608c17.673 0 32-14.327 32-32v-114.771l329.369 329.394c12.495 12.496 32.753 12.496 45.248 0 12.495-12.496 12.495-32.756 0-45.252L589.27 416H704c17.673 0 32-14.327 32-32 0-17.673-14.327-32-32-32H512c-17.673 0-32 14.327-32 32V576c0 17.673 14.327 32 32 32z"  horiz-adv-x="1024" />

    
    <glyph glyph-name="search_line" unicode="&#58955;" d="M950.598-54.598c-12.514-12.514-32.804-12.514-45.318 0L750.615 100.067C677.866 37.696 583.34 0 480 0 250.25 0 64 186.25 64 416S250.25 832 480 832s416-186.25 416-416c0-103.34-37.696-197.866-100.067-270.615L950.598-9.28c12.514-12.514 12.514-32.803 0-45.318zM832 416c0 194.404-157.596 352-352 352S128 610.404 128 416s157.596-352 352-352 352 157.596 352 352zM454.138 638.594l0.02-0.087c-103.056-11.841-184.824-93.609-196.665-196.665l-0.087 0.02C254.542 427.127 241.573 416 226 416c-17.673 0-32 14.327-32 32 0 2.777 0.355 5.471 1.02 8.041l-0.229 0.052c17.688 126.972 118.144 227.428 245.116 245.116l0.052-0.229A32.053 32.053 0 0 0 448 702c17.673 0 32-14.327 32-32 0-15.573-11.127-28.542-25.862-31.406z"  horiz-adv-x="1024" />

    
    <glyph glyph-name="search_fill" unicode="&#58956;" d="M950.597-54.597c-12.514-12.514-32.804-12.514-45.318 0L750.615 100.067C677.866 37.696 583.34 0 480 0 250.25 0 64 186.25 64 416S250.25 832 480 832s416-186.25 416-416c0-103.34-37.696-197.866-100.067-270.615L950.598-9.28c12.514-12.514 12.514-32.803-0.001-45.317zM448 702c-2.777 0-5.472-0.355-8.041-1.02l-0.052 0.229c-126.972-17.688-227.428-118.144-245.116-245.116l0.229-0.052A32.053 32.053 0 0 1 194 448c0-17.673 14.327-32 32-32 15.573 0 28.542 11.127 31.406 25.862l0.087-0.02c11.841 103.056 93.609 184.824 196.665 196.665l-0.02 0.087C468.873 641.458 480 654.427 480 670c0 17.673-14.327 32-32 32z"  horiz-adv-x="1024" />

    
    <glyph glyph-name="mileage_line" unicode="&#58957;" d="M512-64C264.577-64 64 136.576 64 384S264.577 832 512 832s448-200.576 448-448-200.577-448-448-448z m0 832c-212.077 0-384-171.923-384-384s171.923-384 384-384 384 171.923 384 384-171.923 384-384 384z m301-281c0-17.673-14.327-32-32-32-14.977 0-27.547 10.291-31.035 24.186l-0.224-0.09C711.989 573.39 619.778 640 512 640s-199.989-66.61-237.741-160.903l-0.224 0.09C270.547 465.291 257.977 455 243 455c-17.673 0-32 14.327-32 32 0 5.725 1.51 11.093 4.144 15.743l-0.32 0.128C262.014 620.738 377.277 704 512 704s249.986-83.262 297.177-201.129l-0.32-0.128A31.846 31.846 0 0 0 813 487zM384 144h256c17.673 0 32-14.327 32-32s-14.327-32-32-32H384c-17.673 0-32 14.327-32 32s14.327 32 32 32z m105.385 57.385c-12.513 12.513-12.513 32.8 0 45.313l191.908 191.908c12.513 12.513 32.8 12.513 45.313 0 12.513-12.513 12.513-32.8 0-45.313L534.698 201.385c-12.513-12.513-32.801-12.513-45.313 0z"  horiz-adv-x="1024" />

    
    <glyph glyph-name="mileage_fill" unicode="&#58958;" d="M512-64C264.577-64 64 136.576 64 384S264.577 832 512 832s448-200.576 448-448-200.577-448-448-448z m214.606 502.606c-12.513 12.513-32.8 12.513-45.313 0L489.385 246.698c-12.513-12.513-12.513-32.8 0-45.313 12.513-12.513 32.8-12.513 45.313 0l191.908 191.908c12.513 12.513 12.513 32.8 0 45.313zM384 80h256c17.673 0 32 14.327 32 32s-14.327 32-32 32H384c-17.673 0-32-14.327-32-32s14.327-32 32-32z m425.177 422.871C761.986 620.738 646.723 704 512 704s-249.986-83.262-297.177-201.129l0.32-0.128A31.846 31.846 0 0 1 211 487c0-17.673 14.327-32 32-32 14.977 0 27.547 10.291 31.035 24.186l0.224-0.09C312.011 573.39 404.222 640 512 640c107.778 0 199.989-66.61 237.741-160.903l0.224 0.09C753.453 465.291 766.023 455 781 455c17.673 0 32 14.327 32 32 0 5.725-1.51 11.093-4.144 15.743l0.321 0.128z"  horiz-adv-x="1024" />

    
    <glyph glyph-name="time_line" unicode="&#58959;" d="M512-64C264.577-64 64 136.576 64 384S264.577 832 512 832s448-200.577 448-448-200.577-448-448-448z m0 832c-212.077 0-384-171.923-384-384s171.923-384 384-384 384 171.923 384 384-171.923 384-384 384z m224-416H602.516c-13.181-37.282-48.72-64-90.516-64-53.019 0-96 42.981-96 96 0 41.796 26.718 77.335 64 90.516V672c0 17.673 14.327 32 32 32 17.673 0 32-14.327 32-32v-197.484c27.27-9.641 48.872-31.252 58.516-58.516H736c17.673 0 32-14.327 32-32s-14.327-32-32-32z m-224 64c-17.673 0-32-14.327-32-32s14.327-32 32-32c17.673 0 32 14.327 32 32s-14.327 32-32 32z"  horiz-adv-x="1024" />

    
    <glyph glyph-name="time_fill" unicode="&#58960;" d="M512-64C264.577-64 64 136.576 64 384S264.577 832 512 832s448-200.577 448-448-200.577-448-448-448z m224 480H602.516c-9.644 27.264-31.247 48.874-58.516 58.516V672c0 17.673-14.327 32-32 32-17.673 0-32-14.327-32-32v-197.484c-37.282-13.181-64-48.72-64-90.516 0-53.019 42.981-96 96-96 41.796 0 77.335 26.718 90.516 64H736c17.673 0 32 14.327 32 32 0 17.673-14.327 32-32 32z m-224-64c-17.673 0-32 14.327-32 32 0 17.673 14.327 32 32 32 17.673 0 32-14.327 32-32 0-17.673-14.327-32-32-32z"  horiz-adv-x="1024" />

    
    <glyph glyph-name="high-risk-event_line" unicode="&#58961;" d="M942.102-8.571c-21.954-35.544-57.556-55.418-99.308-55.418H181.195c-41.752 0-77.35 19.874-99.3 55.418-21.945 35.544-23.78 76.303-5.111 113.685l330.8 662.296c20.324 40.686 58.976 64.597 104.411 64.597 45.448 0 84.095-23.91 104.411-64.597L947.21 105.114c18.673-37.382 16.838-78.142-5.108-113.685zM881 96L557 744c-13 19.953-30.508 24-45 24-13.479 0-33-4.281-45-24L143 96c-18.187-32-21.93-54.921 0-80 17-19.437 32.457-16 81-16h576c39.293 0 64-3.25 80 15 21.01 23.973 21.442 45.368 1 81z m-209 32H352c-17.673 0-32 14.327-32 32s14.327 32 32 32h320c17.673 0 32-14.327 32-32s-14.327-32-32-32z m-32 128H384c-17.673 0-32 14.327-32 32s14.327 32 32 32h256c17.673 0 32-14.327 32-32s-14.327-32-32-32z m-32 128H416c-17.673 0-32 14.327-32 32 0 17.673 14.327 32 32 32h192c17.673 0 32-14.327 32-32 0-17.673-14.327-32-32-32z"  horiz-adv-x="1024" />

    
    <glyph glyph-name="high-risk-event_fill" unicode="&#58962;" d="M942.102-8.571c-21.954-35.544-57.556-55.418-99.308-55.418H181.195c-41.752 0-77.35 19.874-99.3 55.418-21.945 35.544-23.78 76.303-5.111 113.685l330.8 662.296c20.324 40.686 58.976 64.597 104.411 64.597 45.448 0 84.095-23.91 104.411-64.597L947.21 105.114c18.673-37.382 16.838-78.142-5.108-113.685zM608 448H416c-17.673 0-32-14.327-32-32 0-17.673 14.327-32 32-32h192c17.673 0 32 14.327 32 32 0 17.673-14.327 32-32 32z m32-128H384c-17.673 0-32-14.327-32-32s14.327-32 32-32h256c17.673 0 32 14.327 32 32s-14.327 32-32 32z m32-128H352c-17.673 0-32-14.327-32-32s14.327-32 32-32h320c17.673 0 32 14.327 32 32s-14.327 32-32 32z"  horiz-adv-x="1024" />

    
    <glyph glyph-name="high-risk-duration_l" unicode="&#58963;" d="M942.102-8.571c-21.954-35.544-57.556-55.418-99.308-55.418h-661.6c-41.752 0-77.35 19.874-99.3 55.418-21.945 35.544-23.78 76.303-5.111 113.685l330.8 662.296c20.324 40.686 58.976 64.597 104.411 64.597 45.448 0 84.095-23.91 104.411-64.597l330.804-662.296c18.674-37.382 16.839-78.142-5.107-113.685zM881 96L557 744c-13 19.953-30.508 24-45 24-13.479 0-33-4.281-45-24L143 96c-18.188-32-21.93-54.921 0-80 17-19.437 32.457-16 81-16h576c39.293 0 64-3.25 80 15 21.01 23.973 21.442 45.368 1 81z m-145 64H602.516c-13.181-37.282-48.72-64-90.516-64-53.019 0-96 42.981-96 96 0 41.796 26.718 77.335 64 90.516V480c0 17.673 14.327 32 32 32 17.673 0 32-14.327 32-32v-197.484c27.27-9.641 48.872-31.252 58.516-58.516H736c17.673 0 32-14.327 32-32 0-17.673-14.327-32-32-32z m-224 64c-17.673 0-32-14.327-32-32 0-17.673 14.327-32 32-32 17.673 0 32 14.327 32 32 0 17.673-14.327 32-32 32z"  horiz-adv-x="1024" />

    
    <glyph glyph-name="high-risk-duration_f" unicode="&#58964;" d="M942.102-8.571c-21.954-35.544-57.556-55.418-99.308-55.418h-661.6c-41.752 0-77.35 19.874-99.3 55.418-21.945 35.544-23.78 76.303-5.111 113.685l330.8 662.296c20.324 40.686 58.976 64.597 104.411 64.597 45.448 0 84.095-23.91 104.411-64.597l330.804-662.296c18.674-37.382 16.839-78.142-5.107-113.685zM736 224H602.516c-9.644 27.264-31.247 48.874-58.516 58.516V480c0 17.673-14.327 32-32 32-17.673 0-32-14.327-32-32v-197.484c-37.282-13.181-64-48.72-64-90.516 0-53.019 42.981-96 96-96 41.796 0 77.335 26.718 90.516 64H736c17.673 0 32 14.327 32 32 0 17.673-14.327 32-32 32z m-224-64c-17.673 0-32 14.327-32 32 0 17.673 14.327 32 32 32 17.673 0 32-14.327 32-32 0-17.673-14.327-32-32-32z"  horiz-adv-x="1024" />

    
    <glyph glyph-name="behavioral-portrait_" unicode="&#58965;" d="M512-64C264.577-64 64 136.576 64 384S264.577 832 512 832s448-200.576 448-448-200.577-448-448-448z m0 832c-212.077 0-384-171.923-384-384s171.923-384 384-384 384 171.923 384 384-171.923 384-384 384z m54.698-486.615c-6.267-6.267-14.484-9.394-22.698-9.384-8.214-0.01-16.431 3.117-22.698 9.384L416 386.687 278.698 249.385c-12.513-12.513-32.8-12.513-45.313 0-12.513 12.513-12.513 32.8 0 45.313l159.908 159.908c6.269 6.269 14.49 9.396 22.707 9.383 8.217 0.013 16.438-3.114 22.707-9.383L544 349.313l185.293 185.293c12.513 12.513 32.8 12.513 45.313 0 12.513-12.513 12.513-32.8 0-45.313L566.698 281.385zM512 640c-96.394 0-180.329-53.286-223.997-131.999l-83.369-34.737C243.276 606.554 366.251 704 512 704c55.434 0 107.572-14.101 153.033-38.903l-83.308-34.712C559.558 636.646 536.171 640 512 640z m0-512c96.394 0 180.329 53.286 223.997 131.999l83.369 34.737C780.724 161.446 657.749 64 512 64c-55.434 0-107.572 14.101-153.033 38.903l83.308 34.712C464.442 131.354 487.829 128 512 128z"  horiz-adv-x="1024" />

    
    <glyph glyph-name="behavioral-portrait_1" unicode="&#58966;" d="M512-64C264.577-64 64 136.576 64 384S264.577 832 512 832s448-200.576 448-448-200.577-448-448-448z m0 768c-145.749 0-268.724-97.446-307.367-230.736l83.369 34.737C331.671 586.714 415.606 640 512 640c24.171 0 47.558-3.354 69.725-9.615l83.308 34.712C619.572 689.899 567.434 704 512 704z m262.606-169.394c-12.513 12.513-32.8 12.513-45.313 0L544 349.313 438.707 454.606c-6.269 6.269-14.49 9.396-22.707 9.383-8.217 0.013-16.438-3.114-22.707-9.383L233.385 294.698c-12.513-12.513-12.513-32.8 0-45.313 12.513-12.513 32.8-12.513 45.313 0L416 386.687l105.302-105.302c6.267-6.267 14.484-9.394 22.698-9.384 8.214-0.01 16.431 3.117 22.698 9.384l207.908 207.908c12.513 12.513 12.513 32.8 0 45.313z m-38.609-274.607C692.329 181.286 608.394 128 512 128c-24.171 0-47.558 3.354-69.725 9.615l-83.308-34.712C404.428 78.101 456.566 64 512 64c145.749 0 268.724 97.446 307.367 230.736l-83.37-34.737z"  horiz-adv-x="1024" />

    
    <glyph glyph-name="add_line" unicode="&#58967;" d="M928 352H544v-384c0-17.673-14.327-32-32-32-17.673 0-32 14.327-32 32V352H96c-17.673 0-32 14.327-32 32 0 17.673 14.327 32 32 32h384V800c0 17.673 14.327 32 32 32 17.673 0 32-14.327 32-32v-384h384c17.673 0 32-14.327 32-32 0-17.673-14.327-32-32-32z"  horiz-adv-x="1024" />

    
    <glyph glyph-name="menu_off" unicode="&#58968;" d="M896 320H576c-35.346 0-64 28.654-64 64s28.654 64 64 64h320c35.346 0 64-28.654 64-64s-28.654-64-64-64z m0 352H128c-35.346 0-64 28.654-64 64s28.654 64 64 64h768c35.346 0 64-28.654 64-64s-28.654-64-64-64zM81.154 412.346l251.885 157.428A31.85 31.85 0 0 0 352 576c17.673 0 32-14.327 32-32v-320c0-17.673-14.327-32-32-32a31.85 31.85 0 0 0-18.961 6.226L81.154 355.654C70.959 361.005 64 371.687 64 384s6.959 22.995 17.154 28.346zM128 96h768c35.346 0 64-28.654 64-64s-28.654-64-64-64H128c-35.346 0-64 28.654-64 64s28.654 64 64 64z"  horiz-adv-x="1024" />

    
    <glyph glyph-name="menu_open" unicode="&#58969;" d="M896 672H128c-35.346 0-64 28.654-64 64 0 35.346 28.654 64 64 64h768c35.346 0 64-28.654 64-64 0-35.346-28.654-64-64-64zM128 448h320c35.346 0 64-28.654 64-64s-28.654-64-64-64H128c-35.346 0-64 28.654-64 64s28.654 64 64 64z m814.846-92.346L690.961 198.226A31.85 31.85 0 0 0 672 192c-17.673 0-32 14.327-32 32V544c0 17.673 14.327 32 32 32a31.856 31.856 0 0 0 18.961-6.225l251.885-157.428C953.041 406.995 960 396.313 960 384c0-12.313-6.959-22.995-17.154-28.346zM128 96h768c35.346 0 64-28.654 64-64 0-35.346-28.654-64-64-64H128c-35.346 0-64 28.654-64 64 0 35.346 28.654 64 64 64z"  horiz-adv-x="1024" />

    
    <glyph glyph-name="Import_fill" unicode="&#58975;" d="M824-32H200c-57.438 0-104 46.563-104 104V696c0 57.438 46.562 104 104 104h248v-64H200c-22.091 0-40-17.909-40-40v-624c0-22.091 17.909-40 40-40h624c22.091 0 40 17.909 40 40V320h64v-248c0-57.438-46.562-104-104-104zM653.425 480.16l73.142-73.142c5.773-5.773 8.865-13.192 9.343-20.746 0.033-0.469 0.055-0.94 0.068-1.414 0.005-0.276 0.023-0.551 0.021-0.828l0.001-0.031c0-17.673-14.327-32-32-32H512c-17.673 0-32 14.327-32 32V575.595a21.48 21.48 0 0 0 0 0.359V576c0 17.673 14.327 32 32 32l0.03-0.001c0.277 0.002 0.554-0.016 0.831-0.021 0.472-0.013 0.942-0.034 1.409-0.067 7.555-0.478 14.974-3.57 20.748-9.344l73.158-73.158 265.193 265.213c12.495 12.496 32.753 12.496 45.248 0 12.495-12.496 12.495-32.756 0-45.252L653.425 480.16z"  horiz-adv-x="1024" />

    
    <glyph glyph-name="export_fill" unicode="&#58977;" d="M928 576.046V576c0-17.673-14.327-32-32-32l-0.03 0.001c-0.277-0.002-0.554 0.016-0.831 0.021a32.814 32.814 0 0 0-1.409 0.067c-7.555 0.478-14.974 3.57-20.748 9.344l-73.158 73.158-265.193-265.214c-12.495-12.496-32.753-12.496-45.248 0-12.495 12.496-12.495 32.756 0 45.252L754.574 671.84l-73.142 73.142c-5.773 5.773-8.865 13.192-9.343 20.746-0.033 0.469-0.055 0.94-0.068 1.414-0.005 0.276-0.023 0.551-0.021 0.828l-0.001 0.031c0 17.673 14.327 32 32 32H896c17.673 0 32-14.327 32-32v-191.955zM160 696v-624c0-22.091 17.909-40 40-40h624c22.091 0 40 17.909 40 40V320h64v-248c0-57.438-46.562-104-104-104H200c-57.438 0-104 46.563-104 104V696c0 57.438 46.562 104 104 104h248v-64H200c-22.091 0-40-17.909-40-40z"  horiz-adv-x="1024" />

    
    <glyph glyph-name="delete_line" unicode="&#58982;" d="M557.327 384l361.29-361.29c12.517-12.517 12.517-32.81 0-45.327-12.517-12.517-32.81-12.517-45.327 0L512 338.673l-361.29-361.29c-12.517-12.517-32.81-12.517-45.327 0-12.517 12.517-12.517 32.81 0 45.327L466.673 384l-361.29 361.29c-12.517 12.517-12.517 32.81 0 45.327 12.517 12.517 32.81 12.517 45.327 0L512 429.327l361.29 361.29c12.517 12.517 32.81 12.517 45.327 0 12.517-12.517 12.517-32.81 0-45.327L557.327 384z"  horiz-adv-x="1024" />

    
    <glyph glyph-name="menu_line" unicode="&#58984;" d="M928 352H96c-17.673 0-32 14.327-32 32 0 17.673 14.327 32 32 32h832c17.673 0 32-14.327 32-32 0-17.673-14.327-32-32-32z m0 320H96c-17.673 0-32 14.327-32 32 0 17.673 14.327 32 32 32h832c17.673 0 32-14.327 32-32 0-17.673-14.327-32-32-32zM96 96h832c17.673 0 32-14.327 32-32 0-17.673-14.327-32-32-32H96c-17.673 0-32 14.327-32 32 0 17.673 14.327 32 32 32z"  horiz-adv-x="1024" />

    
    <glyph glyph-name="home_line" unicode="&#58986;" d="M953.464 460.665c-10.698-14.083-30.786-16.826-44.868-6.127L864 488.841V64c0-70.692-57.308-128-128-128H288c-70.692 0-128 57.308-128 128V488.841l-44.597-34.303c-14.082-10.699-34.17-7.956-44.868 6.127s-7.955 34.172 6.126 44.871L492.593 825.461a31.861 31.861 0 0 0 18.044 6.491c0.135 0.006 0.271 0.009 0.406 0.013a30.543 30.543 0 0 0 1.914 0c0.135-0.004 0.271-0.007 0.406-0.013a31.863 31.863 0 0 0 18.043-6.491l415.931-319.925c14.083-10.699 16.826-30.788 6.127-44.871zM432 0h160V192c0 8.837-7.163 16-16 16H448c-8.837 0-16-7.163-16-16v-192z m368 538.069L512 759.592 224 538.069V64c0-35.346 28.654-64 64-64h80V192c0 44.183 35.817 80 80 80h128c44.183 0 80-35.817 80-80v-192h80c35.346 0 64 28.654 64 64V538.069z m-284.666 85.395L352 497.271V432c0-17.673-14.327-32-32-32s-32 14.327-32 32v80c0 0.209 0.012 0.414 0.016 0.622-0.119 9.801 4.243 19.529 12.646 25.914l175.931 135.925c14.082 10.699 34.17 7.956 44.868-6.127 10.698-14.082 7.955-34.172-6.127-44.87z"  horiz-adv-x="1024" />

    
    <glyph glyph-name="home_fill" unicode="&#58987;" d="M953.464 460.665c-10.698-14.083-30.786-16.826-44.868-6.127L864 488.841V64c0-70.692-57.308-128-128-128H288c-70.692 0-128 57.308-128 128V488.841l-44.597-34.303c-14.082-10.699-34.17-7.956-44.868 6.127-10.698 14.082-7.955 34.172 6.126 44.871L492.593 825.461c0.271 0.206 0.559 0.374 0.835 0.57l0.067 0.046a32.63 32.63 0 0 0 2.58 1.655l0.036 0.02a31.766 31.766 0 0 0 8.555 3.374c0.034 0.008 0.069 0.013 0.103 0.021a31.963 31.963 0 0 0 2.829 0.525c0.218 0.031 0.438 0.042 0.657 0.068a31.727 31.727 0 0 0 2.278 0.201c0.489 0.023 0.978 0.01 1.468 0.011 0.49-0.001 0.979 0.012 1.468-0.011 0.761-0.033 1.519-0.113 2.278-0.201 0.219-0.026 0.439-0.038 0.657-0.068 0.948-0.13 1.891-0.309 2.829-0.525 0.034-0.008 0.069-0.013 0.103-0.021a31.753 31.753 0 0 0 8.555-3.374l0.036-0.02a32.068 32.068 0 0 0 2.58-1.655l0.067-0.046c0.276-0.196 0.563-0.364 0.835-0.57L947.34 505.536c14.08-10.699 16.823-30.788 6.124-44.871zM521.461 668.334c-10.698 14.083-30.786 16.826-44.868 6.127L300.662 538.536c-8.403-6.385-12.766-16.113-12.646-25.914-0.004-0.208-0.016-0.414-0.016-0.622v-80c0-17.673 14.327-32 32-32 17.673 0 32 14.327 32 32v65.271l163.334 126.193c14.082 10.698 16.825 30.788 6.127 44.87zM656 192c0 44.183-35.817 80-80 80H448c-44.183 0-80-35.817-80-80v-192h64V192c0 8.837 7.163 16 16 16h128c8.836 0 16-7.163 16-16v-192h64V192z"  horiz-adv-x="1024" />

    
    <glyph glyph-name="set-up_line" unicode="&#58988;" d="M903.987 297.769l-72.76-18.182c-5.442-16.626-12.225-32.62-20.046-47.997l38.914-64.856c14.516-23.177 21.846-57.312 0-79.184l-39.619-39.592c-21.848-21.872-58.765-17.931-81.049-2.486l-63.166 40.247c-16.161-8.363-33.029-15.532-50.613-21.222l-16.163-72.922c-4.809-26.688-28.134-55.563-59.059-55.563h-56.001c-30.927 0-49.878 29.311-56.001 55.998l-17.92 71.667c-19.101 6.052-37.408 13.838-54.866 23.053l-64.749-41.258c-22.284-15.445-59.198-19.386-81.049 2.486l-39.619 39.592c-21.851 21.872-14.524 56.007 0 79.184l40.962 68.253c-7.127 14.356-13.402 29.182-18.436 44.6l-72.76 18.182c-26.684 6.134-56.001 25.076-56.001 55.998v55.994c0 30.936 28.876 54.254 55.563 59.07l71.847 15.944c5.253 16.708 12.059 32.689 19.731 48.152l-40.906 68.179c-14.534 23.2-21.862 57.33 0 79.202l39.606 39.587c21.864 21.867 58.778 17.944 81.049 2.481l64.61-41.158c17.354 9.146 35.563 16.887 54.538 22.925l17.963 71.864c6.128 26.688 25.074 56.003 56.001 56.003h55.999c30.927 0 54.252-28.871 59.067-55.563l16.131-72.73c17.768-5.745 34.861-13.014 51.216-21.492l63.027 40.15c22.284 15.463 59.2 19.386 81.049-2.481l39.619-39.587c21.846-21.872 14.516-56.003 0-79.202l-38.887-64.783c8.422-16.479 15.755-33.623 21.362-51.549l71.855-15.944c26.692-4.816 55.563-28.134 55.563-59.07v-55.994c-0.001-30.919-29.31-49.861-56.002-55.996zM896 405l-114 27s-2.825 8.987-6.392 19.283c-5.28 20.746-12.963 40.528-22.703 59.059-6.57 13.303-15.192 28.282-15.192 28.282l61.932 102.288-31.82 30.82-98.409-62.811s-15.717 8.574-29.593 15.204a270.334 270.334 0 0 1-49.258 20.337C576.61 649.358 561 654 561 654l-25 114h-45l-28-114s-12.614-3.855-25.19-8.245a270.386 270.386 0 0 1-64.053-27.475c-11.076-5.685-21.174-11.359-21.174-11.359L252 672l-31-31 63.286-105.376s-6.085-10.667-12.232-23.446a270.192 270.192 0 0 1-22.853-57.823C244.805 442.416 241 431 241 431l-113-26v-44l114-28s8.774-29.507 14.924-43.65a270.321 270.321 0 0 1 10.255-23.954c6.566-14.583 17.107-33.02 17.107-33.02L221 127l31-31 100.876 64.786s10.482-5.826 21.625-11.479c20.187-11.851 42.025-21.192 65.105-27.549C451.98 117.574 464 114 464 114l28-114h44l25 114s15.61 4.642 29.566 9.539c20.914 6.3 40.754 15.066 59.21 25.931 10.251 5.261 19.348 10.316 19.348 10.316L768 96l31 31-61.286 102.376s4.643 8.363 9.685 18.331a270.767 270.767 0 0 1 19.421 40.991C773.285 302.986 782 333 782 333l114 28v44zM512 224c-88.366 0-160 71.634-160 160s71.634 160 160 160 160-71.634 160-160-71.635-160-160-160z m0 256c-53.019 0-96-42.981-96-96s42.981-96 96-96 96 42.981 96 96-42.981 96-96 96z"  horiz-adv-x="1024" />

    
    <glyph glyph-name="set-up_fill" unicode="&#58989;" d="M903.987 297.769l-72.76-18.182c-5.442-16.626-12.224-32.62-20.046-47.997l38.914-64.856c14.516-23.177 21.846-57.312 0-79.184l-39.619-39.592c-21.848-21.872-58.765-17.931-81.049-2.486l-63.166 40.247c-16.161-8.363-33.029-15.532-50.613-21.222l-16.163-72.922c-4.809-26.688-28.134-55.563-59.059-55.563h-56.001c-30.927 0-49.878 29.311-56.001 55.998l-17.92 71.667c-19.101 6.052-37.408 13.838-54.866 23.053l-64.749-41.258c-22.284-15.445-59.198-19.386-81.049 2.486l-39.619 39.592c-21.851 21.872-14.524 56.007 0 79.184l40.962 68.253c-7.127 14.356-13.402 29.182-18.436 44.6l-72.76 18.182c-26.684 6.134-56.001 25.076-56.001 55.998v55.994c0 30.936 28.877 54.254 55.563 59.07l71.847 15.944c5.252 16.708 12.059 32.689 19.731 48.152l-40.906 68.179c-14.534 23.2-21.862 57.33 0 79.202l39.606 39.587c21.864 21.867 58.778 17.944 81.048 2.481l64.61-41.158c17.354 9.146 35.563 16.887 54.538 22.925l17.963 71.864c6.128 26.688 25.074 56.003 56.001 56.003h55.999c30.927 0 54.252-28.871 59.067-55.563l16.131-72.73c17.768-5.745 34.861-13.014 51.216-21.492l63.027 40.15c22.284 15.463 59.2 19.386 81.049-2.481l39.619-39.587c21.846-21.872 14.516-56.003 0-79.202l-38.887-64.783c8.422-16.479 15.755-33.623 21.362-51.549l71.855-15.944c26.692-4.816 55.563-28.134 55.563-59.07v-55.994c0-30.919-29.309-49.861-56.001-55.996zM512 544c-88.366 0-160-71.634-160-160s71.634-160 160-160 160 71.634 160 160-71.635 160-160 160z m0-256c-53.019 0-96 42.981-96 96s42.981 96 96 96 96-42.981 96-96-42.981-96-96-96z"  horiz-adv-x="1024" />

    
    <glyph glyph-name="clear_line" unicode="&#58990;" d="M928 640h-64v-576c0-70.692-57.308-128-128-128H288c-70.692 0-128 57.308-128 128V640H96c-17.673 0-32 14.327-32 32 0 17.673 14.327 32 32 32h832c17.673 0 32-14.327 32-32 0-17.673-14.327-32-32-32z m-128 0H224v-576c0-35.346 28.654-64 64-64h448c35.346 0 64 28.654 64 64V640zM624 64c-17.673 0-32 14.327-32 32V544c0 17.673 14.327 32 32 32s32-14.327 32-32v-448c0-17.673-14.327-32-32-32z m-224 0c-17.673 0-32 14.327-32 32V544c0 17.673 14.327 32 32 32s32-14.327 32-32v-448c0-17.673-14.327-32-32-32z m272 704H352c-17.673 0-32 14.327-32 32 0 17.673 14.327 32 32 32h320c17.673 0 32-14.327 32-32 0-17.673-14.327-32-32-32z"  horiz-adv-x="1024" />

    
    <glyph glyph-name="clear_fill" unicode="&#58991;" d="M928 640h-64v-576c0-70.692-57.308-128-128-128H288c-70.692 0-128 57.308-128 128V640H96c-17.673 0-32 14.327-32 32 0 17.673 14.327 32 32 32h832c17.673 0 32-14.327 32-32 0-17.673-14.327-32-32-32z m-496-96c0 17.673-14.327 32-32 32-17.673 0-32-14.327-32-32v-448c0-17.673 14.327-32 32-32 17.673 0 32 14.327 32 32V544z m224 0c0 17.673-14.327 32-32 32-17.673 0-32-14.327-32-32v-448c0-17.673 14.327-32 32-32 17.673 0 32 14.327 32 32V544z m16 224H352c-17.673 0-32 14.327-32 32 0 17.673 14.327 32 32 32h320c17.673 0 32-14.327 32-32 0-17.673-14.327-32-32-32z"  horiz-adv-x="1024" />

    
    <glyph glyph-name="location_line" unicode="&#58992;" d="M511.988-64.01300000000003s-384 215.358-384 537.599C128 664 299.909 831.986 511.984 831.986 724.062 831.986 896 664 895.988 473.587c-1.498-326.177-384-537.6-384-537.6z m-0.002 832.001C352 767.977 192.011 643.178 192 462.88 192 199.36800000000005 512 0 512 0s320 199.368 320 462.88C831.215 643.1759999999999 672 768 511.986 767.988zM512 320c-97.202 0-176 78.798-176 176s78.798 176 176 176 176-78.798 176-176-78.798-176-176-176z m0 288c-61.856 0-112-50.144-112-112s50.144-112 112-112 112 50.144 112 112-50.144 112-112 112z"  horiz-adv-x="1024" />

    
    <glyph glyph-name="location_fill" unicode="&#58993;" d="M511.988-64.013s-384 215.358-384 537.599C128 664 299.909 831.986 511.984 831.986 724.062 831.986 896 664 895.988 473.587c-1.498-326.177-384-537.6-384-537.6zM512 672c-97.202 0-176-78.798-176-176s78.798-176 176-176 176 78.798 176 176-78.798 176-176 176z"  horiz-adv-x="1024" />

    
    <glyph glyph-name="details_line" unicode="&#58994;" d="M768-64H256c-70.692 0-128 57.308-128 128V704c0 70.692 57.308 128 128 128h383.726c8.302 0.078 16.629-3.037 22.963-9.371L886.598 598.72c6.273-6.273 9.398-14.499 9.383-22.721H896v-512C896-6.692 838.692-64 768-64zM608 768H256c-35.346 0-64-28.654-64-64v-640c0-35.346 28.654-64 64-64h512c35.346 0 64 28.654 64 64V544H640c-17.673 0-32 14.327-32 32V768z m64-160h114.682L672 722.682V608z m64-256c0-17.673-14.327-32-32-32H320c-17.673 0-32 14.327-32 32s14.327 32 32 32h384c17.673 0 32-14.327 32-32zM320 192h384c17.673 0 32-14.327 32-32s-14.327-32-32-32H320c-17.673 0-32 14.327-32 32s14.327 32 32 32z"  horiz-adv-x="1024" />

    
    <glyph glyph-name="details_fill" unicode="&#58995;" d="M768-64H256c-70.692 0-128 57.308-128 128V704c0 70.692 57.308 128 128 128h415.725c8.303 0.079 16.629-3.036 22.964-9.371L886.597 630.72c6.273-6.273 9.398-14.499 9.383-22.721h0.02v-544C896-6.692 838.692-64 768-64zM320 128h384c17.673 0 32 14.327 32 32s-14.327 32-32 32H320c-17.673 0-32-14.327-32-32s14.327-32 32-32z m-32 224c0-17.673 14.327-32 32-32h384c17.673 0 32 14.327 32 32s-14.327 32-32 32H320c-17.673 0-32-14.327-32-32z m512 256H672V736c0 17.673-14.327 32-32 32s-32-14.327-32-32v-160c0-17.673 14.327-32 32-32h160c17.673 0 32 14.327 32 32 0 17.673-14.327 32-32 32z"  horiz-adv-x="1024" />

    
    <glyph glyph-name="tips_line" unicode="&#58996;" d="M512-64C264.576-64 64 136.576 64 384S264.576 832 512 832s448-200.576 448-448-200.577-448-448-448z m0 832c-212.077 0-384-171.923-384-384s171.923-384 384-384 384 171.923 384 384-171.923 384-384 384z m0-656c-26.51 0-48 21.49-48 48s21.49 48 48 48 48-21.49 48-48-21.49-48-48-48z m0 160c-17.673 0-32 14.327-32 32V624c0 17.673 14.327 32 32 32 17.673 0 32-14.327 32-32v-320c0-17.673-14.327-32-32-32z"  horiz-adv-x="1024" />

    
    <glyph glyph-name="tips_fill" unicode="&#58997;" d="M512-64C264.576-64 64 136.576 64 384S264.576 832 512 832s448-200.576 448-448-200.577-448-448-448z m32 688c0 17.673-14.327 32-32 32-17.673 0-32-14.327-32-32v-320c0-17.673 14.327-32 32-32 17.673 0 32 14.327 32 32V624z m-32-416c-26.51 0-48-21.49-48-48s21.49-48 48-48 48 21.49 48 48-21.49 48-48 48z"  horiz-adv-x="1024" />

    
    <glyph glyph-name="refresh_line" unicode="&#58998;" d="M921.184 553.852c-1.716-8.698-6.802-15.872-13.633-20.436-6.817-4.586-15.386-6.566-24.083-4.849l-188.586 37.227c-17.359 3.427-28.655 20.277-25.232 37.637s20.272 28.654 37.63 25.228l118.569-23.405C756.329 703.698 641.684 768 512 768c-212.077 0-384-171.923-384-384s171.923-384 384-384 384 171.923 384 384c0 17.673 14.327 32 32 32 17.673 0 32-14.327 32-32 0-247.424-200.577-448-448-448S64 136.57600000000002 64 384 264.577 832 512 832c148.947 0 280.886-72.708 362.336-184.55l21.184 107.403c3.424 17.359 20.272 28.654 37.631 25.228 17.359-3.427 28.655-20.277 25.232-37.636l-37.199-188.593z"  horiz-adv-x="1024" />

    
    <glyph glyph-name="refresh_fill" unicode="&#59004;" d="M921.184 553.852c-1.716-8.698-6.802-15.872-13.633-20.436-6.817-4.586-15.385-6.566-24.083-4.849l-188.586 37.227a31.887 31.887 0 0 0-17.368 9.739l-0.053 0.056c-0.339 0.371-0.669 0.75-0.99 1.136l-0.07 0.082a32.076 32.076 0 0 0-0.997 1.267l-0.002 0.002a33.15 33.15 0 0 0-0.94 1.328l-0.011 0.016-0.019 0.031a32.45 32.45 0 0 0-1.59 2.652c-0.074 0.137-0.139 0.276-0.211 0.414a31.94 31.94 0 0 0-1.12 2.384c-0.093 0.223-0.177 0.448-0.265 0.672a31.742 31.742 0 0 0-0.791 2.245c-0.082 0.266-0.154 0.533-0.229 0.8a31.927 31.927 0 0 0-0.543 2.22c-0.057 0.278-0.103 0.556-0.153 0.834a32.192 32.192 0 0 0-0.321 2.249c-0.029 0.28-0.047 0.559-0.069 0.839a31.455 31.455 0 0 0-0.101 2.262c-0.002 0.291 0.01 0.581 0.016 0.872 0.015 0.673 0.046 1.347 0.104 2.025 0.032 0.38 0.076 0.757 0.122 1.135a32.191 32.191 0 0 0 0.933 4.724c0.099 0.359 0.199 0.717 0.311 1.074 0.207 0.659 0.437 1.305 0.683 1.942 0.102 0.264 0.199 0.529 0.308 0.79 0.296 0.71 0.622 1.4 0.965 2.079 0.122 0.241 0.24 0.483 0.368 0.722 0.365 0.68 0.758 1.34 1.168 1.987 0.145 0.229 0.288 0.458 0.439 0.684 0.432 0.645 0.891 1.268 1.366 1.877 0.164 0.209 0.324 0.419 0.493 0.625a32.78 32.78 0 0 0 1.607 1.802c0.159 0.166 0.315 0.335 0.478 0.498a31.764 31.764 0 0 0 1.962 1.799c0.113 0.095 0.221 0.194 0.335 0.288a31.88 31.88 0 0 0 2.488 1.856l0.025 0.019 78.004 52.294C694.145 733.399 607.121 768 512 768c-212.077 0-384-171.923-384-384s171.923-384 384-384 384 171.923 384 384c0 17.673 14.327 32 32 32s32-14.327 32-32c0-247.424-200.577-448-448-448S64 136.57600000000002 64 384 264.577 832 512 832c117.405 0 224.244-45.175 304.12-119.078l93.018 62.359c0.163 0.109 0.33 0.208 0.495 0.314 0.265 0.17 0.528 0.344 0.798 0.506 0.392 0.237 0.789 0.46 1.187 0.678l0.136 0.077c13.463 7.29 30.288 3.967 39.969-7.895l0.046-0.059c0.302-0.372 0.6-0.75 0.888-1.139 0.171-0.23 0.331-0.466 0.495-0.7 0.128-0.182 0.26-0.358 0.385-0.544a32.11 32.11 0 0 0 1.68-2.801l0.013-0.027a31.902 31.902 0 0 0 3.151-21.248l-37.197-188.591z"  horiz-adv-x="1024" />

    
    <glyph glyph-name="line_line" unicode="&#59000;" d="M864 580.033V384c0-17.673-14.327-32-32-32H635.967c-14.209-55.207-64.325-96-123.967-96-59.643 0-109.758 40.793-123.967 96H224v-164.033c55.207-14.209 96-64.324 96-123.967 0-70.692-57.308-128-128-128S64-6.692 64 64c0 59.643 40.793 109.758 96 123.967V384c0 17.673 14.327 32 32 32h196.033c14.209 55.207 64.324 96 123.967 96s109.758-40.793 123.967-96H800V580.033c-55.207 14.209-96 64.324-96 123.967 0 70.692 57.308 128 128 128s128-57.308 128-128c0-59.643-40.793-109.758-96-123.967zM128 64c0-35.346 28.654-64 64-64s64 28.654 64 64-28.654 64-64 64-64-28.654-64-64z m384 384c-35.346 0-64-28.654-64-64s28.654-64 64-64 64 28.654 64 64-28.654 64-64 64z m320 320c-35.346 0-64-28.654-64-64s28.654-64 64-64 64 28.654 64 64-28.654 64-64 64z"  horiz-adv-x="1024" />

    
    <glyph glyph-name="line_fill" unicode="&#59001;" d="M864 580.033V384c0-17.673-14.327-32-32-32H635.967c-14.209-55.207-64.325-96-123.967-96-59.643 0-109.758 40.793-123.967 96H224v-164.033c55.207-14.209 96-64.324 96-123.967 0-70.692-57.308-128-128-128S64-6.692 64 64c0 59.643 40.793 109.758 96 123.967V384c0 17.673 14.327 32 32 32h196.033c14.209 55.207 64.324 96 123.967 96s109.758-40.793 123.967-96H800V580.033c-55.207 14.209-96 64.324-96 123.967 0 70.692 57.308 128 128 128s128-57.308 128-128c0-59.643-40.793-109.758-96-123.967z"  horiz-adv-x="1024" />

    
    <glyph glyph-name="track_line" unicode="&#59002;" d="M864 580.033V64c0-17.673-14.327-32-32-32H512c-17.673 0-32 14.327-32 32V672H224v-484.033c55.207-14.209 96-64.324 96-123.967 0-70.692-57.308-128-128-128S64-6.692 64 64c0 59.643 40.793 109.758 96 123.967V704c0 17.673 14.327 32 32 32h320c17.673 0 32-14.327 32-32v-608h256V580.033c-55.207 14.209-96 64.324-96 123.967 0 70.692 57.308 128 128 128s128-57.308 128-128c0-59.643-40.793-109.758-96-123.967zM128 64c0-35.346 28.654-64 64-64s64 28.654 64 64-28.654 64-64 64-64-28.654-64-64z m704 704c-35.346 0-64-28.654-64-64s28.654-64 64-64 64 28.654 64 64-28.654 64-64 64z"  horiz-adv-x="1024" />

    
    <glyph glyph-name="track_fill" unicode="&#59003;" d="M864 580.033V64c0-17.673-14.327-32-32-32H512c-17.673 0-32 14.327-32 32V672H224v-484.033c55.207-14.209 96-64.324 96-123.967 0-70.692-57.308-128-128-128S64-6.692 64 64c0 59.643 40.793 109.758 96 123.967V704c0 17.673 14.327 32 32 32h320c17.673 0 32-14.327 32-32v-608h256V580.033c-55.207 14.209-96 64.324-96 123.967 0 70.692 57.308 128 128 128s128-57.308 128-128c0-59.643-40.793-109.758-96-123.967z"  horiz-adv-x="1024" />

    
    <glyph glyph-name="arrow-b_line" unicode="&#59007;" d="M950.611 569.286L534.714 153.389c-6.271-6.271-14.495-9.399-22.714-9.386-8.219-0.013-16.443 3.115-22.714 9.386L73.389 569.286c-12.516 12.516-12.516 32.809 0 45.325 12.516 12.516 32.809 12.516 45.325 0L512 221.325l393.286 393.286c12.516 12.516 32.809 12.516 45.325 0 12.516-12.516 12.516-32.809 0-45.325z"  horiz-adv-x="1024" />

    
    <glyph glyph-name="arrow-b_fill" unicode="&#59008;" d="M950.611 569.2860000000001L534.714 153.389c-6.271-6.271-14.495-9.399-22.714-9.386-8.219-0.013-16.443 3.115-22.714 9.386L73.389 569.2860000000001c-12.516 12.516-12.516 32.809 0 45.325 5.712 5.712 13.044 8.808 20.516 9.307 0.67 0.048 1.36 0.082 2.095 0.082h832c0.735 0 1.425-0.034 2.095-0.083 7.473-0.499 14.804-3.595 20.516-9.307 12.516-12.515 12.516-32.808 0-45.324z"  horiz-adv-x="1024" />

    
    <glyph glyph-name="arrow-l_line" unicode="&#59009;" d="M742.611 777.286L349.325 384l393.286-393.286c12.516-12.516 12.516-32.809 0-45.325-12.516-12.516-32.809-12.516-45.325 0L281.389 361.286c-6.271 6.271-9.399 14.495-9.386 22.714-0.013 8.219 3.115 16.443 9.386 22.714L697.286 822.611c12.516 12.516 32.809 12.516 45.325 0 12.516-12.516 12.516-32.809 0-45.325z"  horiz-adv-x="1024" />

    
    <glyph glyph-name="arrow-l_fill" unicode="&#59010;" d="M697.286-54.61099999999999L281.389 361.28599999999994c-6.271 6.271-9.399 14.495-9.386 22.714-0.013 8.219 3.115 16.443 9.386 22.714L697.286 822.611c12.516 12.516 32.809 12.516 45.325 0 5.712-5.712 8.808-13.044 9.307-20.516 0.048-0.67 0.082-1.36 0.082-2.095v-832c0-0.735-0.034-1.425-0.083-2.095-0.499-7.473-3.595-14.804-9.307-20.516-12.515-12.516-32.808-12.516-45.324 0z"  horiz-adv-x="1024" />

    
    <glyph glyph-name="arrow-r_line" unicode="&#59011;" d="M326.714 822.611l415.897-415.897c6.271-6.271 9.399-14.495 9.386-22.714 0.013-8.219-3.115-16.443-9.386-22.714L326.714-54.611c-12.516-12.516-32.809-12.516-45.325 0-12.516 12.516-12.516 32.809 0 45.325L674.675 384 281.389 777.286c-12.516 12.516-12.516 32.809 0 45.325 12.516 12.516 32.809 12.516 45.325 0z"  horiz-adv-x="1024" />

    
    <glyph glyph-name="arrow-r_fill" unicode="&#59012;" d="M326.714-54.61099999999999l415.897 415.897c6.271 6.271 9.399 14.495 9.386 22.714 0.013 8.219-3.115 16.443-9.386 22.714L326.714 822.611c-12.516 12.516-32.809 12.516-45.325 0-5.712-5.712-8.808-13.044-9.307-20.516-0.048-0.67-0.082-1.36-0.082-2.095v-832c0-0.735 0.034-1.425 0.083-2.095 0.499-7.473 3.595-14.804 9.307-20.516 12.515-12.516 32.808-12.516 45.324 0z"  horiz-adv-x="1024" />

    
    <glyph glyph-name="arrow-t_line" unicode="&#59013;" d="M950.611 153.389c-12.516-12.516-32.809-12.516-45.325 0L512 546.675 118.714 153.389c-12.516-12.516-32.809-12.516-45.325 0-12.516 12.516-12.516 32.809 0 45.325l415.897 415.897c6.271 6.271 14.495 9.399 22.714 9.386 8.219 0.013 16.443-3.115 22.714-9.386l415.897-415.897c12.516-12.516 12.516-32.809 0-45.325z"  horiz-adv-x="1024" />

    
    <glyph glyph-name="arrow-t_fill" unicode="&#59014;" d="M950.611 198.71400000000006L534.714 614.611c-6.271 6.271-14.495 9.399-22.714 9.386-8.22 0.013-16.443-3.115-22.714-9.386L73.389 198.71400000000006c-12.516-12.516-12.516-32.809 0-45.325 5.712-5.712 13.044-8.808 20.516-9.307 0.67-0.048 1.36-0.082 2.095-0.082h832c0.735 0 1.425 0.034 2.095 0.083 7.472 0.499 14.804 3.595 20.516 9.307 12.516 12.515 12.516 32.808 0 45.324z"  horiz-adv-x="1024" />

    
    <glyph glyph-name="location-service_line" unicode="&#59015;" d="M832-64H192c-70.692 0-128 57.308-128 128l32 192c8.889 53.336 42.768 106.663 94.725 122.957 10.451-20.487 22.264-40.161 35.049-58.957H224c-35.346 0-52.333-20.667-64-64l-32-192c0-35.346 28.654-64 64-64h640c35.346 0 64 28.654 64 64l-32 192c-8.333 37-28.654 64-64 64h-1.346c12.67 18.764 24.382 38.418 34.745 58.911C885.204 362.563 918.841 309.28599999999994 928 256l32-192c0-70.692-57.308-128-128-128zM511.99 127.99000000000001s-304 169.21-304 422.4C208 700 344.095 831.989 511.987 831.989 679.883 831.989 816 700 815.99 550.39c-1.185-256.282-304-422.4-304-422.4z m0 640.001C392 767.982 272.009 674.384 272 539.1600000000001 272 341.52599999999995 512 192 512 192s240 149.526 240 347.16C751.411 674.3820000000001 632 768 511.99 767.991zM512 416c-70.693 0-128 57.308-128 128 0 70.693 57.307 128 128 128 70.692 0 128-57.308 128-128 0-70.692-57.308-128-128-128z m0 192c-35.346 0-64-28.654-64-64s28.654-64 64-64 64 28.654 64 64-28.654 64-64 64z"  horiz-adv-x="1024" />

    
    <glyph glyph-name="location-service_fill" unicode="&#59016;" d="M832-64H192c-70.692 0-128 57.308-128 128l32 192c8.889 53.336 42.768 106.663 94.725 122.957 10.451-20.487 22.264-40.161 35.049-58.957H224c-35.346 0-52.333-20.667-64-64l-32-192c0-35.346 28.654-64 64-64h640c35.346 0 64 28.654 64 64l-32 192c-8.333 37-28.654 64-64 64h-1.346c12.67 18.764 24.382 38.418 34.745 58.911C885.204 362.563 918.841 309.28599999999994 928 256l32-192c0-70.692-57.308-128-128-128zM511.99 127.99000000000001s-304 169.21-304 422.4C208 700 344.095 831.989 511.987 831.989 679.883 831.989 816 700 815.99 550.39c-1.185-256.282-304-422.4-304-422.4zM512 672c-70.692 0-128-57.308-128-128 0-70.692 57.308-128 128-128 70.693 0 128 57.307 128 128 0 70.692-57.308 128-128 128z"  horiz-adv-x="1024" />

    
    <glyph glyph-name="arrow1-b_line" unicode="&#59017;" d="M534.714 297.389c-6.271-6.271-14.495-9.399-22.714-9.386-8.22-0.013-16.443 3.115-22.714 9.386L73.389 713.2860000000001c-12.516 12.516-12.516 32.809 0 45.325 12.516 12.516 32.809 12.516 45.325 0L512 365.32500000000005l393.286 393.286c12.516 12.516 32.809 12.516 45.325 0 12.516-12.516 12.516-32.809 0-45.325L534.714 297.389z m-416 173.222L512 77.32500000000005l393.286 393.286c12.516 12.516 32.809 12.516 45.325 0 12.516-12.516 12.516-32.809 0-45.325L534.714 9.38900000000001c-6.271-6.271-14.495-9.399-22.714-9.386-8.22-0.013-16.443 3.115-22.714 9.386L73.389 425.286c-12.516 12.516-12.516 32.809 0 45.325 12.516 12.516 32.809 12.516 45.325 0z"  horiz-adv-x="1024" />

    
    <glyph glyph-name="arrow1-b_fill" unicode="&#59018;" d="M534.714 297.389c-6.271-6.271-14.495-9.399-22.714-9.386-8.22-0.013-16.443 3.115-22.714 9.386L73.389 713.2860000000001c-12.516 12.516-12.516 32.809 0 45.325 6.245 6.245 14.426 9.373 22.611 9.386V768h832v-0.003c8.185-0.013 16.366-3.141 22.611-9.386 12.516-12.516 12.516-32.809 0-45.325L534.714 297.389zM96 479.997V480h146.675l246.611-246.611c6.271-6.271 14.495-9.399 22.714-9.386 8.219-0.013 16.443 3.115 22.714 9.386L781.325 480H928c17.673 0 32-14.327 32-32l-0.003-0.048c0.001-8.203-3.128-16.407-9.387-22.666L534.714 9.38900000000001c-6.271-6.271-14.495-9.399-22.714-9.386-8.22-0.013-16.443 3.115-22.714 9.386L73.389 425.286c-12.516 12.516-12.516 32.809 0 45.325 6.245 6.245 14.426 9.372 22.611 9.386z"  horiz-adv-x="1024" />

    
    <glyph glyph-name="arrow1-t_line" unicode="&#59019;" d="M534.714 470.611c-6.271 6.271-14.495 9.399-22.714 9.386-8.22 0.013-16.443-3.115-22.714-9.386L73.389 54.714000000000055c-12.516-12.516-12.516-32.809 0-45.325 12.516-12.516 32.809-12.516 45.325 0L512 402.675l393.286-393.286c12.516-12.516 32.809-12.516 45.325 0 12.516 12.516 12.516 32.809 0 45.325L534.714 470.611z m-416-173.222L512 690.675l393.286-393.286c12.516-12.516 32.809-12.516 45.325 0 12.516 12.516 12.516 32.809 0 45.325L534.714 758.611c-6.271 6.271-14.495 9.399-22.714 9.386-8.22 0.013-16.443-3.115-22.714-9.386L73.389 342.71400000000006c-12.516-12.516-12.516-32.809 0-45.325 12.516-12.516 32.809-12.516 45.325 0z"  horiz-adv-x="1024" />

    
    <glyph glyph-name="arrow1-t_fill" unicode="&#59020;" d="M534.714 470.611c-6.271 6.271-14.495 9.399-22.714 9.386-8.22 0.013-16.443-3.115-22.714-9.386L73.389 54.714000000000055c-12.516-12.516-12.516-32.809 0-45.325 6.245-6.245 14.426-9.373 22.611-9.386V0h832v0.003c8.185 0.013 16.366 3.141 22.611 9.386 12.516 12.516 12.516 32.809 0 45.325L534.714 470.611zM96 288.00300000000004v-0.004h146.675L489.286 534.61c6.271 6.271 14.495 9.399 22.714 9.386 8.219 0.013 16.443-3.115 22.714-9.386L781.325 288H928c17.673 0 32 14.327 32 32l-0.003 0.048c0.001 8.203-3.128 16.407-9.387 22.666L534.714 758.611c-6.271 6.271-14.495 9.399-22.714 9.386-8.22 0.013-16.443-3.115-22.714-9.386L73.389 342.71400000000006c-12.516-12.516-12.516-32.809 0-45.325 6.245-6.245 14.426-9.373 22.611-9.386z"  horiz-adv-x="1024" />

    
    <glyph glyph-name="arrow1-l_line" unicode="&#59021;" d="M425.389 406.714c-6.271-6.271-9.399-14.495-9.386-22.714-0.013-8.219 3.115-16.443 9.386-22.714l415.897-415.897c12.516-12.516 32.809-12.516 45.325 0 12.516 12.516 12.516 32.809 0 45.325L493.325 384l393.286 393.286c12.516 12.516 12.516 32.809 0 45.325-12.516 12.516-32.809 12.516-45.325 0L425.389 406.714z m173.222-416L205.325 384l393.286 393.286c12.516 12.516 12.516 32.809 0 45.325-12.516 12.516-32.809 12.516-45.325 0L137.389 406.714c-6.271-6.271-9.399-14.495-9.386-22.714-0.013-8.219 3.115-16.443 9.386-22.714l415.897-415.897c12.516-12.516 32.809-12.516 45.325 0 12.516 12.516 12.516 32.809 0 45.325z"  horiz-adv-x="1024" />

    
    <glyph glyph-name="arrow1-l_fill" unicode="&#59022;" d="M425.389 406.714c-6.271-6.271-9.399-14.495-9.386-22.714-0.013-8.219 3.115-16.443 9.386-22.714l415.897-415.897c12.516-12.516 32.809-12.516 45.325 0 6.245 6.245 9.373 14.426 9.386 22.611H896V800h-0.003c-0.013 8.185-3.141 16.366-9.386 22.611-12.516 12.516-32.809 12.516-45.325 0L425.389 406.714zM607.997-32H608V114.67499999999995L361.389 361.28599999999994c-6.271 6.271-9.399 14.495-9.386 22.714-0.013 8.219 3.115 16.443 9.386 22.714L608 653.325V800c0 17.673-14.327 32-32 32l-0.048-0.003c-8.203 0.001-16.407-3.128-22.666-9.387L137.389 406.714c-6.271-6.271-9.399-14.495-9.386-22.714-0.013-8.219 3.115-16.443 9.386-22.714l415.897-415.897c12.516-12.516 32.809-12.516 45.325 0 6.245 6.245 9.372 14.426 9.386 22.611z"  horiz-adv-x="1024" />

    
    <glyph glyph-name="arrow1-r_line" unicode="&#59023;" d="M598.611 406.714c6.271-6.271 9.399-14.495 9.386-22.714 0.013-8.219-3.115-16.443-9.386-22.714L182.714-54.61099999999999c-12.516-12.516-32.809-12.516-45.325 0-12.516 12.516-12.516 32.809 0 45.325L530.675 384 137.389 777.2860000000001c-12.516 12.516-12.516 32.809 0 45.325 12.516 12.516 32.809 12.516 45.325 0l415.897-415.897z m-173.222-416L818.675 384 425.389 777.2860000000001c-12.516 12.516-12.516 32.809 0 45.325 12.516 12.516 32.809 12.516 45.325 0l415.897-415.897c6.271-6.271 9.399-14.495 9.386-22.714 0.013-8.219-3.115-16.443-9.386-22.714L470.714-54.61099999999999c-12.516-12.516-32.809-12.516-45.325 0-12.516 12.516-12.516 32.809 0 45.325z"  horiz-adv-x="1024" />

    
    <glyph glyph-name="arrow1-r_fill" unicode="&#59024;" d="M598.611 406.714c6.271-6.271 9.399-14.495 9.386-22.714 0.013-8.219-3.115-16.443-9.386-22.714L182.714-54.61099999999999c-12.516-12.516-32.809-12.516-45.325 0-6.245 6.245-9.373 14.426-9.386 22.611H128V800h0.003c0.013 8.185 3.141 16.366 9.386 22.611 12.516 12.516 32.809 12.516 45.325 0l415.897-415.897zM416.003-32h-0.004V114.67499999999995L662.61 361.28599999999994c6.271 6.271 9.399 14.495 9.386 22.714 0.013 8.219-3.115 16.443-9.386 22.714L416 653.325V800c0 17.673 14.327 32 32 32l0.048-0.003c8.203 0.001 16.407-3.128 22.666-9.387l415.897-415.897c6.271-6.271 9.399-14.495 9.386-22.714 0.013-8.219-3.115-16.443-9.386-22.714L470.714-54.61099999999999c-12.516-12.516-32.809-12.516-45.325 0-6.245 6.245-9.373 14.426-9.386 22.611z"  horiz-adv-x="1024" />

    
    <glyph glyph-name="monitoring_center" unicode="&#58883;" d="M959.3 249c-2.2-4.5-4.9-8.9-6.7-13.9-17.4-46.5-55.9-75.2-105.6-75.6-223.7-0.4-447-0.4-670.7 0-49.7 0-88.1 29.1-105.6 75.6-1.7 4.9-4.4 8.9-6.6 13.9V683c18.8 57.7 56.4 91.7 119.5 91.7 218.8 0 437.6 0.4 656.3 0 60 0 94-25.9 115.4-83.7 0.9-2.7 2.7-5.4 4-8.1V249zM512.4 718.7H188c-49.7 0-67.6-17.9-68-67.1-0.4-123-0.4-246.1 0-368.7 0-49.7 17.9-67.1 67.6-67.1h648.3c48.8 0 66.7 17.9 66.7 66.2 0.4 123.5 0.4 247.4 0 370.9 0 47.9-18.8 66.2-66.7 66.2-107.4-0.4-215.2-0.4-323.5-0.4zM233.2-6.5v53.2h166.4v55h223.3v-53.2h167.3v-55h-557zM566.1 271.8H457.8V605.5h108.3v-333.7z m224.1 221.9v-220.6H681.5V493.7h108.7zM342.4 271.8H234.5V437.3h107.8v-165.5z"  horiz-adv-x="1024" />

    
    <glyph glyph-name="log_management" unicode="&#58884;" d="M325.9 609.1c20.6 0 37.3 16.6 37.3 37.3V795.5c0 20.6-16.7 37.3-37.3 37.3-20.6 0-37.3-16.6-37.3-37.3v-149.1c0.1-20.6 16.7-37.3 37.3-37.3z m186.3 0c20.6 0 37.3 16.6 37.3 37.3V795.5c0 20.6-16.6 37.3-37.3 37.3-20.6 0-37.3-16.7-37.3-37.3v-149.1c0.1-20.6 16.8-37.3 37.3-37.3zM400.5 761.3h37.3v-74.5h-37.3v74.5z m186.4 0h37.3v-74.5h-37.3v74.5z m372.5-713.1V653.5c0.1 61.8-50.1 111.8-111.8 111.8h-74.5v-74.5h74.5c20.5 0 37.4-16.7 37.4-37.3v-605.4c0-20.5-16.8-37.3-37.4-37.3H176.8c-20.5 0-37.3 16.8-37.3 37.3h-0.6l0.6 605.3c0 20.5 16.7 37.3 37.3 37.3h74.5v74.6h-74.5c-61.7 0-111.8-50-111.8-111.8v-605.3c0-61.9 50.1-111.8 111.8-111.8h670.8c59.9 0 108.4 47 111.3 106.3 0.1 0.3 0.4 0.7 0.4 1V47c0 0.4 0.1 0.8 0.1 1.3v-0.1zM698.6 609.1c20.5 0 37.3 16.6 37.3 37.3V795.5c0 20.6-16.7 37.3-37.3 37.3-20.5 0-37.2-16.6-37.2-37.3v-149.1c0-20.6 16.5-37.3 37.2-37.3zM288 459.5h447.2c20.4 0 37.3 16.7 37.3 37.3 0 20.6-16.8 37.3-37.3 37.3H288c-20.6 0-37.3-16.6-37.3-37.3 0.1-20.6 16.7-37.3 37.3-37.3z m447.2-109.4H288c-20.6 0-37.3-16.7-37.3-37.3 0-20.5 16.6-37.2 37.3-37.2h447.2c20.4 0 37.3 16.7 37.3 37.2 0 20.6-16.9 37.3-37.3 37.3z m0-191.1H288c-20.6 0-37.3-16.7-37.3-37.1 0-20.6 16.6-37.4 37.3-37.4h447.2c20.4 0 37.3 16.8 37.3 37.4 0 20.5-16.9 37.1-37.3 37.1z"  horiz-adv-x="1024" />

    
    <glyph glyph-name="waybill_management" unicode="&#58885;" d="M705.4-63.6H128.1c-35.2 0-63.7 28.6-63.7 63.8V768c0 35.2 28.6 63.8 63.7 63.8h577.4c35.2 0 63.8-28.6 63.8-63.8v-125.3h-56V768c0 4.3-3.5 7.7-7.7 7.7H128.1c-4.2 0-7.7-3.5-7.7-7.7v-767.8c0-4.3 3.5-7.7 7.7-7.7h577.4c4.3 0 7.7 3.5 7.7 7.7V116.7h56v-116.4c0-35.3-28.6-63.9-63.8-63.9zM399.8 288H276.4c-15.5 0-28 12.5-28 28s12.5 28 28 28h123.4c15.5 0 28-12.5 28-28 0-15.4-12.6-28-28-28z m79.1-249c-6.6 0-12.9 2.3-18 6.5-8.1 6.8-11.7 17.6-9.3 27.9l43.8 185.5c1 4.2 2.9 8.1 5.6 11.4l284.2 346.1c4.5 5.5 10.9 9 17.8 10 76.4 10.4 145.2-43.8 155.4-118 1-7.4-1-14.9-5.5-20.8l-276-361.3c-2.9-3.8-6.7-6.8-11.1-8.7L490 41.3c-3.5-1.6-7.3-2.3-11.1-2.3z m69.5 200.7L519 114.9l117.8 51.2 264 345.4c-9.8 35.2-43.1 60.2-79.8 60.1L548.4 239.7zM862.2 389.2c-13.8 0-25.8 10.2-27.7 24.2-3 21.7-14.2 40.9-31.6 54.1-17.4 13.2-38.9 18.9-60.7 15.9-15.4-2.1-29.5 8.6-31.6 24-2.1 15.3 8.6 29.5 24 31.6 36.6 5 72.8-4.5 102.1-26.8 29.4-22.3 48.3-54.7 53.3-91.2 2.1-15.3-8.6-29.5-24-31.5-1.3-0.2-2.6-0.3-3.8-0.3zM642.4 133.7c-13.8 0-25.8 10.2-27.7 24.2-2.4 17.9-11.7 33.7-26 44.6-14.4 10.9-32.3 15.6-50 13.1-15.3-2.1-29.5 8.6-31.6 23.9-2.1 15.3 8.6 29.5 24 31.6 32.7 4.5 65.2-4 91.5-24 26.3-20 43.2-49 47.7-81.7 2.1-15.3-8.6-29.5-24-31.5-1.3-0.1-2.6-0.2-3.9-0.2zM546 439.6H276.4c-15.5 0-28 12.5-28 28s12.5 28 28 28H546c15.5 0 28-12.5 28-28 0.1-15.4-12.5-28-28-28z m0 146H276.4c-15.5 0-28 12.5-28 28s12.5 28 28 28H546c15.5 0 28-12.5 28-28 0.1-15.4-12.5-28-28-28z"  horiz-adv-x="1024" />

    
    <glyph glyph-name="order_management" unicode="&#58886;" d="M933.8 216.5l-35.9-11.2c1-7.7 2.1-15.3 2.1-23.3 0-7.9-1.3-15.6-2.5-23.2l36.2-11.3c8.5-2.5 15.6-8.2 19.7-15.9 4.1-7.7 4.9-16.8 2.1-25.2-5.8-17.2-25-26.5-42.9-21L876 96.7c-7.5-13.7-17-26.4-28-37.7l22.3-29.5c10.6-14 7.9-33.9-6.1-44.6-0.5-0.4-1-0.7-1.4-1-15.2-10.7-36.2-7.5-47.6 7.2l-22.4 29.6c-14.7-6.9-30.2-11.9-46.1-14.9v-35.9c0-18-15.3-32.7-34-32.7-18.8 0-34.1 14.6-34.1 32.7v35.9c-15.9 3-31.4 8-46.1 14.9l-22.4-29.6c-11.5-14.6-32.3-17.8-47.6-7.2-14.5 9.7-18.4 29.3-8.8 43.8 0.4 0.6 0.8 1.2 1.3 1.8l22.5 29.8c-11.3 11.1-21.1 23.6-29.1 37.3l-35.8-11.2c-18-5.6-37.1 3.8-42.9 21-5.6 16.9 3.6 35.2 20.6 40.7 0.4 0.1 0.8 0.3 1.3 0.4l35.9 11.1c-1 7.7-2.2 15.4-2.2 23.3 0 8 1.3 15.6 2.5 23.3l-36.2 11.2c-18 5.6-27.7 24-21.8 41.2 5.8 17.1 24.9 26.5 42.9 21l36.6-11.4c7.7 13.8 17.2 26.5 28.1 37.9l-22.3 29.4c-10.6 14-7.9 34 6.1 44.6 0.5 0.3 0.9 0.7 1.4 1 15.3 10.7 36.2 7.5 47.6-7.2l22.4-29.6c14.7 7 30.1 12 46.1 15v35.9c0 18 15.2 32.7 34.1 32.7 18.8 0 34.1-14.5 34.1-32.7v-35.9c15.9-3 31.4-8 46.1-15l22.4 29.7c11.4 14.6 32.3 17.8 47.6 7.2 15.2-10.6 18.6-31 7.6-45.6L848 304.9c11.1-11.3 21.3-23.6 29.2-37.2l35.7 11.1c17.9 5.5 37.1-3.8 42.9-21 5.7-17.3-4.1-35.7-22-41.3z m-221 79.8c-65.8 0-119.2-51.2-119.2-114.3 0-63.1 53.4-114.3 119.2-114.3 65.7 0 119.2 51.1 119.2 114.3 0 63.1-53.4 114.3-119.2 114.3zM451.3 49.5h-299c-24 0-43.5 19.4-43.5 43.4V745.2c0 24 19.5 43.5 43.5 43.5h391.3V593c0-48 38.9-87 87-87h173.9v-31.9c15.3-8 29.9-17.3 43.5-28v81.6l-7.7 7.7 1.3 7.7-268.3 289h-421c-48 0-87-38.9-87-87V93c0-48 38.9-87 87-87h341.2c-15.6 13-29.8 27.6-42.2 43.5zM587.1 752.6l190.3-203H630.6c-24 0-43.5 19.4-43.5 43.4V752.6z m-369.6-290h217.4V506H217.5v-43.4z m217.4 173.9H217.5V593h217.4v43.5zM217.5 182h217.4v43.5H217.5V182z m297 173.9h-297v-43.5h297v43.5z"  horiz-adv-x="1024" />

    
    <glyph glyph-name="pricing_strategy" unicode="&#58887;" d="M176.1 843.2h671.1c61.5 0 111.8-50.3 111.8-111.8v-671.1c0-61.5-50.3-111.8-111.8-111.8H176.1c-61.5 0-111.8 50.3-111.8 111.8V731.4c-0.1 61.5 50.2 111.8 111.8 111.8z m0-55.9c-33.6 0-55.9-22.4-55.9-55.9v-671.1c0-33.6 22.4-55.9 55.9-55.9h671.1c33.6 0 55.9 22.4 55.9 55.9V731.4c0 33.6-22.4 55.9-55.9 55.9H176.1z m318.7-346.7c0-28-11.2-50.3-28-72.7-16.8-16.8-44.7-28-72.7-33.6V284H355v50.3c-55.9 5.6-89.5 39.1-100.7 95.1l61.5 16.8c5.6-33.6 28-55.9 61.5-55.9 16.8 0 28 5.6 33.6 11.2 5.6 5.6 11.2 16.8 11.2 28s-5.6 22.4-11.2 28c-5.6 5.6-22.4 11.2-50.3 22.4-22.4 5.6-39.1 16.8-55.9 22.4-11.2 5.6-22.4 16.8-33.6 33.6-5.6 11.2-11.2 28-11.2 50.3s5.6 44.7 22.4 67.1c16.8 16.8 39.1 33.6 67.1 33.6V726h39.1v-39.1c44.7-5.6 78.3-33.6 89.5-78.3L422.1 586c-11.2 33.6-28 50.3-50.3 50.3-11.2 0-22.4-5.6-28-11.2-5.6-5.6-11.2-16.8-11.2-28s5.6-16.8 11.2-22.4c5.6-5.6 22.4-11.2 44.7-22.4 22.4-11.2 44.7-16.8 55.9-28 11.2-5.6 22.4-16.8 33.6-33.6 11.2-16.6 16.8-33.4 16.8-50.1z m100.7 234.9h167.8c16.8 0 28-11.2 28-28s-11.2-28-28-28H595.5c-16.8 0-28 11.2-28 28s11.2 28 28 28z m0-167.8h167.8c16.8 0 28-11.2 28-28s-11.2-28-28-28H595.5c-16.8 0-28 11.2-28 28s11.2 28 28 28z m0-167.8h167.8c16.8 0 28-11.2 28-28s-11.2-28-28-28H595.5c-16.8 0-28 11.2-28 28s11.2 28 28 28zM259.9 172.1h503.3c16.8 0 28-11.2 28-28s-11.2-28-28-28H259.9c-16.8 0-28 11.2-28 28 0.1 16.9 11.3 28 28 28z"  horiz-adv-x="1024" />

    
    <glyph glyph-name="download_line" unicode="&#59025;" d="M856-64H168c-57.438 0-104 46.563-104 104V352h64v-312c0-22.091 17.909-40 40-40h688c22.091 0 40 17.909 40 40V352h64v-312c0-57.438-46.562-104-104-104zM534.643 201.389c-12.514-12.516-32.804-12.516-45.318 0L233.371 457.363c-12.514 12.516-12.514 32.809 0 45.325 12.514 12.516 32.804 12.516 45.318 0l201.268-201.28-0.017 498.535c-0.001 17.698 14.344 32.045 32.04 32.045 17.696-0.001 32.042-14.349 32.042-32.047l0.018-498.503 201.24 201.251c12.514 12.516 32.804 12.516 45.318 0 12.514-12.516 12.514-32.809 0-45.325L534.643 201.389z"  horiz-adv-x="1024" />

    
    <glyph glyph-name="download_fill" unicode="&#59026;" d="M856-64H168c-57.438 0-104 46.563-104 104V352h64v-312c0-22.091 17.909-40 40-40h688c22.091 0 40 17.909 40 40V352h64v-312c0-57.438-46.562-104-104-104zM534.643 201.389c-12.514-12.516-32.804-12.516-45.318 0L233.371 457.363c-12.514 12.516-12.514 32.809 0 45.325 6.659 6.66 15.517 9.739 24.236 9.312H479.95l-0.01 287.943c-0.001 17.698 14.344 32.045 32.04 32.045 17.696-0.001 32.042-14.349 32.042-32.047l0.01-287.94h222.33c8.719 0.427 17.577-2.652 24.235-9.312 12.514-12.516 12.514-32.809 0-45.325L534.643 201.389z"  horiz-adv-x="1024" />

    
    <glyph glyph-name="upload_line" unicode="&#59027;" d="M856-64H168c-57.438 0-104 46.563-104 104V352h64v-312c0-22.091 17.909-40 40-40h688c22.091 0 40 17.909 40 40V352h64v-312c0-57.438-46.562-104-104-104zM534.643 822.611c-12.514 12.516-32.804 12.516-45.318 0L233.371 566.636c-12.514-12.516-12.514-32.809 0-45.325 12.514-12.516 32.804-12.516 45.318 0l201.269 201.281-0.018-498.535c-0.001-17.698 14.344-32.045 32.04-32.045 17.696 0.001 32.042 14.349 32.042 32.047l0.018 498.503 201.24-201.251c12.514-12.516 32.804-12.516 45.318 0 12.514 12.516 12.514 32.809 0 45.325L534.643 822.611z"  horiz-adv-x="1024" />

    
    <glyph glyph-name="upload_fill" unicode="&#59028;" d="M856-64H168c-57.438 0-104 46.562-104 104V352h64v-312c0-22.091 17.909-40 40-40h688c22.091 0 40 17.909 40 40V352h64v-312c0-57.438-46.562-104-104-104zM534.643 822.611c-12.514 12.516-32.804 12.516-45.318 0L233.371 566.636c-12.514-12.516-12.514-32.809 0-45.325 6.659-6.66 15.517-9.739 24.236-9.312H479.95l-0.01-287.943c-0.001-17.698 14.344-32.045 32.04-32.045 17.696 0.001 32.042 14.349 32.042 32.047l0.01 287.94h222.329c8.719-0.427 17.577 2.652 24.236 9.312 12.514 12.516 12.514 32.809 0 45.325L534.643 822.611z"  horiz-adv-x="1024" />

    
    <glyph glyph-name="window-max_line" unicode="&#59029;" d="M800-32H224c-70.692 0-128 57.308-128 128V672c0 70.692 57.308 128 128 128h576c70.692 0 128-57.308 128-128v-576c0-70.692-57.308-128-128-128z m64 704c0 35.346-28.654 64-64 64H224c-35.346 0-64-28.654-64-64v-576c0-35.346 28.654-64 64-64h576c35.346 0 64 28.654 64 64V672z"  horiz-adv-x="1024" />

    
    <glyph glyph-name="window-window_line" unicode="&#59030;" d="M832 192H704v-128c0-70.692-57.308-128-128-128H192c-70.692 0-128 57.308-128 128V448c0 70.692 57.308 128 128 128h128V704c0 70.692 57.308 128 128 128h384c70.692 0 128-57.308 128-128v-384c0-70.692-57.308-128-128-128zM192 512c-35.346 0-64-28.654-64-64v-384c0-35.346 28.654-64 64-64h384c35.346 0 64 28.654 64 64V448c0 35.346-28.654 64-64 64H192z m704 192c0 35.346-28.654 64-64 64H448c-35.346 0-64-28.654-64-64v-128h192c70.692 0 128-57.308 128-128v-192h128c35.346 0 64 28.654 64 64V704z"  horiz-adv-x="1024" />

    
    <glyph glyph-name="window-min_line" unicode="&#59031;" d="M96 128h832c17.673 0 32-14.327 32-32s-14.327-32-32-32H96c-17.673 0-32 14.327-32 32s14.327 32 32 32z"  horiz-adv-x="1024" />

    
    <glyph glyph-name="play_line" unicode="&#59032;" d="M512-64C264.577-64 64 136.577 64 384S264.577 832 512 832s448-200.577 448-448-200.577-448-448-448z m0 832c-212.077 0-384-171.923-384-384s171.923-384 384-384 384 171.923 384 384-171.923 384-384 384z m211.492-393.725l-0.012-0.039c-0.128-0.399-0.268-0.795-0.412-1.191-0.042-0.116-0.082-0.233-0.126-0.349-0.114-0.301-0.236-0.6-0.36-0.899-0.089-0.215-0.177-0.43-0.27-0.644-0.093-0.211-0.191-0.422-0.289-0.632a29.666 29.666 0 0 0-1.234-2.395c-0.024-0.042-0.045-0.085-0.069-0.127-0.013-0.023-0.03-0.044-0.044-0.067a31.933 31.933 0 0 0-1.691-2.616l-0.091-0.126a31.651 31.651 0 0 0-1.868-2.334c-0.061-0.069-0.12-0.138-0.182-0.207a31.758 31.758 0 0 0-1.957-1.998c-0.108-0.102-0.216-0.204-0.326-0.304a32.035 32.035 0 0 0-1.999-1.672c-0.161-0.124-0.322-0.248-0.485-0.369a31.953 31.953 0 0 0-2.627-1.75c-0.148-0.089-0.291-0.183-0.441-0.27L432.681 196.689a31.839 31.839 0 0 0-6.547-3.041l-0.107-0.036c-0.922-0.304-1.863-0.566-2.821-0.787l-0.331-0.077a31.885 31.885 0 0 0-3.193-0.531 32.393 32.393 0 0 0-3.171-0.205c-0.17-0.002-0.339-0.012-0.511-0.012-0.676 0-1.345 0.028-2.011 0.069-0.168 0.011-0.336 0.025-0.504 0.038a32.564 32.564 0 0 0-2.691 0.32l-0.208 0.037a31.772 31.772 0 0 0-8.602 2.763l-0.072 0.037c-0.879 0.432-1.738 0.9-2.569 1.408-0.096 0.059-0.189 0.123-0.285 0.183a32.224 32.224 0 0 0-2.223 1.516c-0.149 0.111-0.292 0.231-0.439 0.345a31.946 31.946 0 0 0-1.939 1.622c-0.155 0.141-0.303 0.29-0.455 0.434a32.223 32.223 0 0 0-1.783 1.82c-0.117 0.13-0.23 0.266-0.345 0.398a32.423 32.423 0 0 0-1.722 2.151c-0.061 0.083-0.119 0.168-0.179 0.252a31.731 31.731 0 0 0-1.654 2.559c-0.009 0.016-0.02 0.03-0.03 0.046l-0.057 0.105a31.077 31.077 0 0 0-1.392 2.72l-0.076 0.167a31.536 31.536 0 0 0-0.533 1.271l-0.098 0.248c-0.15 0.39-0.291 0.783-0.426 1.18l-0.126 0.372c-0.114 0.348-0.22 0.699-0.322 1.053-0.051 0.175-0.102 0.35-0.149 0.526-0.081 0.3-0.156 0.602-0.228 0.906a27.85 27.85 0 0 0-0.311 1.451 26.135 26.135 0 0 0-0.247 1.485 31.162 31.162 0 0 0-0.315 4.23c-0.003 0.098-0.009 0.192-0.009 0.288V544c0 0.096 0.006 0.19 0.007 0.285a31.915 31.915 0 0 0 0.315 4.23c0.03 0.209 0.06 0.418 0.093 0.625 0.047 0.287 0.099 0.574 0.154 0.86 0.048 0.253 0.097 0.506 0.151 0.757 0.05 0.232 0.105 0.463 0.16 0.694 0.072 0.303 0.147 0.606 0.228 0.906 0.047 0.176 0.099 0.35 0.149 0.526a31.242 31.242 0 0 0 0.874 2.605l0.098 0.248c0.169 0.428 0.346 0.852 0.533 1.271l0.076 0.168c0.2 0.441 0.409 0.877 0.628 1.307l0.073 0.143c0.221 0.429 0.451 0.852 0.691 1.27l0.057 0.105c0.009 0.016 0.02 0.03 0.03 0.046a32.286 32.286 0 0 0 1.654 2.559l0.179 0.252a31.85 31.85 0 0 0 1.722 2.151c0.115 0.133 0.228 0.268 0.345 0.398a32.223 32.223 0 0 0 1.783 1.82c0.152 0.144 0.301 0.293 0.455 0.434a32.697 32.697 0 0 0 1.939 1.622c0.147 0.114 0.29 0.234 0.439 0.345a32.224 32.224 0 0 0 2.223 1.516c0.096 0.06 0.189 0.124 0.285 0.183 0.832 0.508 1.69 0.976 2.569 1.408l0.072 0.037a31.772 31.772 0 0 0 8.602 2.763c0.07 0.012 0.139 0.026 0.208 0.037a32.14 32.14 0 0 0 2.691 0.321c0.168 0.013 0.335 0.027 0.504 0.038a32.671 32.671 0 0 0 2.011 0.069c0.172 0 0.341-0.01 0.513-0.013a31.905 31.905 0 0 0 3.171-0.205c0.184-0.021 0.367-0.046 0.551-0.07 0.893-0.118 1.774-0.271 2.642-0.461l0.331-0.077c0.957-0.221 1.898-0.483 2.821-0.787l0.107-0.036a31.839 31.839 0 0 0 6.547-3.041l276.331-159.598c0.15-0.087 0.293-0.181 0.441-0.27a31.966 31.966 0 0 0 5.111-3.792c0.11-0.1 0.217-0.202 0.326-0.304a31.758 31.758 0 0 0 1.957-1.998l0.182-0.207a31.651 31.651 0 0 0 3.65-5.076l0.044-0.067c0.024-0.042 0.045-0.085 0.069-0.127 0.204-0.358 0.4-0.719 0.589-1.084 0.072-0.137 0.143-0.274 0.213-0.412 0.149-0.297 0.292-0.597 0.432-0.899 0.098-0.21 0.196-0.421 0.289-0.632 0.093-0.213 0.181-0.429 0.27-0.644 0.124-0.299 0.246-0.598 0.36-0.899 0.044-0.116 0.084-0.233 0.126-0.349 0.145-0.396 0.284-0.792 0.412-1.191l0.012-0.039a31.782 31.782 0 0 0 1.508-8.984c0.006-0.247 0.001-0.494 0.001-0.741s0.005-0.494-0.001-0.741a31.849 31.849 0 0 0-1.511-8.98zM448 488.562v-209.125L629.041 384 448 488.562z"  horiz-adv-x="1024" />

    
    <glyph glyph-name="play_fill" unicode="&#59033;" d="M512-64C264.576-64 64 136.577 64 384S264.576 832 512 832s448-200.577 448-448-200.577-448-448-448z m213.001 448.741a31.812 31.812 0 0 1-1.508 8.984l-0.012 0.039a32.882 32.882 0 0 1-0.412 1.191c-0.042 0.116-0.083 0.233-0.126 0.349-0.114 0.301-0.236 0.6-0.36 0.899-0.089 0.215-0.177 0.43-0.27 0.644-0.093 0.212-0.191 0.422-0.289 0.632a22.952 22.952 0 0 1-0.644 1.311c-0.19 0.365-0.386 0.726-0.589 1.084-0.024 0.042-0.045 0.085-0.069 0.127-0.013 0.023-0.03 0.044-0.044 0.067a31.933 31.933 0 0 1-1.691 2.616l-0.091 0.126a31.651 31.651 0 0 1-1.868 2.334l-0.181 0.207a31.758 31.758 0 0 1-1.957 1.998c-0.108 0.102-0.216 0.204-0.326 0.304a32.035 32.035 0 0 1-1.999 1.672c-0.161 0.124-0.322 0.248-0.485 0.369a31.966 31.966 0 0 1-2.627 1.751c-0.148 0.089-0.291 0.183-0.441 0.27L432.681 571.311a31.839 31.839 0 0 1-6.547 3.041l-0.107 0.036a31.919 31.919 0 0 1-2.821 0.787l-0.331 0.077a31.885 31.885 0 0 1-3.193 0.531 32.393 32.393 0 0 1-3.171 0.205c-0.17 0.002-0.339 0.012-0.511 0.012-0.676 0-1.345-0.028-2.011-0.069-0.168-0.011-0.336-0.025-0.504-0.038a32.14 32.14 0 0 1-2.691-0.321c-0.07-0.011-0.139-0.025-0.208-0.037a31.772 31.772 0 0 1-8.602-2.763l-0.072-0.037c-0.879-0.432-1.738-0.9-2.569-1.409-0.096-0.059-0.189-0.123-0.285-0.183-0.762-0.477-1.506-0.979-2.223-1.516-0.149-0.111-0.292-0.231-0.439-0.345a31.946 31.946 0 0 1-1.939-1.622c-0.155-0.141-0.303-0.29-0.455-0.434a32.223 32.223 0 0 1-1.783-1.82c-0.117-0.13-0.23-0.266-0.345-0.398a32.423 32.423 0 0 1-1.722-2.151c-0.061-0.083-0.119-0.168-0.179-0.252a31.731 31.731 0 0 1-1.654-2.559c-0.009-0.016-0.02-0.03-0.03-0.046l-0.057-0.105a31.753 31.753 0 0 1-1.392-2.721l-0.076-0.168a30.94 30.94 0 0 1-0.533-1.271l-0.098-0.248c-0.15-0.39-0.291-0.783-0.426-1.18l-0.126-0.372c-0.114-0.348-0.22-0.699-0.322-1.053-0.051-0.175-0.102-0.35-0.149-0.526-0.081-0.3-0.156-0.602-0.228-0.906-0.055-0.231-0.11-0.462-0.16-0.694-0.054-0.251-0.103-0.504-0.151-0.757a26.135 26.135 0 0 1-0.247-1.485 31.162 31.162 0 0 1-0.316-4.23c-0.002-0.094-0.008-0.188-0.008-0.284v-320c0-0.096 0.006-0.19 0.007-0.285a31.915 31.915 0 0 1 0.316-4.23c0.03-0.209 0.06-0.418 0.093-0.625 0.047-0.287 0.099-0.573 0.154-0.86 0.048-0.253 0.097-0.506 0.151-0.757 0.05-0.232 0.105-0.463 0.16-0.694 0.072-0.303 0.147-0.606 0.228-0.906 0.048-0.175 0.098-0.351 0.149-0.526a31.242 31.242 0 0 1 0.874-2.605l0.098-0.248a31.536 31.536 0 0 1 1.237-2.746l0.073-0.143c0.221-0.429 0.451-0.852 0.691-1.27l0.057-0.105c0.009-0.016 0.02-0.03 0.03-0.046a32.286 32.286 0 0 1 1.654-2.559l0.179-0.252a31.85 31.85 0 0 1 1.722-2.151c0.115-0.133 0.228-0.268 0.345-0.398a32.223 32.223 0 0 1 1.783-1.82c0.152-0.144 0.301-0.293 0.455-0.434a32.697 32.697 0 0 1 1.939-1.622c0.147-0.114 0.29-0.234 0.439-0.345a32.224 32.224 0 0 1 2.223-1.516c0.096-0.06 0.189-0.124 0.285-0.183 0.832-0.508 1.69-0.977 2.569-1.409l0.072-0.037a31.772 31.772 0 0 1 8.602-2.763c0.07-0.012 0.139-0.026 0.208-0.037 0.885-0.145 1.783-0.25 2.691-0.32 0.168-0.013 0.335-0.028 0.504-0.038 0.666-0.041 1.335-0.069 2.011-0.069 0.172 0 0.342 0.01 0.513 0.013a32.43 32.43 0 0 1 3.722 0.275 31.885 31.885 0 0 1 2.642 0.461l0.331 0.077c0.957 0.22 1.898 0.483 2.821 0.787l0.107 0.036a31.839 31.839 0 0 1 6.547 3.041l276.331 159.598c0.15 0.087 0.293 0.181 0.441 0.27a31.966 31.966 0 0 1 5.111 3.792c0.11 0.1 0.217 0.202 0.326 0.304a31.758 31.758 0 0 1 1.957 1.998c0.061 0.068 0.121 0.138 0.181 0.207a31.651 31.651 0 0 1 1.868 2.334l0.091 0.126a31.763 31.763 0 0 1 1.691 2.616l0.044 0.067c0.024 0.042 0.045 0.085 0.069 0.127 0.204 0.358 0.4 0.719 0.589 1.084 0.072 0.137 0.143 0.274 0.213 0.412 0.149 0.297 0.292 0.597 0.431 0.899 0.098 0.21 0.196 0.421 0.289 0.632 0.093 0.213 0.181 0.428 0.27 0.644 0.124 0.299 0.246 0.598 0.36 0.899 0.044 0.116 0.084 0.233 0.126 0.349 0.145 0.396 0.284 0.792 0.412 1.191l0.012 0.039a31.782 31.782 0 0 1 1.508 8.984c0.006 0.247 0.001 0.494 0.001 0.741-0.001 0.243 0.004 0.49-0.002 0.737z"  horiz-adv-x="1024" />

    
    <glyph glyph-name="play_fill1" unicode="&#59034;" d="M512-64C264.576-64 64 136.577 64 384S264.576 832 512 832s448-200.577 448-448-200.577-448-448-448z m0 832c-212.077 0-384-171.923-384-384s171.923-384 384-384 384 171.923 384 384-171.923 384-384 384z m211.492-393.725l-0.012-0.039c-0.128-0.399-0.268-0.795-0.412-1.191-0.042-0.116-0.083-0.233-0.126-0.349-0.114-0.301-0.236-0.6-0.36-0.899-0.089-0.215-0.177-0.43-0.27-0.644-0.093-0.212-0.191-0.422-0.289-0.632a22.952 22.952 0 0 0-0.644-1.311c-0.19-0.365-0.386-0.726-0.589-1.084-0.024-0.042-0.045-0.085-0.069-0.127-0.013-0.023-0.03-0.044-0.044-0.067a31.933 31.933 0 0 0-1.691-2.616l-0.091-0.126a31.651 31.651 0 0 0-1.868-2.334l-0.181-0.207a31.758 31.758 0 0 0-1.957-1.998c-0.108-0.102-0.216-0.204-0.326-0.304a32.035 32.035 0 0 0-1.999-1.672c-0.161-0.124-0.322-0.248-0.485-0.369a32.38 32.38 0 0 0-2.627-1.751c-0.148-0.089-0.291-0.183-0.441-0.27l-276.33-159.596a31.839 31.839 0 0 0-6.547-3.041l-0.107-0.036c-0.922-0.304-1.863-0.566-2.821-0.787l-0.331-0.077a31.885 31.885 0 0 0-3.193-0.531 32.393 32.393 0 0 0-3.171-0.205c-0.17-0.002-0.339-0.012-0.511-0.012-0.676 0-1.345 0.028-2.011 0.069-0.168 0.011-0.336 0.025-0.504 0.038a32.564 32.564 0 0 0-2.691 0.32l-0.208 0.037a31.772 31.772 0 0 0-8.602 2.763l-0.072 0.037c-0.879 0.432-1.738 0.9-2.569 1.409-0.096 0.058-0.189 0.123-0.285 0.183a32.224 32.224 0 0 0-2.223 1.516c-0.149 0.111-0.292 0.231-0.439 0.345a31.946 31.946 0 0 0-1.939 1.622c-0.155 0.141-0.303 0.29-0.455 0.434a32.223 32.223 0 0 0-1.783 1.82c-0.117 0.13-0.23 0.266-0.345 0.398a32.423 32.423 0 0 0-1.722 2.151c-0.061 0.083-0.119 0.168-0.179 0.252a31.731 31.731 0 0 0-1.654 2.559c-0.009 0.016-0.02 0.03-0.03 0.046l-0.057 0.105c-0.24 0.417-0.47 0.841-0.691 1.27l-0.073 0.143c-0.219 0.43-0.428 0.866-0.628 1.307l-0.076 0.168a31.536 31.536 0 0 0-0.533 1.271l-0.098 0.248c-0.15 0.39-0.291 0.783-0.426 1.18-0.042 0.124-0.085 0.247-0.126 0.372-0.114 0.348-0.22 0.699-0.322 1.053-0.051 0.175-0.102 0.35-0.149 0.526-0.081 0.3-0.156 0.602-0.228 0.906-0.055 0.231-0.11 0.463-0.16 0.694a31.652 31.652 0 0 0-0.151 0.757 26.135 26.135 0 0 0-0.247 1.485 31.162 31.162 0 0 0-0.316 4.23c-0.002 0.096-0.008 0.19-0.008 0.286V544c0 0.096 0.006 0.19 0.007 0.285a31.915 31.915 0 0 0 0.316 4.23c0.03 0.209 0.06 0.418 0.093 0.625 0.047 0.287 0.099 0.574 0.154 0.86 0.048 0.253 0.097 0.506 0.151 0.757 0.05 0.232 0.105 0.463 0.16 0.694 0.072 0.304 0.147 0.606 0.228 0.906 0.048 0.176 0.098 0.35 0.149 0.526a31.242 31.242 0 0 0 0.874 2.605l0.098 0.248c0.169 0.428 0.346 0.852 0.533 1.271l0.076 0.168c0.2 0.441 0.409 0.877 0.628 1.308l0.073 0.143c0.221 0.429 0.451 0.852 0.691 1.27l0.057 0.105c0.009 0.016 0.02 0.03 0.03 0.046a32.286 32.286 0 0 0 1.654 2.559l0.179 0.252a31.85 31.85 0 0 0 1.722 2.151c0.115 0.133 0.228 0.268 0.345 0.398a32.223 32.223 0 0 0 1.783 1.82c0.152 0.144 0.301 0.293 0.455 0.434a32.697 32.697 0 0 0 1.939 1.622c0.147 0.114 0.29 0.234 0.439 0.345a32.224 32.224 0 0 0 2.223 1.516c0.096 0.06 0.189 0.124 0.285 0.183 0.832 0.508 1.69 0.977 2.569 1.409l0.072 0.037a31.772 31.772 0 0 0 8.602 2.763c0.07 0.012 0.139 0.026 0.208 0.037a32.14 32.14 0 0 0 2.691 0.321c0.168 0.013 0.335 0.028 0.504 0.038a32.671 32.671 0 0 0 2.011 0.069c0.172 0 0.342-0.01 0.513-0.013a31.941 31.941 0 0 0 3.171-0.205c0.184-0.021 0.367-0.046 0.551-0.07 0.893-0.118 1.774-0.271 2.642-0.461 0.111-0.024 0.221-0.051 0.331-0.077 0.957-0.22 1.898-0.483 2.821-0.787l0.107-0.036a31.839 31.839 0 0 0 6.547-3.041l276.331-159.598c0.15-0.087 0.293-0.181 0.441-0.27a31.966 31.966 0 0 0 5.111-3.792c0.11-0.1 0.217-0.202 0.326-0.304a31.758 31.758 0 0 0 1.957-1.998c0.061-0.068 0.121-0.138 0.181-0.207 0.662-0.752 1.285-1.53 1.868-2.334l0.091-0.126a31.763 31.763 0 0 0 1.691-2.616l0.044-0.067c0.024-0.042 0.045-0.085 0.069-0.127 0.204-0.358 0.4-0.719 0.589-1.084 0.072-0.137 0.143-0.274 0.213-0.412 0.149-0.297 0.292-0.597 0.431-0.899 0.098-0.21 0.196-0.421 0.289-0.632 0.093-0.213 0.181-0.428 0.27-0.644 0.124-0.299 0.246-0.598 0.36-0.899 0.044-0.116 0.084-0.233 0.126-0.349 0.145-0.396 0.284-0.792 0.412-1.191l0.012-0.039a31.782 31.782 0 0 0 1.508-8.984c0.006-0.247 0.001-0.494 0.001-0.741s0.005-0.494-0.001-0.741a31.813 31.813 0 0 0-1.51-8.982z"  horiz-adv-x="1024" />

    
    <glyph glyph-name="pause_line" unicode="&#59035;" d="M512-64C264.576-64 64 136.577 64 384S264.576 832 512 832s448-200.577 448-448-200.577-448-448-448z m0 832c-212.077 0-384-171.923-384-384s171.923-384 384-384 384 171.923 384 384-171.923 384-384 384z m96-576c-17.673 0-32 14.327-32 32V544c0 17.673 14.327 32 32 32s32-14.327 32-32v-320c0-17.673-14.327-32-32-32z m-192 0c-17.673 0-32 14.327-32 32V544c0 17.673 14.327 32 32 32s32-14.327 32-32v-320c0-17.673-14.327-32-32-32z"  horiz-adv-x="1024" />

    
    <glyph glyph-name="pause_fill" unicode="&#59036;" d="M512-64C264.576-64 64 136.577 64 384S264.576 832 512 832s448-200.577 448-448-200.577-448-448-448z m-64 608c0 17.673-14.327 32-32 32-17.673 0-32-14.327-32-32v-320c0-17.673 14.327-32 32-32 17.673 0 32 14.327 32 32V544z m192 0c0 17.673-14.327 32-32 32-17.673 0-32-14.327-32-32v-320c0-17.673 14.327-32 32-32 17.673 0 32 14.327 32 32V544z"  horiz-adv-x="1024" />

    
    <glyph glyph-name="stop_line" unicode="&#59037;" d="M512-64C264.576-64 64 136.577 64 384S264.576 832 512 832s448-200.577 448-448-200.577-448-448-448z m0 832c-212.077 0-384-171.923-384-384s171.923-384 384-384 384 171.923 384 384-171.923 384-384 384z m96-544H416c-35.346 0-64 28.654-64 64V480c0 35.346 28.654 64 64 64h192c35.346 0 64-28.654 64-64v-192c0-35.346-28.654-64-64-64z m0 256H416v-192h192V480z"  horiz-adv-x="1024" />

    
    <glyph glyph-name="stop_fill" unicode="&#59038;" d="M512-64C264.576-64 64 136.577 64 384S264.576 832 512 832s448-200.577 448-448-200.577-448-448-448z m160 544c0 35.346-28.654 64-64 64H416c-35.346 0-64-28.654-64-64v-192c0-35.346 28.654-64 64-64h192c35.346 0 64 28.654 64 64V480z"  horiz-adv-x="1024" />

    
    <glyph glyph-name="stop_fill1" unicode="&#59039;" d="M512-64C264.576-64 64 136.577 64 384S264.576 832 512 832s448-200.577 448-448-200.577-448-448-448z m0 832c-212.077 0-384-171.923-384-384s171.923-384 384-384 384 171.923 384 384-171.923 384-384 384z m96-544H416c-35.346 0-64 28.654-64 64V480c0 35.346 28.654 64 64 64h192c35.346 0 64-28.654 64-64v-192c0-35.346-28.654-64-64-64z"  horiz-adv-x="1024" />

    
    <glyph glyph-name="minus_line" unicode="&#59040;" d="M928 352H96c-17.673 0-32 14.327-32 32 0 17.673 14.327 32 32 32h832c17.673 0 32-14.327 32-32 0-17.673-14.327-32-32-32z"  horiz-adv-x="1024" />

    
    <glyph glyph-name="check_line" unicode="&#59042;" d="M950.632 629.399L414.929 93.696c-0.104-0.107-0.191-0.223-0.297-0.328-6.249-6.249-14.441-9.372-22.632-9.368-8.191-0.004-16.383 3.118-22.632 9.368-0.105 0.106-0.193 0.222-0.297 0.328L73.368 389.399c-12.491 12.491-12.491 32.742 0 45.233s32.742 12.491 45.233 0L392 161.233l513.399 513.399c12.491 12.491 32.742 12.491 45.233 0s12.491-32.742 0-45.233z"  horiz-adv-x="1024" />

    
    <glyph glyph-name="save_line" unicode="&#59043;" d="M800-32H224c-70.692 0-128 57.308-128 128V672c0 70.692 57.308 128 128 128h576c70.692 0 128-57.308 128-128v-576c0-70.692-57.308-128-128-128z m-96 768H320v-256h384V736z m160-64c0 35.346-28.654 64-64 64h-32v-256c0-35.346-28.654-64-64-64H320c-35.346 0-64 28.654-64 64V736h-32c-35.346 0-64-28.654-64-64v-576c0-35.346 28.654-64 64-64h576c35.346 0 64 28.654 64 64V672zM704 160H320c-17.673 0-32 14.327-32 32s14.327 32 32 32h384c17.673 0 32-14.327 32-32s-14.327-32-32-32z m-96 512c17.673 0 32-14.327 32-32v-64c0-17.673-14.327-32-32-32s-32 14.327-32 32v64c0 17.673 14.327 32 32 32z"  horiz-adv-x="1024" />

    
    <glyph glyph-name="save_fill" unicode="&#59044;" d="M800-32H224c-70.692 0-128 57.308-128 128V672c0 70.692 57.308 128 128 128h576c70.692 0 128-57.308 128-128v-576c0-70.692-57.308-128-128-128zM320 160h384c17.673 0 32 14.327 32 32s-14.327 32-32 32H320c-17.673 0-32-14.327-32-32s14.327-32 32-32z m320 480c0 17.673-14.327 32-32 32s-32-14.327-32-32v-64c0-17.673 14.327-32 32-32s32 14.327 32 32v64z m128 96h-64v-256H320V736h-64v-256c0-35.346 28.654-64 64-64h384c35.346 0 64 28.654 64 64V736z"  horiz-adv-x="1024" />

    
    <glyph glyph-name="add_line1" unicode="&#59045;" d="M512-64C264.577-64 64 136.576 64 384S264.577 832 512 832s448-200.576 448-448-200.577-448-448-448z m0.5 832C300.147 768 128 595.853 128 383.5S300.147-1 512.5-1 897 171.147 897 383.5 724.853 768 512.5 768zM736 352H544v-192c0-17.673-14.327-32-32-32-17.673 0-32 14.327-32 32V352l-192-1c-17.673 0-32 14.327-32 32 0 17.673 14.327 32 32 32l192 1V608c0 17.673 14.327 32 32 32 17.673 0 32-14.327 32-32v-192h192c17.673 0 32-14.327 32-32 0-17.673-14.327-32-32-32z"  horiz-adv-x="1024" />

    
    <glyph glyph-name="add_fill" unicode="&#59046;" d="M512-64C264.577-64 64 136.576 64 384S264.577 832 512 832s448-200.576 448-448-200.577-448-448-448z m224 480H544V608c0 17.673-14.327 32-32 32-17.673 0-32-14.327-32-32v-192l-192-1c-17.673 0-32-14.327-32-32 0-17.673 14.327-32 32-32l192 1v-192c0-17.673 14.327-32 32-32 17.673 0 32 14.327 32 32V352h192c17.673 0 32 14.327 32 32 0 17.673-14.327 32-32 32z"  horiz-adv-x="1024" />

    
    <glyph glyph-name="minus_line1" unicode="&#59047;" d="M512-64C264.577-64 64 136.576 64 384S264.577 832 512 832s448-200.576 448-448-200.577-448-448-448z m0.5 832C300.146 768 128 595.853 128 383.5S300.146-1 512.5-1 897 171.147 897 383.5 724.853 768 512.5 768zM736 352l-448-1c-17.673 0-32 14.327-32 32 0 17.673 14.327 32 32 32l448 1c17.673 0 32-14.327 32-32 0-17.673-14.327-32-32-32z"  horiz-adv-x="1024" />

    
    <glyph glyph-name="minus_fill" unicode="&#59048;" d="M512-64C264.577-64 64 136.576 64 384S264.577 832 512 832s448-200.576 448-448-200.577-448-448-448z m224 480l-448-1c-17.673 0-32-14.327-32-32 0-17.673 14.327-32 32-32l448 1c17.673 0 32 14.327 32 32 0 17.673-14.327 32-32 32z"  horiz-adv-x="1024" />

    
    </font>
</defs>
</svg>
