<svg width="128" height="128" xmlns="http://www.w3.org/2000/svg" xmlns:xlink="http://www.w3.org/1999/xlink"
     viewBox="0 0 15.97 16.03">
  <path
        d="M.2,8.54l7.59,7.29a.73.73,0,0,0,1,0,.65.65,0,0,0,0-.92l0,0L1.63,8,8.78,1.15a.66.66,0,0,0,0-.93l0,0a.71.71,0,0,0-1,0L.2,7.49A.8.8,0,0,0,.2,8.54ZM8.4,8a.63.63,0,0,0,.2.53l6.19,6a.71.71,0,0,0,1,0,.65.65,0,0,0,0-.93l0,0L10,8l5.74-5.52a.64.64,0,0,0,0-.92l0,0a.71.71,0,0,0-1,0l-6.19,6A.62.62,0,0,0,8.4,8Z"
        transform="translate(-0.01 0)"/>
</svg>
