<svg width="128" height="128" xmlns="http://www.w3.org/2000/svg" xmlns:xlink="http://www.w3.org/1999/xlink"
     viewBox="0 0 16 15.99">
  <path
        d="M15.8,8.52,8.2,15.8a.73.73,0,0,1-1,0,.65.65,0,0,1,0-.92l0,0L14.37,8,7.21,1.15a.65.65,0,0,1,0-.92l0,0a.73.73,0,0,1,1,0l7.6,7.28A.79.79,0,0,1,15.8,8.52ZM7.59,8a.63.63,0,0,1-.2.52l-6.2,5.94a.73.73,0,0,1-1,0,.65.65,0,0,1,0-.92l0,0L6,8,.2,2.49a.65.65,0,0,1,0-.92l0,0a.73.73,0,0,1,1,0l6.2,5.93A.66.66,0,0,1,7.59,8Z"
        transform="translate(0.01 0)"/>
</svg>
