<svg width="128" height="128" xmlns="http://www.w3.org/2000/svg" xmlns:xlink="http://www.w3.org/1999/xlink"
     viewBox="0 0 16 16">
  <path
        d="M16,1.69a.57.57,0,0,0-.67-.43h0L12.4,2a.57.57,0,0,0-.41.7.6.6,0,0,0,.13.25l.64.67-3.4,3.1L7.6,5a.56.56,0,0,0-.78,0h0L3,9.05a1.12,1.12,0,0,0-1.32.87v0a1.15,1.15,0,0,0,.87,1.35,1.13,1.13,0,0,0,1.32-.87v0a.85.85,0,0,0,0-.23,2,2,0,0,0-.06-.35L7.24,6.2,9,7.87a.55.55,0,0,0,.76,0l3.81-3.47.72.76a.55.55,0,0,0,.78,0h0a.72.72,0,0,0,.15-.27L16,2a.53.53,0,0,0,0-.28Zm-.9,5.21a.57.57,0,0,0-.56.57V12a.56.56,0,0,1-.56.57H1.67A.55.55,0,0,1,1.12,12V1.71a.56.56,0,0,1,.56-.57h9.26a.56.56,0,0,0,.55-.59A.57.57,0,0,0,10.94,0H1.68A1.7,1.7,0,0,0,0,1.71V12a1.69,1.69,0,0,0,1.68,1.71H14A1.69,1.69,0,0,0,15.65,12V7.47a.57.57,0,0,0-.56-.57Zm-.28,8H.84A.57.57,0,0,0,.84,16h14a.57.57,0,0,0,.54-.61.56.56,0,0,0-.54-.53Z"
       />
</svg>
