<svg width="128" height="128" xmlns="http://www.w3.org/2000/svg" xmlns:xlink="http://www.w3.org/1999/xlink"
     viewBox="0 0 16 16">

  <path
        d="M12.8,0H3.2V1.07h9.6A2.13,2.13,0,0,1,14.93,3.2v9.6H16V3.2A3.2,3.2,0,0,0,12.8,0ZM9.17,6.41A.55.55,0,0,0,9,6.4H5.87a.54.54,0,0,0,0,1.07H7.74L3.35,11.86a.54.54,0,0,0,.76.76L8.53,8.19v1.94a.54.54,0,0,0,1.07,0V6.93a.53.53,0,0,0-.43-.52Zm1.5-4.28H3.2A3.2,3.2,0,0,0,0,5.33H0V12.8A3.2,3.2,0,0,0,3.2,16h7.47a3.2,3.2,0,0,0,3.2-3.2h0V5.33a3.21,3.21,0,0,0-3.2-3.2ZM12.8,12.8a2.13,2.13,0,0,1-2.13,2.13H3.2A2.13,2.13,0,0,1,1.07,12.8h0V5.33A2.13,2.13,0,0,1,3.2,3.2h7.47A2.14,2.14,0,0,1,12.8,5.33V12.8Z"/>
</svg>
