<svg width="128" height="128" xmlns="http://www.w3.org/2000/svg" xmlns:xlink="http://www.w3.org/1999/xlink"
     viewBox="0 0 16 16">
  <path
        d="M12.8,0H3.2V1.07h9.6A2.13,2.13,0,0,1,14.93,3.2v9.6H16V3.2A3.2,3.2,0,0,0,12.8,0ZM4.4,12a.45.45,0,0,0,.2,0H7.49a.5.5,0,0,0,0-1H5.73L9.85,6.88a.53.53,0,0,0,0-.72.51.51,0,0,0-.71,0h0L5,10.33V8.5a.5.5,0,0,0-.5-.5.5.5,0,0,0-.5.5v3a.49.49,0,0,0,.4.49h0Zm6.27-9.86H3.2A3.2,3.2,0,0,0,0,5.34H0V12.8A3.2,3.2,0,0,0,3.2,16h7.47a3.2,3.2,0,0,0,3.2-3.2h0V5.33a3.21,3.21,0,0,0-3.2-3.2h0ZM12.8,12.8a2.13,2.13,0,0,1-2.13,2.13H3.2A2.13,2.13,0,0,1,1.07,12.8h0V5.33A2.13,2.13,0,0,1,3.2,3.2h7.47A2.14,2.14,0,0,1,12.8,5.33V12.8Z"/>
</svg>
