<svg width="128" height="128" xmlns="http://www.w3.org/2000/svg" xmlns:xlink="http://www.w3.org/1999/xlink"
     viewBox="0 0 15.97 16">
  <path
        d="M2.36,13.55H9.19a4.75,4.75,0,0,1-.74-1.14H2.36A1.41,1.41,0,0,1,1,10.94H1V2.61A1.41,1.41,0,0,1,2.36,1.14h9.46a1.4,1.4,0,0,1,1.32,1.47h0V7.14a3.47,3.47,0,0,1,1,.78V2.61A2.49,2.49,0,0,0,11.82,0H2.36A2.51,2.51,0,0,0,0,2.61v8.33a2.51,2.51,0,0,0,2.36,2.61Zm9.9,1.06a2.3,2.3,0,0,1-1.22,0H.52a.58.58,0,0,0,0,1.15H13.66l-1-1.15ZM15.8,15l-1.59-1.76a3.77,3.77,0,0,0,.89-2.49A3.5,3.5,0,0,0,11.78,7.1h0a3.69,3.69,0,0,0,0,7.35A3.19,3.19,0,0,0,13.4,14l1.66,1.84a.51.51,0,0,0,.71,0l0,0a.59.59,0,0,0,0-.82ZM9.49,10.77a2.3,2.3,0,1,1,2.29,2.54,2.44,2.44,0,0,1-2.29-2.54Zm1.33-7.22L7.68,6.24l-.93-1.3A.53.53,0,0,0,6,4.81H6L2.73,7.47a.64.64,0,0,0-.11.82.51.51,0,0,0,.44.24.41.41,0,0,0,.3-.12L6.24,6.08l.93,1.31a.48.48,0,0,0,.68.12l.05,0,3.55-3a.7.7,0,0,0,.11-.82.54.54,0,0,0-.74-.12Z"
        transform="translate(0)"/>
</svg>
