<svg width="128" height="128" xmlns="http://www.w3.org/2000/svg" xmlns:xlink="http://www.w3.org/1999/xlink"
     viewBox="0 0 16.02 14.01">
  <path
        d="M.47,8.42h6.2A.49.49,0,0,0,7.17,8a.47.47,0,0,0-.45-.49H.41A.43.43,0,0,0,0,7.9.51.51,0,0,0,.47,8.42Zm0-2.63h6.2a.48.48,0,1,0,0-1H.41A.45.45,0,0,0,0,5.26.52.52,0,0,0,.47,5.79Zm.9-2.64h6.2a.49.49,0,0,0,.5-.45.47.47,0,0,0-.45-.49H1.29a.41.41,0,0,0-.39.42h0a.48.48,0,0,0,.43.52ZM16,7.32a.14.14,0,0,1,0-.06h0L12.43,2.33a.44.44,0,0,0-.35-.12h-1.8V.47A.47.47,0,0,0,9.81,0H2.7a.47.47,0,0,0,0,.94H9.28v7a.45.45,0,0,0,.46.47H15v3h-.87a2.28,2.28,0,0,0-4.42,0H6.18a2.28,2.28,0,0,0-4.42,0H.48a.48.48,0,1,0,0,.95H1.81a2.28,2.28,0,0,0,4.43,0H9.76a2.28,2.28,0,0,0,4.43,0h1.34A.47.47,0,0,0,16,11.8h0V7.42a.19.19,0,0,0,0-.1Zm-5.69.1V3.15h1.56L14.9,7.42Zm3,4.42A1.28,1.28,0,1,1,12,10.57h0a1.26,1.26,0,0,1,1.28,1.24v0Zm-7.95,0A1.28,1.28,0,1,1,4,10.57H4A1.26,1.26,0,0,1,5.3,11.81v0Z"
        transform="translate(0.02 0)"/>
</svg>
