<svg id="图层_1" data-name="图层 1" xmlns="http://www.w3.org/2000/svg" viewBox="0 0 26 26">

  <path id="形状_43" data-name="形状 43" class="cls-1"
        d="M24.92,9.75H22L15.21,5.63a3.25,3.25,0,1,0-4.59-.17h0l.17.17L4,9.75H1.08A1.09,1.09,0,0,0,0,10.84V24.92A1.08,1.08,0,0,0,1.08,26H24.92A1.08,1.08,0,0,0,26,24.92V10.83A1.09,1.09,0,0,0,24.92,9.75ZM13,2.17a1.08,1.08,0,1,1,0,2.16,1.08,1.08,0,0,1-1.09-1.07h0A1.08,1.08,0,0,1,13,2.17Zm0,4.65,4.81,2.93H8.19ZM5.42,22.75H3.25V13H5.42v9.75Zm4.33,0H7.58V13H9.75v9.75Zm4.33,0H11.92V13h2.16v9.75Zm4.34,0H16.25V13h2.17v9.75Zm4.33,0H20.58V13h2.17v9.75Z"
        transform="translate(0 0)"/>
</svg>
