<svg id="图层_1" data-name="图层 1" xmlns="http://www.w3.org/2000/svg" viewBox="0 0 24.99 26">

  <path id="形状_41" data-name="形状 41" class="cls-1"
        d="M23.05,9.31A2,2,0,0,1,25,11.24V24.07A1.94,1.94,0,0,1,23.05,26h-2.6a1.94,1.94,0,0,1-1.95-1.93V11.24a1.94,1.94,0,0,1,1.95-1.93ZM4.88,11.88a1.93,1.93,0,0,1,2,1.92V24.07A2,2,0,0,1,4.88,26H2.28A1.94,1.94,0,0,1,.33,24.07V13.8a2,2,0,0,1,1.95-1.93h2.6ZM14,14.44a1.93,1.93,0,0,1,1.94,1.93v7.7A1.93,1.93,0,0,1,14,26h-2.6a1.94,1.94,0,0,1-1.95-1.93v-7.7a1.92,1.92,0,0,1,1.94-1.92H14Zm6.71-12.5H19.15a1,1,0,1,1,0-1.92L23,0a1,1,0,0,1,.7.28A.87.87,0,0,1,24,.6,1.1,1.1,0,0,1,24,1V4.83a1,1,0,0,1-2,0V3.29l-8.72,8.63a1,1,0,0,1-1.08.2L.59,7a1,1,0,0,1-.5-1.26h0a1,1,0,0,1,1.29-.49l11.07,4.86Z"
        transform="translate(-0.01 0)"/>
</svg>
