<svg  xmlns="http://www.w3.org/2000/svg" xmlns:xlink="http://www.w3.org/1999/xlink"
     viewBox="0 0 14.03 16">
  <path
        d="M2.33,3.43V14.29a.59.59,0,0,0,.59.57h8.16a.59.59,0,0,0,.59-.57V3.43ZM11.08,16H2.92a1.73,1.73,0,0,1-1.75-1.71h0V2.86a.57.57,0,0,1,.58-.57h10.5a.57.57,0,0,1,.58.57h0V14.29A1.73,1.73,0,0,1,11.08,16ZM.58,3.43a.58.58,0,0,1,0-1.15H13.42a.58.58,0,0,1,0,1.15H.58Zm3.5,3.43a.59.59,0,0,1,1.17,0v4.57a.59.59,0,0,1-.61.56.6.6,0,0,1-.56-.56Zm2.34,0a.58.58,0,1,1,1.16,0v4.57a.58.58,0,0,1-1.16,0Zm2.33,0a.58.58,0,0,1,.61-.56.59.59,0,0,1,.56.56v4.57a.59.59,0,0,1-1.17,0Zm.71-5.72H4.54L4.25,2.28h5.5Zm1,2.29h-7a.58.58,0,0,1-.6-.56.39.39,0,0,1,0-.15L3.5.43A.58.58,0,0,1,4.08,0H9.92a.58.58,0,0,1,.58.43l.58,2.29a.57.57,0,0,1-.41.69h0Z"
        transform="translate(0.01 0)"/>
</svg>
