<svg width="128" height="128" xmlns="http://www.w3.org/2000/svg" xmlns:xlink="http://www.w3.org/1999/xlink"
     viewBox="0 0 16 16">
  <path
        d="M8,16a8,8,0,1,1,8-8A8,8,0,0,1,8,16ZM8,.94A7.06,7.06,0,1,0,15.06,8,7.06,7.06,0,0,0,8,.94Zm1.83,9.53-.05-.06-.14-.06H9.58a.84.84,0,0,0-.41.14l-.41.28a1.76,1.76,0,0,1-.37.17,2.2,2.2,0,0,1-.44.12,1.33,1.33,0,0,1-.28,0A.25.25,0,0,1,7.49,11a.45.45,0,0,1,0-.28A4.05,4.05,0,0,1,7.62,10c.08-.33.17-.61.25-.85s.18-.49.29-.76.17-.38.26-.56a2.24,2.24,0,0,1,.27-.34.65.65,0,0,0,.22-.68.52.52,0,0,0-.45-.24,1.21,1.21,0,0,0-.37.07l-.27.11A2.78,2.78,0,0,0,7.48,7a1.54,1.54,0,0,0-.36.36A1,1,0,0,0,7,7.74a2.76,2.76,0,0,1-.18.64L6.5,9.54l-.29.8a2.25,2.25,0,0,0-.09.73,2.24,2.24,0,0,0,.13.57,1.12,1.12,0,0,0,.3.47.83.83,0,0,0,.5.23l.17,0a2.13,2.13,0,0,0,.55-.1A5.54,5.54,0,0,0,8.45,12,3.92,3.92,0,0,0,9,11.72l.45-.33a1.06,1.06,0,0,0,.39-.47.51.51,0,0,0,0-.45ZM7.49,5.53a.56.56,0,0,0,.35.13,1.16,1.16,0,0,0,.68-.29A1,1,0,0,0,9,4.86a1.53,1.53,0,0,0-.13-.59,1.44,1.44,0,0,0-.29-.51.6.6,0,0,0-.32-.12A.79.79,0,0,0,7.6,4a2.75,2.75,0,0,0-.36.53,1,1,0,0,0-.08.29.86.86,0,0,0,.09.39.79.79,0,0,0,.24.35Z"/>
</svg>
