<svg width="128" height="128" xmlns="http://www.w3.org/2000/svg" viewBox="0 0 161.79 174.67">
  <path
        d="M32,128,13.74,82.75a17.34,17.34,0,0,1,.15-12.94,17,17,0,0,1,8.27-9L119,14.19a14.5,14.5,0,0,1,20.06,8.12L157.55,70l-9.83,4.72L129.28,27.05c-.85-2.19-3.59-3-6-1.89L26.4,71.79a5.53,5.53,0,0,0-2.76,2.95A4.42,4.42,0,0,0,23.53,78l18.21,45.13L32,128Zm126.32,59.41H47.56c-8.85,0-16-8-16-17.88V86.19c0-9.87,7.2-17.89,16.05-17.89H158.31c8.84,0,16,8,16,17.89v83.28c0,9.87-7.2,17.89-16,17.89ZM47.56,80.23c-3,0-5.35,2.67-5.35,6v83.29c0,3.27,2.4,6,5.35,6H158.31c2.94,0,5.34-2.69,5.34-6V86.19c0-3.29-2.4-6-5.34-6ZM73.23,135.8a4,4,0,0,1-3.58-2.45,4.72,4.72,0,0,1,1.78-6l45.9-25.86a3.83,3.83,0,0,1,5.4,2,4.72,4.72,0,0,1-1.78,6L75,135.34a3.82,3.82,0,0,1-1.8.46ZM90.1,159.41a4,4,0,0,1-3.5-2.27,4.77,4.77,0,0,1,1.5-6.09L135,121.39a3.79,3.79,0,0,1,5.47,1.68,4.74,4.74,0,0,1-1.52,6.1L92.06,158.84a3.65,3.65,0,0,1-2,.57Z"
        transform="translate(-12.56 -12.69)"/>
</svg>
