<svg  xmlns="http://www.w3.org/2000/svg" viewBox="0 0 28.01 26">
  <path
        d="M23.05,17.63a5.51,5.51,0,0,0,2.27-4.45,5.42,5.42,0,0,0-10.84-.46h0a3.53,3.53,0,0,0,0,.46,5.45,5.45,0,0,0,2.28,4.45,9.08,9.08,0,0,0-5,7.45.79.79,0,0,0,.67.91h14.8a.81.81,0,0,0,.77-.83s0-.06,0-.09a9.14,9.14,0,0,0-5-7.45Zm-8.82-.47a7.57,7.57,0,0,1-1.62-5.77,7.22,7.22,0,0,1,2.83-4.73,7.43,7.43,0,0,1,6.7-.88A5.22,5.22,0,0,1,24.4,7.33a.91.91,0,0,0,.9-.91h0V4.89A4.73,4.73,0,0,0,20.78,0H4.53A4.71,4.71,0,0,0,0,4.89V20.75a4.71,4.71,0,0,0,4.52,4.89h3.6a.82.82,0,0,0,.91-.7s0-.06,0-.09a5.26,5.26,0,0,1,.53-2,12.86,12.86,0,0,1,1.94-3.14,13,13,0,0,1,2.71-2.53ZM6.33,3.93H12.9a.63.63,0,0,1,.62.56.7.7,0,0,1-.57.83H6.38a.63.63,0,0,1-.7-.54h0v-.1A.67.67,0,0,1,6.31,4h0v0ZM3.85,3.75a.92.92,0,0,1,.79.44.89.89,0,0,1,0,.89.91.91,0,0,1-.79.43.88.88,0,0,1,0-1.75h0ZM9,16.54H3.59A.79.79,0,0,1,3.41,15H9a.79.79,0,1,1,.18,1.56.48.48,0,0,1-.17,0Zm1.82-4.43H3.59a.77.77,0,0,1-.88-.66.53.53,0,0,1,0-.13.79.79,0,0,1,.8-.79h7.32a.8.8,0,0,1,.89.72v.06a.79.79,0,0,1-.78.8h-.11Z"
        transform="translate(0)"/>
</svg>
