<svg xmlns="http://www.w3.org/2000/svg" xmlns:xlink="http://www.w3.org/1999/xlink"
     viewBox="0 0 14 14">
  <path
        d="M3.77,7.54H8.08a.54.54,0,0,0,0-1.08H3.77a.54.54,0,0,0,0,1.08ZM11.85,0H2.15A2.16,2.16,0,0,0,0,2.15v9.7A2.16,2.16,0,0,0,2.15,14h9.7A2.16,2.16,0,0,0,14,11.85V2.15A2.16,2.16,0,0,0,11.85,0Zm1.07,11.85a1.07,1.07,0,0,1-1.07,1.07H2.15a1.07,1.07,0,0,1-1.07-1.07V2.15A1.07,1.07,0,0,1,2.15,1.08h9.7a1.07,1.07,0,0,1,1.07,1.07ZM10.23,3.23H3.77a.54.54,0,1,0,0,1.08h6.46a.54.54,0,0,0,0-1.08ZM9.15,9.69H3.77a.54.54,0,0,0-.54.53h0a.54.54,0,0,0,.53.54H9.15a.53.53,0,0,0,.54-.53h0a.54.54,0,0,0-.53-.54Z"/>
</svg>
