<svg  xmlns="http://www.w3.org/2000/svg" xmlns:xlink="http://www.w3.org/1999/xlink"
     viewBox="0 0 16 16">

  <path
        d="M9.59,5H2a.5.5,0,0,1-.5-.5A.5.5,0,0,1,2,4H9.59a.51.51,0,0,1,.5.5A.5.5,0,0,1,9.59,5ZM7.49,8H2A.5.5,0,1,1,2,7H7.49a.5.5,0,1,1,0,1Zm-2,3H2a.5.5,0,0,1-.5-.5A.5.5,0,0,1,2,10H5.49a.5.5,0,0,1,0,1Zm6.24-2.53a3.26,3.26,0,1,1-2.31.95,3.22,3.22,0,0,1,2.31-.95m0-1A4.27,4.27,0,1,0,16,11.73a4.25,4.25,0,0,0-4.27-4.26Zm.9,2-.38.78a10.07,10.07,0,0,0-.42.92,1.38,1.38,0,0,1-.06.16h0c-.12-.3-.4-.92-.86-1.87h-1l1.16,2h-.87v.62h1.08v.46H10.17v.62h1.08v.85h.95v-.85h1.05v-.62H12.2v-.47h1v-.61H12.4l1.19-2h-1Zm-6.13,5H2.38A2.37,2.37,0,0,1,0,12.13V2.38A2.37,2.37,0,0,1,2.38,0h8.3a2.37,2.37,0,0,1,2.37,2.38V6.52a.5.5,0,0,1-.5.5.5.5,0,0,1-.5-.5V2.38A1.37,1.37,0,0,0,10.68,1H2.38A1.38,1.38,0,0,0,1,2.38H1v9.75a1.38,1.38,0,0,0,1.38,1.38H6.5A.5.5,0,0,1,7,14,.5.5,0,0,1,6.5,14.51Z"/>
</svg>
