<svg xmlns="http://www.w3.org/2000/svg" xmlns:xlink="http://www.w3.org/1999/xlink" viewBox="0 0 16 16">
  <path
        d="M14,7.46a.54.54,0,0,1-.53-.54V1.43a.36.36,0,0,0-.36-.36H1.43a.36.36,0,0,0-.36.36h0V14.57a.36.36,0,0,0,.36.36h6a.54.54,0,1,1,0,1.07H.89A.89.89,0,0,1,0,15.11H0V.89A.89.89,0,0,1,.89,0H13.6a.89.89,0,0,1,.89.9v6A.53.53,0,0,1,14,7.46Zm1,6.75a.36.36,0,0,0-.36-.36H10.45a.36.36,0,0,0-.35.36h0v.36a.35.35,0,0,0,.35.36h4.12a.36.36,0,0,0,.36-.36h0v-.36Zm-2.41-2.77-.78,1.34h1.54l-.76-1.34Zm0-2.15a.54.54,0,1,0,.54.53h0a.54.54,0,0,0-.54-.53ZM15.11,16H9.92a.89.89,0,0,1-.9-.89H9V13.67a.89.89,0,0,1,.89-.89h.59l1-1.71a1.61,1.61,0,1,1,2.26-.22,1.52,1.52,0,0,1-.22.22l1,1.71h.58a.9.9,0,0,1,.9.89h0v1.43a.88.88,0,0,1-.88.89ZM7.2,10.06a.53.53,0,0,1,.54.53.54.54,0,0,1-.53.54h-4a.53.53,0,0,1-.54-.53.54.54,0,0,1,.53-.54h4ZM2.7,5.4a.54.54,0,0,1,.54-.54h8a.54.54,0,0,1,.54.54.55.55,0,0,1-.54.54h-8A.54.54,0,0,1,2.7,5.4ZM9.23,8.53h-6a.5.5,0,0,1-.37-.15.54.54,0,0,1,0-.76.55.55,0,0,1,.38-.16h6A.54.54,0,0,1,9.77,8a.55.55,0,0,1-.53.54Z"/>
</svg>
