<svg  xmlns="http://www.w3.org/2000/svg" xmlns:xlink="http://www.w3.org/1999/xlink"
     viewBox="0 0 18 18.01">

  <path
        d="M12.05,6.73l4.84-4.81,0,2.72a.4.4,0,0,0,.38.42h.31A.39.39,0,0,0,18,4.71V.42a.37.37,0,0,0-.1-.29A.36.36,0,0,0,17.61,0H17.4l-4,0A.44.44,0,0,0,13,.42V.71a.47.47,0,0,0,.47.42h2.66l-4.82,4.8a.57.57,0,0,0,0,.8h0a.54.54,0,0,0,.78,0ZM6,11.27l-4.84,4.8,0-2.72a.4.4,0,0,0-.4-.41H.44a.4.4,0,0,0-.42.35v4.31a.4.4,0,0,0,.1.29A.39.39,0,0,0,.39,18H.6l4.05,0a.44.44,0,0,0,.42-.42V17.3a.46.46,0,0,0-.48-.42H1.94l4.81-4.8a.56.56,0,0,0,0-.79h0a.53.53,0,0,0-.76,0l0,0H6Zm12,6.1V13.3a.39.39,0,0,0-.41-.37h-.3a.42.42,0,0,0-.4.42h0l0,2.73-4.84-4.81a.55.55,0,0,0-.78,0h0a.56.56,0,0,0,0,.79h0l4.81,4.8H13.42a.46.46,0,0,0-.47.42v.29a.42.42,0,0,0,.41.42h4.25a.4.4,0,0,0,.29-.12.38.38,0,0,0,.1-.29v-.22h0ZM1.94,1.14H4.6A.48.48,0,0,0,5.07.71V.42A.44.44,0,0,0,4.65,0L.6,0H.39A.36.36,0,0,0,0,.37V4.71a.38.38,0,0,0,.41.36H.74a.39.39,0,0,0,.4-.4h0V1.94L6,6.74A.57.57,0,0,0,6.77,6h0L1.94,1.14Z"
        transform="translate(0 0.01)"/>
</svg>
