<svg
 xmlns="http://www.w3.org/2000/svg"
 xmlns:xlink="http://www.w3.org/1999/xlink">
<path fill-rule="evenodd"
 d="M0.196,9.509 L7.785,16.801 C8.058,17.064 8.500,17.064 8.774,16.801 C9.047,16.539 9.047,16.114 8.774,15.851 L1.627,8.984 L8.774,2.116 C9.047,1.854 9.047,1.428 8.774,1.166 C8.500,0.903 8.058,0.903 7.785,1.166 L0.196,8.458 C0.045,8.602 -0.014,8.795 0.001,8.984 C-0.014,9.172 0.045,9.365 0.196,9.509 ZM8.395,8.984 C8.380,9.172 8.439,9.365 8.590,9.509 L14.780,15.458 C15.053,15.720 15.496,15.720 15.769,15.458 C16.042,15.195 16.042,14.769 15.769,14.507 L10.020,8.984 L15.769,3.460 C16.042,3.198 16.042,2.773 15.769,2.510 C15.496,2.248 15.053,2.248 14.780,2.510 L8.590,8.458 C8.439,8.602 8.380,8.795 8.395,8.984 Z"/>
<path fill="url(#PSgrad_0)"
 d="M0.196,9.509 L7.785,16.801 C8.058,17.064 8.500,17.064 8.774,16.801 C9.047,16.539 9.047,16.114 8.774,15.851 L1.627,8.984 L8.774,2.116 C9.047,1.854 9.047,1.428 8.774,1.166 C8.500,0.903 8.058,0.903 7.785,1.166 L0.196,8.458 C0.045,8.602 -0.014,8.795 0.001,8.984 C-0.014,9.172 0.045,9.365 0.196,9.509 ZM8.395,8.984 C8.380,9.172 8.439,9.365 8.590,9.509 L14.780,15.458 C15.053,15.720 15.496,15.720 15.769,15.458 C16.042,15.195 16.042,14.769 15.769,14.507 L10.020,8.984 L15.769,3.460 C16.042,3.198 16.042,2.773 15.769,2.510 C15.496,2.248 15.053,2.248 14.780,2.510 L8.590,8.458 C8.439,8.602 8.380,8.795 8.395,8.984 Z"/>
</svg>
