<svg  xmlns="http://www.w3.org/2000/svg" viewBox="0 0 30 26">
  <path
        d="M29.44,11.4,16.11.39a0,0,0,0,1-.05,0h0l0,0,0,0a1.8,1.8,0,0,0-2,.14L.56,11.4a1.49,1.49,0,0,0-.24,2.09l.1.12a1.72,1.72,0,0,0,2.35.14l1.13-1V22a4.09,4.09,0,0,0,4.18,4h2.49a1.61,1.61,0,0,0,1.68-1.55V17a.79.79,0,0,1,.81-.78h3.79a.82.82,0,0,1,.84.78v7.28a.7.7,0,0,0,.05.32l.05.19A1.62,1.62,0,0,0,19.44,26h2.44a4.09,4.09,0,0,0,4.18-4V12.83l1.13,1a1.63,1.63,0,0,0,1.08.37,1.67,1.67,0,0,0,1.27-.55,1.46,1.46,0,0,0,.07-2.06Z"
        transform="translate(0 -0.01)"/>
</svg>
