<svg xmlns="http://www.w3.org/2000/svg" xmlns:xlink="http://www.w3.org/1999/xlink"
     viewBox="0 0 16 16">
  <path
        d="M14.58,9.84v4.51a.44.44,0,0,1-.44.47H1.57a.46.46,0,0,1-.45-.47V1.65a.46.46,0,0,1,.45-.47H8V0H1.57A1.61,1.61,0,0,0,0,1.65v12.7A1.61,1.61,0,0,0,1.57,16H14.14a1.62,1.62,0,0,0,1.57-1.65h0V9.83H14.58Zm.86-5.61a.53.53,0,0,1-.4-.17L12.15,1a.6.6,0,0,1,0-.83.53.53,0,0,1,.76,0l0,0,2.88,3a.6.6,0,0,1,0,.84A.56.56,0,0,1,15.44,4.23Zm-2.9,3a.56.56,0,0,1-.4-.17.6.6,0,0,1,0-.83l2.9-3a.54.54,0,0,1,.76,0l0,0a.62.62,0,0,1,0,.84l-2.89,3A.54.54,0,0,1,12.54,7.25ZM5.09,11.84h0a.59.59,0,0,1-.54-.61A10.2,10.2,0,0,1,4.94,9,8.79,8.79,0,0,1,7.47,4.83c1.93-1.7,4.61-2.3,8-1.79a.58.58,0,0,1,.47.67.56.56,0,0,1-.62.5h0c-3-.46-5.42,0-7.1,1.52a8.49,8.49,0,0,0-2.54,5.54.58.58,0,0,1-.56.57ZM7.47.59a.56.56,0,0,0,.59.53A.55.55,0,0,0,8.59.53.55.55,0,0,0,8,0a.57.57,0,0,0-.56.59Zm7.11,9.25a.57.57,0,0,0,.59.53.57.57,0,0,0,.54-.59.56.56,0,0,0-.56-.53.58.58,0,0,0-.57.58Z"
        transform="translate(0 0)"/>
</svg>
