<svg  xmlns="http://www.w3.org/2000/svg" xmlns:xlink="http://www.w3.org/1999/xlink"
     viewBox="0 0 16 16">
  <path class="cls-1"
        d="M12.8,0H3.2V1.07h9.6A2.13,2.13,0,0,1,14.93,3.2v9.6H16V3.2A3.2,3.2,0,0,0,12.8,0ZM4.4,12a.66.66,0,0,0,.2,0H7.49a.51.51,0,0,0,0-1H5.74L9.85,6.87a.51.51,0,0,0,0-.71.5.5,0,0,0-.71,0L5,10.32V8.49a.5.5,0,0,0-.5-.5.51.51,0,0,0-.5.5v3a.51.51,0,0,0,.41.5Zm6.27-9.87H3.2A3.2,3.2,0,0,0,0,5.33V12.8A3.2,3.2,0,0,0,3.2,16h7.47a3.2,3.2,0,0,0,3.2-3.2V5.33A3.21,3.21,0,0,0,10.67,2.13ZM12.8,12.8a2.13,2.13,0,0,1-2.13,2.13H3.2A2.13,2.13,0,0,1,1.07,12.8V5.33A2.13,2.13,0,0,1,3.2,3.2h7.47A2.13,2.13,0,0,1,12.8,5.33V12.8Z"
        transform="translate(0 0)"/>
  <path class="cls-2"
        d="M12.8,0H3.2V1.07h9.6A2.13,2.13,0,0,1,14.93,3.2v9.6H16V3.2A3.2,3.2,0,0,0,12.8,0ZM4.4,12a.66.66,0,0,0,.2,0H7.49a.51.51,0,0,0,0-1H5.74L9.85,6.87a.51.51,0,0,0,0-.71.5.5,0,0,0-.71,0L5,10.32V8.49a.5.5,0,0,0-.5-.5.51.51,0,0,0-.5.5v3a.51.51,0,0,0,.41.5Zm6.27-9.87H3.2A3.2,3.2,0,0,0,0,5.33V12.8A3.2,3.2,0,0,0,3.2,16h7.47a3.2,3.2,0,0,0,3.2-3.2V5.33A3.21,3.21,0,0,0,10.67,2.13ZM12.8,12.8a2.13,2.13,0,0,1-2.13,2.13H3.2A2.13,2.13,0,0,1,1.07,12.8V5.33A2.13,2.13,0,0,1,3.2,3.2h7.47A2.13,2.13,0,0,1,12.8,5.33V12.8Z"
        transform="translate(0 0)"/>
</svg>
