<svg  xmlns="http://www.w3.org/2000/svg" viewBox="0 0 16 16">

  <path
        d="M12.72,16H3.28A3.28,3.28,0,0,1,0,12.72V3.28A3.28,3.28,0,0,1,3.28,0h9.44A3.28,3.28,0,0,1,16,3.28v9.44A3.28,3.28,0,0,1,12.72,16ZM3.28,1.06A2.22,2.22,0,0,0,1.06,3.28v9.44a2.22,2.22,0,0,0,2.22,2.22h9.44a2.22,2.22,0,0,0,2.22-2.22V3.28a2.22,2.22,0,0,0-2.22-2.22ZM12,12a.51.51,0,0,1-.72,0h0l-.72-.73a.48.48,0,0,1-.16-.5.5.5,0,0,1,.61-.38.47.47,0,0,1,.27.16l.72.72A.52.52,0,0,1,12,12m-7-1.7a3.75,3.75,0,1,1,5.3,0h0a3.74,3.74,0,0,1-5.29,0H5M9.67,5.6a2.87,2.87,0,1,0,.82,2,2.87,2.87,0,0,0-.82-2"
        transform="translate(0 0)"/>
</svg>
