<svg  xmlns="http://www.w3.org/2000/svg" viewBox="0 0 26 25.99">
  <path
        d="M13,9.73A4.87,4.87,0,1,0,8.15,4.85v0A4.86,4.86,0,0,0,13,9.73Zm.81,2.9V25.18c0,.48,0,.82.65.82A6.47,6.47,0,0,0,16,25.46,23.35,23.35,0,0,1,22.6,24c.92-.06,2.09.16,2.83-.33a1.12,1.12,0,0,0,.57-.9V10.79a1.22,1.22,0,0,0-1.39-1c-1.19.11-7.68.37-10.8,2.82h0Zm-1.62,0V25.18c0,.48.05.82-.65.82a6.47,6.47,0,0,1-1.49-.54A23.35,23.35,0,0,0,3.4,24c-.92-.06-2.09.16-2.83-.33a1.12,1.12,0,0,1-.57-.9V10.79a1.22,1.22,0,0,1,1.39-1c1.19.11,7.68.37,10.8,2.82Z"
        transform="translate(0 0)"/>
</svg>
