<svg  xmlns="http://www.w3.org/2000/svg" viewBox="0 0 26.02 25.98">

  <path
        d="M23.92,10.43H22.55a9.67,9.67,0,0,0-.92-2.26L22.85,7a2.09,2.09,0,0,0,0-2.95h0l-.73-.73a2.08,2.08,0,0,0-2.95,0h0L18,4.47a9.38,9.38,0,0,0-2.36-1V2.08A2.09,2.09,0,0,0,13.52,0h-1a2.09,2.09,0,0,0-2.09,2.08v1.4A10.15,10.15,0,0,0,8,4.46l-1.2-1.2a2.09,2.09,0,0,0-2.95,0h0L3.15,4a2.07,2.07,0,0,0,0,2.94h0L4.37,8.17a10.15,10.15,0,0,0-.93,2.26H2.08A2.08,2.08,0,0,0,0,12.51H0v1.05a2.08,2.08,0,0,0,2.08,2.08H3.46a9.69,9.69,0,0,0,1,2.28L3.14,19.19a2.08,2.08,0,0,0,0,2.94h0l.74.74a2.09,2.09,0,0,0,3,0h0l1.28-1.28a9.62,9.62,0,0,0,2.28.94v1.33a2.08,2.08,0,0,0,2.09,2.08h1a2.07,2.07,0,0,0,2.08-2.07h0V22.53l.15,0a.85.85,0,0,0,.58-1.07.82.82,0,0,0-.2-.35L15,19.84a.83.83,0,0,0-.77-.26,6.75,6.75,0,0,1-2.33,0,6.63,6.63,0,1,1,7.66-5.41s0,.07,0,.11a.85.85,0,0,0,.27.78l1.27,1.16a.88.88,0,0,0,1.23-.06.92.92,0,0,0,.19-.33l.06-.2h1.37A2.09,2.09,0,0,0,26,13.56h0v-1a2.08,2.08,0,0,0-2.08-2.08h0Zm1.43,11.86L18.2,15.83h0l-.13-.12a.76.76,0,0,1-.13-1c.85-1.63.11-4-1.1-5.17a4.61,4.61,0,0,0-3-1.46,2.48,2.48,0,0,0-1,.15.87.87,0,0,0-.48,1.12,1.21,1.21,0,0,0,.2.3l1.54,1.53a.86.86,0,0,1,.24.76l-.27,1.5a.87.87,0,0,1-.7.7l-1.5.27a.86.86,0,0,1-.76-.24L9.59,12.66a.88.88,0,0,0-1.43.3,2.47,2.47,0,0,0-.15,1,4.7,4.7,0,0,0,1.47,3A4.78,4.78,0,0,0,14.66,18a.79.79,0,0,1,1,.13l6.71,7.17a2.13,2.13,0,0,0,3.11-2.9.57.57,0,0,0-.11-.11h0Zm-1.58,2.25a.83.83,0,0,1-.85-.79.82.82,0,0,1,.79-.84h.06a.81.81,0,0,1,.84.78.82.82,0,0,1-.79.85Z"
        transform="translate(0 0)"/>
</svg>
