<svg  xmlns="http://www.w3.org/2000/svg" viewBox="0 0 25.01 26.03">
  <path
        d="M20.31,8.16a2.29,2.29,0,0,0-2.26-2.33H15.8A5.64,5.64,0,1,0,4.52,5.46a2.28,2.28,0,0,0,0,.37H2.26A2.29,2.29,0,0,0,0,8.16v14a2.29,2.29,0,0,0,2.26,2.33H9.72c4.49,0-5-8.85,10.6-13.76M10.16,2.33a3.44,3.44,0,0,1,3.38,3.49H6.77a3.44,3.44,0,0,1,3.38-3.5h0Zm0,11.65A5.74,5.74,0,0,1,4.51,8.16H6.77a3.45,3.45,0,0,0,3.38,3.5h0a3.44,3.44,0,0,0,3.38-3.49H15.8A5.74,5.74,0,0,1,10.16,14Zm7.34,1.16V15A1.25,1.25,0,0,1,20,15v.15a5,5,0,0,1,1.29.53l.11-.11a1.27,1.27,0,0,1,1.77,0,1.2,1.2,0,0,1,0,1.7l0,0-.11.11a4.38,4.38,0,0,1,.53,1.26h.16a1.23,1.23,0,0,1,.07,2.45h-.23a4.5,4.5,0,0,1-.53,1.26l.11.11a1.2,1.2,0,0,1,0,1.7l0,0a1.27,1.27,0,0,1-1.77,0l-.11-.11a5,5,0,0,1-1.29.52v.16a1.25,1.25,0,0,1-2.5,0v-.16a5.13,5.13,0,0,1-1.29-.52l-.11.11a1.28,1.28,0,0,1-1.77,0,1.2,1.2,0,0,1,0-1.7h0l.11-.11a5.35,5.35,0,0,1-.53-1.26h-.16a1.23,1.23,0,1,1-.07-2.45h.23a5,5,0,0,1,.53-1.26l-.11-.11a1.2,1.2,0,0,1,0-1.71l0,0a1.29,1.29,0,0,1,1.77,0h0l.11.11a5.53,5.53,0,0,1,1.29-.52Zm1.25,7.19a2.45,2.45,0,1,0,.14-4.9h-.14a2.45,2.45,0,1,0,0,4.9Z"
        transform="translate(0 0)"/>
</svg>
