<svg  xmlns="http://www.w3.org/2000/svg" viewBox="0 0 28 26.29">

  <path
        d="M23.44,15.25a.71.71,0,0,1-.26-.52v-.64a.55.55,0,0,0-.56-.53H21.49a.55.55,0,0,0-.57.53v.64a.77.77,0,0,1-.54.68l-.95.37a.85.85,0,0,1-.9-.13l-.48-.45a.61.61,0,0,0-.8,0l-.8.75a.51.51,0,0,0,0,.72h0l0,0,.48.46a.71.71,0,0,1,.13.84l-.39.89a.81.81,0,0,1-.73.5h-.68a.55.55,0,0,0-.56.53V21a.55.55,0,0,0,.56.53h.68a.82.82,0,0,1,.73.51l.17.39a12.22,12.22,0,0,1-4.84,1A11.86,11.86,0,0,1,0,11.7a12,12,0,0,1,24,0A11.56,11.56,0,0,1,23.44,15.25ZM16.77,11a.87.87,0,0,0,.14-1.73H14.48L16.76,7a.88.88,0,0,0,0-1.22h0a.91.91,0,0,0-1.25,0L12.28,9,9,5.76a.9.9,0,0,0-1.24,0A.86.86,0,0,0,7.79,7h0l2.27,2.24H7.94a.86.86,0,0,0-.81.92.85.85,0,0,0,.81.81h3.53V12.7H7.94a.87.87,0,1,0-.08,1.74h3.61v2a.88.88,0,0,0,.91.85.89.89,0,0,0,.86-.85v-2h3.52a.87.87,0,1,0,0-1.73H13.24V11Zm10.8,9a.42.42,0,0,1,.43.4v.81a.43.43,0,0,1-.43.4h-.52a.61.61,0,0,0-.56.38l-.3.68a.55.55,0,0,0,.1.64l.37.35a.39.39,0,0,1,0,.54h0l0,0-.61.57a.45.45,0,0,1-.61,0l-.36-.34a.63.63,0,0,0-.68-.09l-.73.27a.62.62,0,0,0-.41.53v.48a.41.41,0,0,1-.43.4H22a.41.41,0,0,1-.43-.4v-.48a.59.59,0,0,0-.41-.52l-.73-.28a.65.65,0,0,0-.68.09l-.37.35a.46.46,0,0,1-.6,0l-.61-.58a.39.39,0,0,1,0-.55h0l0,0,.36-.34a.55.55,0,0,0,.1-.64l-.3-.68a.62.62,0,0,0-.56-.39h-.51a.41.41,0,0,1-.43-.4v-.81a.42.42,0,0,1,.43-.4h.52a.63.63,0,0,0,.56-.38l.3-.68a.55.55,0,0,0-.1-.64l-.37-.35a.37.37,0,0,1,0-.54h0l0,0,.61-.57a.47.47,0,0,1,.61,0l.37.35a.65.65,0,0,0,.68.09l.72-.28a.58.58,0,0,0,.41-.52V15.9a.43.43,0,0,1,.44-.4h.86a.41.41,0,0,1,.43.4v.49a.58.58,0,0,0,.41.52l.72.28a.65.65,0,0,0,.68-.1l.37-.34a.45.45,0,0,1,.61,0l.61.57a.39.39,0,0,1,0,.55h0l0,0-.37.35a.54.54,0,0,0-.1.64l.3.68a.65.65,0,0,0,.56.38h.51ZM22.4,22.76a2,2,0,1,0-2.15-2A2.08,2.08,0,0,0,22.4,22.76Z"
        transform="translate(0 0.3)"/>
</svg>
