<svg xmlns="http://www.w3.org/2000/svg" viewBox="0 0 19 20">
  <path
    d="M17.11,11.52V9.12a7.32,7.32,0,0,0-5.72-7v0a1.91,1.91,0,1,0-3.8-.31,1.6,1.6,0,0,0,0,.31v0a7.32,7.32,0,0,0-5.68,7v2h0C1.94,13.52,0,14,0,15.31s1.06,1.83,2.37,1.83H5.69C5.74,18.72,7.43,20,9.5,20s3.77-1.28,3.82-2.86h3.31c1.31,0,2.37-.51,2.37-1.83s-1.72-1.73-1.89-3.8h0ZM9.51,19c-1.58,0-2.86-.83-2.86-1.86v0h5.71v0c0,1-1.28,1.86-2.85,1.86Zm8.54-3.65a1.27,1.27,0,0,1-1.38.82H2.33c-.39.05-1.4-.14-1.38-.8v-.17c0-.6,1.48-1.11,1.9-3.22v-.93h0V9.29A6.51,6.51,0,0,1,8.54,2.91V2.1a1,1,0,0,1,1.9-.36,1.09,1.09,0,0,1,0,.36v.8a6.51,6.51,0,0,1,5.71,6.38v1.81h0v.83h0c0,1.52,1.88,2.78,1.89,3.24v.23Z"
    transform="translate(0 0)"/>
</svg>
