<svg id="图层_1" data-name="图层 1" xmlns="http://www.w3.org/2000/svg" viewBox="0 0 21 26">

  <path id="形状_42" data-name="形状 42" class="cls-1"
        d="M21,26H17.5l-.73-1.69H4.23L3.5,26H0l3.58-5.29a3.26,3.26,0,0,1-1.74-1.22,3.42,3.42,0,0,1-.67-2.1V5.26a2.75,2.75,0,0,1,.36-1.37,5.56,5.56,0,0,1,.9-1.19,8,8,0,0,1,1.08-.93,7.31,7.31,0,0,1,1-.58L5.37.77A7,7,0,0,1,6.54.39,12,12,0,0,1,8.11.11,16.17,16.17,0,0,1,10.2,0a19,19,0,0,1,2.39.13,11,11,0,0,1,1.8.33,8.1,8.1,0,0,1,1.36.47,9.69,9.69,0,0,1,1.07.54c.32.18.67.4,1,.63a5.92,5.92,0,0,1,1,.82,4.39,4.39,0,0,1,.72,1,2.93,2.93,0,0,1,.28,1.3V17.39a3.37,3.37,0,0,1-.69,2.1,3.29,3.29,0,0,1-1.75,1.22ZM8,1.8a.77.77,0,0,0-.6.25.88.88,0,0,0-.24.64.81.81,0,0,0,.24.6.77.77,0,0,0,.6.25H13.1a.77.77,0,0,0,.6-.25.86.86,0,0,0,.25-.6.89.89,0,0,0-.25-.64.77.77,0,0,0-.6-.25Zm-5.1,8.67H18.12V5.26H2.85v5.21Zm.87,9a1.16,1.16,0,0,0,.84-.36,1.21,1.21,0,0,0,.35-.86,1.24,1.24,0,0,0-.35-.89,1.2,1.2,0,0,0-1.7,0h0a1.24,1.24,0,0,0-.35.89,1.22,1.22,0,0,0,1.21,1.22ZM16,22.6l-.76-1.75H5.78L5,22.6Zm.08-4.35a1.21,1.21,0,0,0,.35.86,1.22,1.22,0,0,0,2.09-.85h0a1.24,1.24,0,0,0-.35-.89,1.15,1.15,0,0,0-.87-.36,1.21,1.21,0,0,0-1.22,1.25Z"
        transform="translate(0 0)"/>
</svg>
