<svg  xmlns="http://www.w3.org/2000/svg" xmlns:xlink="http://www.w3.org/1999/xlink"
     viewBox="0 0 16 16.98">

  <path
        d="M15.72,3.66,8.35.06A.6.6,0,0,0,8.16,0H8.09a.37.37,0,0,0-.21.06L.29,3.66a.51.51,0,0,0-.29.5L.33,8.33h0a11.1,11.1,0,0,0,.82,3.1c.44,1,1,1,1.69,1.86A10.23,10.23,0,0,0,8,17H8.3a8.3,8.3,0,0,0,2.78-1.41,11.1,11.1,0,0,0,2.24-2.3c.64-.88,1.17-.84,1.57-1.85a11.32,11.32,0,0,0,.77-3.08h0L16,4.16a.5.5,0,0,0-.28-.5ZM14.66,8.24A9.18,9.18,0,0,1,8.18,16,9.32,9.32,0,0,1,1.34,8.24L1,4.43,8.11,1.07,15,4.42ZM11,8.08a3.57,3.57,0,1,0-1.73,3.07l.11-.07L11,12.92a.51.51,0,0,0,.37.16.51.51,0,0,0,.51-.51.48.48,0,0,0-.14-.34L10.11,10.4a2.85,2.85,0,0,0,.38-.53A3.53,3.53,0,0,0,11,8.08ZM7.4,10.64a2.53,2.53,0,1,1,1.32-.36A2.55,2.55,0,0,1,7.4,10.64Z"
        transform="translate(0)"/>
</svg>
