<svg  xmlns="http://www.w3.org/2000/svg" xmlns:xlink="http://www.w3.org/1999/xlink"
     viewBox="0 0 15.99 16">

  <path
        d="M7.94,8.06h0m.16,3.71a3.66,3.66,0,1,1,3.46-3.85v.2a3.55,3.55,0,0,1-3.45,3.65Zm0-6.38a2.78,2.78,0,1,0,2.64,2.9.53.53,0,0,0,0-.13A2.7,2.7,0,0,0,8.12,5.39ZM5.7,16H5.58a8.15,8.15,0,0,1-3-1.8.43.43,0,0,1-.13-.45,3.44,3.44,0,0,0-.36-2.2,3,3,0,0,0-1.67-1.4.52.52,0,0,1-.29-.31A15.6,15.6,0,0,1,0,8a9.11,9.11,0,0,1,.2-1.8.4.4,0,0,1,.28-.31A3.17,3.17,0,0,0,2.15,4.51a3.37,3.37,0,0,0,.37-2.2.41.41,0,0,1,.08-.48A8.73,8.73,0,0,1,5.57,0a.36.36,0,0,1,.37.09A3,3,0,0,0,10,.11.36.36,0,0,1,10.38,0a7.47,7.47,0,0,1,3,1.81.36.36,0,0,1,.12.4,3.51,3.51,0,0,0,.37,2.2,3,3,0,0,0,1.67,1.41.47.47,0,0,1,.28.3A8.51,8.51,0,0,1,16,8a8.41,8.41,0,0,1-.2,1.8.44.44,0,0,1-.28.31,3.13,3.13,0,0,0-1.67,1.41,3.49,3.49,0,0,0-.37,2.2.46.46,0,0,1-.12.4,7.57,7.57,0,0,1-3,1.8.36.36,0,0,1-.37-.09A2.9,2.9,0,0,0,8,15a3,3,0,0,0-2,.79A.26.26,0,0,1,5.7,16ZM8,14.24a3.81,3.81,0,0,1,2.36.83,7,7,0,0,0,2.32-1.4,3.93,3.93,0,0,1,.49-2.56A4,4,0,0,1,15,9.4a7.37,7.37,0,0,0,0-2.73A4.1,4.1,0,0,1,13.15,5a4,4,0,0,1-.49-2.55A6.83,6.83,0,0,0,10.34,1,3.79,3.79,0,0,1,8,1.78,3.76,3.76,0,0,1,5.62.94,7.16,7.16,0,0,0,3.3,2.35a4,4,0,0,1-.49,2.56A4,4,0,0,1,.94,6.62a7.37,7.37,0,0,0,0,2.73,4.1,4.1,0,0,1,1.87,1.72,4.32,4.32,0,0,1,.49,2.64,7.16,7.16,0,0,0,2.32,1.41A3.7,3.7,0,0,1,8,14.24Z"
        transform="translate(0 0)"/>
</svg>
