<svg  xmlns="http://www.w3.org/2000/svg" xmlns:xlink="http://www.w3.org/1999/xlink"
     viewBox="0 0 16 16">
  <path
        d="M15.43,2.68a.5.5,0,0,0-.67-.21h0l-.1.07-.07.06L12,5.16,10.84,4,13.4,1.41a.27.27,0,0,0,.09-.12l0-.05a.51.51,0,0,0-.21-.68A5,5,0,0,0,6.57,2.69,4.91,4.91,0,0,0,6,5a5,5,0,0,0,.2,1.39L3.58,9H3.5A3.5,3.5,0,1,0,7,12.5v-.09L9.61,9.8a5,5,0,0,0,5.82-7.12Zm-9.21,9.1-.31.08A2.3,2.3,0,0,1,6,12.5,2.5,2.5,0,1,1,3.5,10a2.31,2.31,0,0,1,.64.1l.08-.32L6.61,7.39a5.06,5.06,0,0,0,2,2ZM11,9a4,4,0,0,1,0-8,3.83,3.83,0,0,1,1.21.19L9.78,3.62a.48.48,0,0,0,0,.69v0l1.89,1.9a.54.54,0,0,0,.36.14.5.5,0,0,0,.35-.14l2.43-2.44A3.83,3.83,0,0,1,15,5,4,4,0,0,1,11,9ZM3.5,11A1.5,1.5,0,1,0,5,12.5,1.5,1.5,0,0,0,3.5,11Zm0,2a.5.5,0,1,1,.5-.5A.5.5,0,0,1,3.5,13Z"
        transform="translate(0 0)"/>
</svg>
