<?xml version="1.0" standalone="no"?><!DOCTYPE svg PUBLIC "-//W3C//DTD SVG 1.1//EN" "http://www.w3.org/Graphics/SVG/1.1/DTD/svg11.dtd"><svg t="1563848258561" class="icon" viewBox="0 0 1024 1024" version="1.1" xmlns="http://www.w3.org/2000/svg" p-id="2320" xmlns:xlink="http://www.w3.org/1999/xlink" width="200" height="200"><defs><style type="text/css"></style></defs><path d="M545.57377 201.442623h33.573771a33.57377 33.57377 0 0 1 33.57377 33.57377v117.508197h-100.721311v-117.508197a33.57377 33.57377 0 0 1 33.57377-33.57377z" fill="#CFD8DC" p-id="2321"></path><path d="M713.442623 386.098361l-149.739016 41.295737-25.348197-6.882623L411.278689 386.098361l74.030163-74.030164c6.311869-6.328656 14.889967-9.904262 23.837378-9.904263h106.428852c8.94741 0 17.525508 3.575607 23.837377 9.904263L713.442623 386.098361z" fill="#CFD8DC" p-id="2322"></path><path d="M663.081967 386.098361l-124.726557 34.413114L411.278689 386.098361l74.030163-74.030164c6.311869-6.328656 14.889967-9.904262 23.837378-9.904263h56.068196c8.94741 0 17.525508 3.575607 23.837377 9.904263L663.081967 386.098361z" fill="#F5F5F5" p-id="2323"></path><path d="M411.278689 427.058361h302.163934v552.120655H411.278689z" fill="#283593" p-id="2324"></path><path d="M411.278689 427.058361h251.803278v552.120655H411.278689z" fill="#3F51B5" p-id="2325"></path><path d="M394.491803 940.065574m16.786886 0l302.163934 0q16.786885 0 16.786885 16.786885l0 33.573771q0 16.786885-16.786885 16.786885l-302.163934 0q-16.786885 0-16.786886-16.786885l0-33.573771q0-16.786885 16.786886-16.786885Z" fill="#545C60" p-id="2326"></path><path d="M394.491803 386.098361m16.786886 0l302.163934 0q16.786885 0 16.786885 16.786885l0 33.57377q0 16.786885-16.786885 16.786886l-302.163934 0q-16.786885 0-16.786886-16.786886l0-33.57377q0-16.786885 16.786886-16.786885Z" fill="#545C60" p-id="2327"></path><path d="M394.491803 940.065574m16.786886 0l251.803278 0q16.786885 0 16.786885 16.786885l0 33.573771q0 16.786885-16.786885 16.786885l-251.803278 0q-16.786885 0-16.786886-16.786885l0-33.573771q0-16.786885 16.786886-16.786885Z" fill="#7F8E94" p-id="2328"></path><path d="M394.491803 386.098361m16.786886 0l251.803278 0q16.786885 0 16.786885 16.786885l0 33.57377q0 16.786885-16.786885 16.786886l-251.803278 0q-16.786885 0-16.786886-16.786886l0-33.57377q0-16.786885 16.786886-16.786885Z" fill="#7F8E94" p-id="2329"></path><path d="M629.508197 722.507541c0 39.952787-27.698361 57.411148-62.782951 58.586229a37.938361 37.938361 0 0 1-4.36459 0.167869c-37.099016 0-67.147541-17.122623-67.147541-58.754098 0-26.523279 27.194754-63.454426 47.003278-86.788197 2.685902-3.357377 5.371803-6.211148 7.721968-8.897049a16.451148 16.451148 0 0 1 24.84459 0c19.472787 21.655082 54.725246 65.468852 54.725246 95.685246z" fill="#FDD834" p-id="2330"></path><path d="M595.934426 730.229508a52.224 52.224 0 0 1-29.20918 50.864262 37.938361 37.938361 0 0 1-4.36459 0.167869c-37.099016 0-67.147541-17.122623-67.147541-58.754098 0-26.523279 27.194754-63.454426 47.003278-86.788197 19.640656 21.99082 53.718033 64.797377 53.718033 94.510164z" fill="#FFEB3A" p-id="2331"></path><path d="M434.44459 189.188197l-30.216393 30.216393-171.561967 171.561967a16.786885 16.786885 0 0 1-23.669509 0l-118.683278-118.683278a50.360656 50.360656 0 0 1 0-71.176394l154.271475-154.271475a50.360656 50.360656 0 0 1 71.176393 0l118.683279 118.683279a16.417574 16.417574 0 0 1 0 23.669508z" fill="#C81E1E" p-id="2332"></path><path d="M404.228197 219.40459L232.66623 390.966557a16.786885 16.786885 0 0 1-23.669509 0l-118.683278-118.683278a50.360656 50.360656 0 0 1-6.379017-63.286558l127.076722-127.076721a50.360656 50.360656 0 0 1 71.176393 0l118.683279 118.683279c5.086426 4.868197 6.446164 12.472656 3.357377 18.801311z" fill="#F44335" p-id="2333"></path><path d="M921.767869 250.628197A132.834623 132.834623 0 0 0 914.885246 293.770492a187.207344 187.207344 0 0 0 23.33377 92.327869c6.614033 8.67882 10.206426 19.304918 10.24 30.216393V470.032787h-100.721311V34.245246c47.171148 5.203934 100.721311 72.351475 100.721311 133.623606v1.342951a118.901508 118.901508 0 0 1-16.619016 58.754099c-4.028852 7.084066-7.352656 14.571016-9.904262 22.326557-0.167869 0.167869-0.167869 0.167869-0.167869 0.335738z" fill="#CFD8DC" p-id="2334"></path><path d="M871.407213 250.628197A132.834623 132.834623 0 0 0 864.52459 293.770492a187.207344 187.207344 0 0 0 23.333771 92.327869c6.614033 8.67882 10.206426 19.304918 10.24 30.216393V470.032787h-50.360656V60.600656A155.664787 155.664787 0 0 1 898.098361 167.868852v1.342951a118.901508 118.901508 0 0 1-16.619017 58.754099c-4.028852 7.084066-7.352656 14.571016-9.904262 22.326557-0.167869 0.167869-0.167869 0.167869-0.167869 0.335738z" fill="#F5F5F5" p-id="2335"></path><path d="M948.459016 436.459016v520.393443a50.360656 50.360656 0 1 1-100.721311 0V436.459016h100.721311z" fill="#C81E1E" p-id="2336"></path><path d="M898.098361 436.459016v520.393443a50.360656 50.360656 0 0 1-25.180328 43.645902A50.360656 50.360656 0 0 1 847.737705 956.852459V436.459016h50.360656z" fill="#F44335" p-id="2337"></path><path d="M713.442623 956.852459H411.278689a16.786885 16.786885 0 0 1-16.786886-16.786885V453.245902a16.786885 16.786885 0 0 1 16.786886-16.786886h302.163934a16.786885 16.786885 0 0 1 16.786885 16.786886v486.819672a16.786885 16.786885 0 0 1-16.786885 16.786885z m-285.377049-33.57377h268.590164V470.032787H428.065574v453.245902z" fill="#000000" p-id="2338"></path><path d="M713.442623 1024H411.278689a33.57377 33.57377 0 0 1-33.573771-33.57377v-33.573771a33.57377 33.57377 0 0 1 33.573771-33.57377h302.163934a33.57377 33.57377 0 0 1 33.57377 33.57377v33.573771a33.57377 33.57377 0 0 1-33.57377 33.57377z m-302.163934-67.147541v33.573771h302.163934v-33.573771H411.278689zM713.442623 470.032787H411.278689a33.57377 33.57377 0 0 1-33.573771-33.573771v-33.57377a33.57377 33.57377 0 0 1 33.573771-33.573771h302.163934a33.57377 33.57377 0 0 1 33.57377 33.573771v33.57377a33.57377 33.57377 0 0 1-33.57377 33.573771z m-302.163934-67.147541v33.57377h302.163934v-33.57377H411.278689z" fill="#000000" p-id="2339"></path><path d="M713.442623 402.885246H411.278689a16.786885 16.786885 0 0 1-11.868328-28.655213l74.097311-74.097312A49.991344 49.991344 0 0 1 509.129443 285.377049h106.462426a49.991344 49.991344 0 0 1 35.62177 14.755672l74.097312 74.097312A16.786885 16.786885 0 0 1 713.442623 402.885246z m-261.640393-33.573771h221.116852l-45.442098-45.442098a16.786885 16.786885 0 0 0-11.885115-4.918557h-106.462426a16.786885 16.786885 0 0 0-11.885115 4.918557L451.80223 369.311475z" fill="#000000" p-id="2340"></path><path d="M612.721311 318.95082h-100.721311a16.786885 16.786885 0 0 1-16.786885-16.786886v-67.147541a50.360656 50.360656 0 0 1 50.360655-50.360655h33.573771a50.360656 50.360656 0 0 1 50.360656 50.360655v67.147541a16.786885 16.786885 0 0 1-16.786886 16.786886z m-83.934426-33.573771h67.147541v-50.360656a16.786885 16.786885 0 0 0-16.786885-16.786885h-33.573771a16.786885 16.786885 0 0 0-16.786885 16.786885v50.360656z" fill="#000000" p-id="2341"></path><path d="M595.934426 268.590164h-16.786885a16.786885 16.786885 0 0 1 0-33.573771h16.786885a16.786885 16.786885 0 0 1 0 33.573771zM562.360656 798.014951c-51.770754 0-83.934426-28.94059-83.934426-75.540984 0-33.724852 32.046164-76.749639 58.938754-106.898885a34.480262 34.480262 0 0 1 49.991344 0c26.859016 30.216393 58.938754 73.174033 58.938754 106.898885 0 46.600393-32.163672 75.540984-83.934426 75.540984zM562.360656 637.901639c-30.971803 34.883148-50.360656 67.281836-50.360656 84.555541 0 27.849443 16.937967 41.967213 50.360656 41.967213s50.360656-14.11777 50.360655-41.967213c0-17.256918-19.321705-49.655607-50.360655-84.555541zM220.865049 412.722361c-8.897049 0.016787-17.458361-3.525246-23.736656-9.837115l-118.700065-118.700066a67.147541 67.147541 0 0 1 0-94.96341l154.305049-154.305049a67.147541 67.147541 0 0 1 94.96341 0l118.700065 118.700066a33.57377 33.57377 0 0 1 0 47.473311L244.601705 402.885246a33.321967 33.321967 0 0 1-23.736656 9.837115z m59.34164-363.889312c-8.897049 0-17.458361 3.525246-23.736656 9.820328l-154.305049 154.305049a33.57377 33.57377 0 0 0 0 47.490099l118.700065 118.700065 201.811935-201.811934-118.73364-118.683279a33.439475 33.439475 0 0 0-23.736655-9.820328zM948.459016 453.245902h-100.721311a16.786885 16.786885 0 0 1-16.786885-16.786886V34.245246a16.786885 16.786885 0 0 1 18.633442-16.686164C906.861115 23.887738 965.245902 99.730885 965.245902 167.868852a137.115279 137.115279 0 0 1-18.868459 68.540853 99.949115 99.949115 0 0 0-8.494164 19.137049c-0.151082 0.436459-0.302164 0.872918-0.48682 1.29259A116.752787 116.752787 0 0 0 931.672131 293.770492a172.904918 172.904918 0 0 0 20.144262 82.255738c8.695607 11.633311 13.412721 25.767869 13.429509 40.288524V436.459016a16.786885 16.786885 0 0 1-16.786886 16.786886z m-83.934426-33.573771h67.147541v-3.357377a34.127738 34.127738 0 0 0-6.932983-20.244984A200.301115 200.301115 0 0 1 898.098361 293.770492a149.806164 149.806164 0 0 1 8.124852-49.487738c2.85377-8.594885 6.563672-16.87082 11.079344-24.710295a102.4 102.4 0 0 0 14.352787-50.360656A139.465443 139.465443 0 0 0 864.52459 57.07541V419.672131z" fill="#000000" p-id="2342"></path><path d="M898.098361 1024a67.147541 67.147541 0 0 1-67.147541-67.147541V436.459016a16.786885 16.786885 0 0 1 16.786885-16.786885h100.721311a16.786885 16.786885 0 0 1 16.786886 16.786885v520.393443a67.147541 67.147541 0 0 1-67.147541 67.147541z m-33.573771-570.754098v503.606557a33.57377 33.57377 0 1 0 67.147541 0V453.245902h-67.147541z" fill="#000000" p-id="2343"></path><path d="M847.737705 940.065574a16.786885 16.786885 0 0 1-7.520525-31.895082l100.721312-50.360656a16.786885 16.786885 0 1 1 15.007475 30.048525l-100.721311 50.360655A16.786885 16.786885 0 0 1 847.737705 940.065574zM847.737705 856.131148a16.786885 16.786885 0 0 1-7.520525-31.895082l100.721312-50.360656a16.786885 16.786885 0 1 1 15.007475 30.048524l-100.721311 50.360656A16.786885 16.786885 0 0 1 847.737705 856.131148zM847.737705 772.196721a16.786885 16.786885 0 0 1-7.520525-31.895082l100.721312-50.360655a16.786885 16.786885 0 1 1 15.007475 30.048524l-100.721311 50.360656A16.786885 16.786885 0 0 1 847.737705 772.196721z" fill="#000000" p-id="2344"></path></svg>