<svg width="128" height="128" xmlns="http://www.w3.org/2000/svg">
  <!--<path d="M907.933538 201.531077a217.481846 217.481846 0 0 1 89.206154 175.300923 213.622154 213.622154 0 0 1-426.850461 18.353231q-0.433231-9.176615 0-18.353231a215.827692 215.827692 0 0 1 89.6-175.300923 357.651692 357.651692 0 0 1-196.411077-293.376 31.507692 31.507692 0 0 1 29.971692-36.155077h579.308308a31.507692 31.507692 0 0 1 30.011077 36.194462 360.093538 360.093538 0 0 1-195.229539 293.376h0.393846z m-347.648 18.668308a298.692923 298.692923 0 0 0-63.606153 227.367384 284.317538 284.317538 0 0 0 111.616 186.052923 291.209846 291.209846 0 0 0 263.640615 34.579693 203.815385 203.815385 0 0 0 89.206154-60.809847 35.446154 35.446154 0 0 1 35.209846 35.761231V703.606154A185.737846 185.737846 0 0 1 818.294154 896H178.215385a185.698462 185.698462 0 0 1-178.018462-192.393846v-624.876308a185.698462 185.698462 0 0 1 178.018462-192.393846h142.020923a31.940923 31.940923 0 0 1 35.76123 27.569231 33.595077 33.595077 0 0 1 0.275693 3.426461 209.526154 209.526154 0 0 0 21.188923 79.517539 490.456615 490.456615 0 0 0 76.406154 123.628307 502.902154 502.902154 0 0 0 106.41723 99.761231zM249.422769 741.336615h258.835693a25.127385 25.127385 0 0 0 24.418461-22.252307 28.238769 28.238769 0 0 0-22.882461-32.807385h-258.363077a24.733538 24.733538 0 0 0-27.569231 21.661539 21.149538 21.149538 0 0 0 0 4.174769 26.308923 26.308923 0 0 0 24.772923 27.805538h0.827077v1.575385z m-97.595077 6.774154a35.209846 35.209846 0 0 0 30.79877-17.092923 34.343385 34.343385 0 0 0 0-34.973538 35.209846 35.209846 0 0 0-30.79877-17.092923 34.579692 34.579692 0 1 0 0 69.159384z m202.83077-503.650461H141.430154a30.995692 30.995692 0 1 0 0 61.597538h213.228308a30.995692 30.995692 0 1 0 7.049846-61.597538 31.980308 31.980308 0 0 0-7.049846 0z m71.60123 174.51323H141.430154a30.759385 30.759385 0 0 0-35.209846 30.995693 31.507692 31.507692 0 0 0 31.783384 31.232 33.319385 33.319385 0 0 0 3.426462-0.196923h284.829538a31.940923 31.940923 0 0 0 35.052308-28.435693v-2.56a31.113846 31.113846 0 0 0-30.956308-31.271384 31.507692 31.507692 0 0 0-4.096 0.236307z"></path>-->
  <path d="M976.688894-125.898522h-40.978829a19.438675 19.438675 0 0 0-15.235719 0h-36.775872a371.961681 371.961681 0 0 1-364.081137 371.436312h-15.761088a372.48705 372.48705 0 0 1-364.081137-371.436312h-36.775872a19.438675 19.438675 0 0 0-15.235719 0h-40.978829c0 13.65961 0 27.319219 3.152218 40.97883V-77.039148a45.707156 45.707156 0 0 0 2.626848 14.710349 466.00284 466.00284 0 0 0 276.869782 363.555767 325.729156 325.729156 0 1 0 452.8686 85.635246 322.051568 322.051568 0 0 0-85.109876-85.635246 463.901362 463.901362 0 0 0 276.869782-367.758724 49.384743 49.384743 0 0 0 0-8.405914v-8.405914c1.050739-15.761088 2.626848-28.895328 2.626848-42.554938zM744.475528 570.216206a232.738735 232.738735 0 1 1-232.738735-232.738735 232.738735 232.738735 0 0 1 232.738735 232.738735z"></path>
</svg>
